<?xml version="1.0" encoding="utf-8"?>
<!-- Generator: Adobe Illustrator 24.0.1, SVG Export Plug-In . SVG Version: 6.00 Build 0)  -->
<svg version="1.1" id="Capa_1" xmlns="http://www.w3.org/2000/svg" xmlns:xlink="http://www.w3.org/1999/xlink" x="0px" y="0px"
	 viewBox="0 0 512 512" style="enable-background:new 0 0 512 512;" xml:space="preserve">
<style type="text/css">
	.st0{fill:#FFFFFF;}
</style>
<g>
	<g>
		<path class="st0" d="M242.3,78.2C242.3,78.2,242.3,78.3,242.3,78.2l-104,104.5c-7.8,7.8-7.8,20.5,0.1,28.3
			c7.8,7.8,20.5,7.8,28.3-0.1l69.8-70.2v281.6c0,11,9,20,20,20c11,0,20-9,20-20V140.8l69.8,70.2c7.8,7.8,20.5,7.9,28.3,0.1
			c7.8-7.8,7.9-20.5,0.1-28.3l-104-104.5l0,0C262.8,70.4,250.1,70.4,242.3,78.2z"/>
	</g>
</g>
</svg>
