<?xml version="1.0" encoding="utf-8"?>
<!-- Generator: Adobe Illustrator 24.0.1, SVG Export Plug-In . SVG Version: 6.00 Build 0)  -->
<svg version="1.1" id="Capa_1" xmlns="http://www.w3.org/2000/svg" xmlns:xlink="http://www.w3.org/1999/xlink" x="0px" y="0px"
	 viewBox="0 0 241.7 415.4" style="enable-background:new 0 0 241.7 415.4;" xml:space="preserve">
<style type="text/css">
	.st0{fill:#FFFFFF;fill-opacity:0.51;}
	.st1{fill:#FFFFFF;fill-opacity:0.4821;}
	.st2{fill:#FFFFFF;fill-opacity:5.009400e-02;}
	.st3{fill:#FFFFFF;fill-opacity:0.2345;}
	.st4{fill:#FFFFFF;fill-opacity:0.2435;}
	.st5{fill:#FFFFFF;fill-opacity:0.4595;}
	.st6{fill:#FFFFFF;fill-opacity:0.295;}
	.st7{fill:#FFFFFF;fill-opacity:0.4029;}
	.st8{fill:#FFFFFF;fill-opacity:0.4945;}
	.st9{fill:#FFFFFF;fill-opacity:0.363;}
	.st10{fill:#FFFFFF;fill-opacity:0.5;}
	.st11{fill:#FFFFFF;fill-opacity:0.4801;}
	.st12{fill:#FFFFFF;fill-opacity:0.3954;}
	.st13{fill:#FFFFFF;fill-opacity:0.3541;}
	.st14{fill:#FFFFFF;fill-opacity:0.4749;}
	.st15{fill:#FFFFFF;fill-opacity:0.4813;}
	.st16{fill:#FFFFFF;fill-opacity:0.4915;}
	.st17{fill:#FFFFFF;fill-opacity:0.4841;}
	.st18{fill:#FFFFFF;fill-opacity:0.2543;}
	.st19{fill:#FFFFFF;fill-opacity:0.1683;}
	.st20{fill:#FFFFFF;fill-opacity:0.2932;}
	.st21{fill:#FFFFFF;fill-opacity:0.3617;}
	.st22{fill:#FFFFFF;fill-opacity:0.2522;}
	.st23{fill:#FFFFFF;fill-opacity:0.4823;}
	.st24{fill:#FFFFFF;fill-opacity:0.5068;}
	.st25{fill:#FFFFFF;fill-opacity:0.4134;}
	.st26{fill:#FFFFFF;fill-opacity:0.426;}
	.st27{fill:#FFFFFF;fill-opacity:0.4338;}
	.st28{fill:#FFFFFF;fill-opacity:0.4141;}
	.st29{fill:#FFFFFF;fill-opacity:0.4725;}
	.st30{fill:#FFFFFF;fill-opacity:0.4585;}
	.st31{fill:#FFFFFF;fill-opacity:0.483;}
	.st32{fill:#FFFFFF;fill-opacity:0.4627;}
	.st33{fill:#FFFFFF;fill-opacity:0.4322;}
	.st34{fill:#FFFFFF;fill-opacity:0.2838;}
	.st35{fill:#FFFFFF;fill-opacity:0.4268;}
	.st36{fill:#FFFFFF;fill-opacity:7.100900e-02;}
	.st37{fill:#FFFFFF;fill-opacity:0.3013;}
	.st38{fill:#FFFFFF;fill-opacity:0.2921;}
	.st39{fill:#FFFFFF;fill-opacity:0.1749;}
	.st40{fill:#FFFFFF;fill-opacity:0.4683;}
	.st41{fill:#FFFFFF;fill-opacity:6.309600e-02;}
	.st42{fill:#FFFFFF;fill-opacity:0.3277;}
	.st43{fill:#FFFFFF;fill-opacity:0.358;}
	.st44{fill:#FFFFFF;fill-opacity:0.209;}
	.st45{fill:#FFFFFF;fill-opacity:0.3066;}
	.st46{fill:#FFFFFF;fill-opacity:0.3911;}
	.st47{fill:#FFFFFF;fill-opacity:8.827600e-02;}
	.st48{fill:#FFFFFF;fill-opacity:0.2267;}
	.st49{fill:#FFFFFF;fill-opacity:0.3153;}
	.st50{fill:#FFFFFF;fill-opacity:0.2931;}
	.st51{fill:#FFFFFF;fill-opacity:0.1024;}
	.st52{fill:#FFFFFF;fill-opacity:6.403500e-02;}
	.st53{fill:#FFFFFF;fill-opacity:0.117;}
	.st54{fill:#FFFFFF;fill-opacity:0.1979;}
	.st55{fill:#FFFFFF;fill-opacity:0.3072;}
	.st56{fill:#FFFFFF;fill-opacity:0.2545;}
	.st57{fill:#FFFFFF;fill-opacity:8.204000e-02;}
	.st58{fill:#FFFFFF;fill-opacity:0.2134;}
	.st59{fill:#FFFFFF;fill-opacity:0.1835;}
	.st60{fill:#FFFFFF;fill-opacity:5.244100e-02;}
	.st61{fill:#FFFFFF;fill-opacity:0.1975;}
	.st62{fill:#FFFFFF;fill-opacity:0.1119;}
	.st63{fill:#FFFFFF;fill-opacity:0.432;}
	.st64{fill:#FFFFFF;fill-opacity:0.2043;}
	.st65{fill:#FFFFFF;fill-opacity:0.3433;}
	.st66{fill:#FFFFFF;fill-opacity:0.1902;}
	.st67{fill:#FFFFFF;fill-opacity:0.3943;}
	.st68{fill:#FFFFFF;fill-opacity:0.1433;}
	.st69{fill:#FFFFFF;fill-opacity:9.722900e-02;}
	.st70{fill:#FFFFFF;fill-opacity:0.1435;}
	.st71{fill:#FFFFFF;fill-opacity:7.521300e-02;}
	.st72{fill:#FFFFFF;fill-opacity:0.462;}
	.st73{fill:#FFFFFF;fill-opacity:5.100000e-03;}
	.st74{fill:#FFFFFF;fill-opacity:0.2383;}
	.st75{fill:#FFFFFF;fill-opacity:4.189100e-02;}
	.st76{fill:#FFFFFF;fill-opacity:0.1552;}
	.st77{fill:#FFFFFF;fill-opacity:0.104;}
	.st78{fill:#FFFFFF;fill-opacity:0.2747;}
	.st79{fill:#FFFFFF;fill-opacity:0.4346;}
	.st80{fill:#FFFFFF;fill-opacity:0.5002;}
	.st81{fill:#FFFFFF;fill-opacity:8.615100e-02;}
	.st82{fill:#FFFFFF;fill-opacity:0.2509;}
	.st83{fill:#FFFFFF;fill-opacity:0.1832;}
	.st84{fill:#FFFFFF;fill-opacity:0.4978;}
	.st85{fill:#FFFFFF;fill-opacity:0.4284;}
	.st86{fill:#FFFFFF;fill-opacity:0.2676;}
	.st87{fill:#FFFFFF;fill-opacity:5.617800e-02;}
	.st88{fill:#FFFFFF;fill-opacity:0.2622;}
	.st89{fill:#FFFFFF;fill-opacity:0.3635;}
	.st90{fill:#FFFFFF;fill-opacity:0.4274;}
	.st91{fill:#FFFFFF;fill-opacity:0.1313;}
	.st92{fill:#FFFFFF;fill-opacity:3.000800e-02;}
	.st93{fill:#FFFFFF;fill-opacity:0.1186;}
	.st94{fill:#FFFFFF;fill-opacity:0.2766;}
	.st95{fill:#FFFFFF;fill-opacity:0.375;}
	.st96{fill:#FFFFFF;fill-opacity:0.1487;}
	.st97{fill:#FFFFFF;fill-opacity:0.1763;}
	.st98{fill:#FFFFFF;fill-opacity:0.2742;}
	.st99{fill:#FFFFFF;fill-opacity:0.4514;}
	.st100{fill:#FFFFFF;fill-opacity:0.3148;}
	.st101{fill:#FFFFFF;fill-opacity:4.072800e-02;}
	.st102{fill:#FFFFFF;fill-opacity:0.2279;}
	.st103{fill:#FFFFFF;fill-opacity:0.3969;}
	.st104{fill:#FFFFFF;fill-opacity:0.1884;}
	.st105{fill:#FFFFFF;fill-opacity:0.1365;}
	.st106{fill:#FFFFFF;fill-opacity:0.1547;}
	.st107{fill:#FFFFFF;fill-opacity:0.1781;}
	.st108{fill:#FFFFFF;fill-opacity:0.1421;}
	.st109{fill:#FFFFFF;fill-opacity:0.4358;}
	.st110{fill:#FFFFFF;fill-opacity:0.4828;}
	.st111{fill:#FFFFFF;fill-opacity:0.2399;}
	.st112{fill:#FFFFFF;fill-opacity:9.149600e-02;}
	.st113{fill:#FFFFFF;fill-opacity:0.151;}
	.st114{fill:#FFFFFF;fill-opacity:0.1294;}
	.st115{fill:#FFFFFF;fill-opacity:0.1764;}
	.st116{fill:#FFFFFF;fill-opacity:0.1284;}
	.st117{fill:#FFFFFF;fill-opacity:0.2892;}
	.st118{fill:#FFFFFF;fill-opacity:0.3879;}
	.st119{fill:#FFFFFF;fill-opacity:0.1645;}
	.st120{fill:#FFFFFF;fill-opacity:0.2487;}
	.st121{fill:#FFFFFF;fill-opacity:0.1896;}
	.st122{fill:#FFFFFF;fill-opacity:0.4359;}
	.st123{fill:#FFFFFF;fill-opacity:0.2239;}
	.st124{fill:#FFFFFF;fill-opacity:8.195900e-02;}
	.st125{fill:#FFFFFF;fill-opacity:9.615000e-03;}
	.st126{fill:#FFFFFF;fill-opacity:1.768700e-02;}
	.st127{fill:#FFFFFF;fill-opacity:0.3298;}
	.st128{fill:#FFFFFF;fill-opacity:0.215;}
	.st129{fill:#FFFFFF;fill-opacity:0.234;}
	.st130{fill:#FFFFFF;fill-opacity:0.1037;}
	.st131{fill:#FFFFFF;fill-opacity:0.1153;}
	.st132{fill:#FFFFFF;fill-opacity:0.2887;}
	.st133{fill:#FFFFFF;fill-opacity:0.2858;}
	.st134{fill:#FFFFFF;fill-opacity:0.3034;}
	.st135{fill:#FFFFFF;fill-opacity:7.166300e-02;}
	.st136{fill:#FFFFFF;fill-opacity:0.1335;}
	.st137{fill:#FFFFFF;fill-opacity:0.5098;}
	.st138{fill:#FFFFFF;fill-opacity:0.3918;}
	.st139{fill:#FFFFFF;fill-opacity:0.3987;}
	.st140{fill:#FFFFFF;fill-opacity:0.5053;}
	.st141{fill:#FFFFFF;fill-opacity:0.1022;}
	.st142{fill:#FFFFFF;fill-opacity:0.1897;}
	.st143{fill:#FFFFFF;fill-opacity:0.3036;}
	.st144{fill:#FFFFFF;fill-opacity:0.2911;}
	.st145{fill:#FFFFFF;fill-opacity:0.3774;}
	.st146{fill:#FFFFFF;fill-opacity:0.3646;}
	.st147{fill:#FFFFFF;fill-opacity:1.921400e-02;}
	.st148{fill:#FFFFFF;fill-opacity:0.1923;}
	.st149{fill:#FFFFFF;fill-opacity:0.2353;}
	.st150{fill:#FFFFFF;fill-opacity:0.3193;}
	.st151{fill:#FFFFFF;fill-opacity:1.747700e-02;}
	.st152{fill:#FFFFFF;fill-opacity:0.2429;}
	.st153{fill:#FFFFFF;fill-opacity:0.2248;}
	.st154{fill:#FFFFFF;fill-opacity:0.1449;}
	.st155{fill:#FFFFFF;fill-opacity:0.4365;}
	.st156{fill:#FFFFFF;fill-opacity:0.2952;}
	.st157{fill:#FFFFFF;fill-opacity:1.685800e-02;}
	.st158{fill:#FFFFFF;fill-opacity:0.3539;}
	.st159{fill:#FFFFFF;fill-opacity:0.1509;}
	.st160{fill:#FFFFFF;fill-opacity:6.628800e-02;}
	.st161{fill:#FFFFFF;fill-opacity:0.3757;}
	.st162{fill:#FFFFFF;fill-opacity:0.3637;}
	.st163{fill:#FFFFFF;fill-opacity:0.2476;}
	.st164{fill:#FFFFFF;fill-opacity:0.4904;}
	.st165{fill:#FFFFFF;fill-opacity:0.1281;}
	.st166{fill:#FFFFFF;fill-opacity:0.3065;}
	.st167{fill:#FFFFFF;fill-opacity:0.1993;}
	.st168{fill:#FFFFFF;fill-opacity:0.1163;}
	.st169{fill:#FFFFFF;fill-opacity:0.4324;}
	.st170{fill:#FFFFFF;fill-opacity:0.1438;}
	.st171{fill:#FFFFFF;fill-opacity:0.3876;}
	.st172{fill:#FFFFFF;fill-opacity:0.2097;}
	.st173{fill:#FFFFFF;fill-opacity:0.1387;}
	.st174{fill:#FFFFFF;fill-opacity:2.120000e-02;}
	.st175{fill:#FFFFFF;fill-opacity:0.1293;}
	.st176{fill:#FFFFFF;fill-opacity:7.086600e-02;}
	.st177{fill:#FFFFFF;fill-opacity:5.839400e-02;}
	.st178{fill:#FFFFFF;fill-opacity:4.710500e-02;}
	.st179{fill:#FFFFFF;fill-opacity:0.1801;}
	.st180{fill:#FFFFFF;fill-opacity:4.540800e-02;}
	.st181{fill:#FFFFFF;fill-opacity:0.108;}
	.st182{fill:#FFFFFF;fill-opacity:0.1834;}
	.st183{fill:#FFFFFF;fill-opacity:0.2096;}
	.st184{fill:#FFFFFF;fill-opacity:0.1983;}
	.st185{fill:#FFFFFF;fill-opacity:0.39;}
	.st186{fill:#FFFFFF;fill-opacity:0.3112;}
	.st187{fill:#FFFFFF;fill-opacity:0.1579;}
	.st188{fill:#FFFFFF;fill-opacity:0.2102;}
	.st189{fill:#FFFFFF;fill-opacity:1.054600e-02;}
	.st190{fill:#FFFFFF;fill-opacity:0.2052;}
	.st191{fill:#FFFFFF;fill-opacity:0.4546;}
	.st192{fill:#FFFFFF;fill-opacity:0.4732;}
	.st193{fill:#FFFFFF;fill-opacity:0.2574;}
	.st194{fill:#FFFFFF;fill-opacity:0.2237;}
	.st195{fill:#FFFFFF;fill-opacity:0.4144;}
	.st196{fill:#FFFFFF;fill-opacity:0.2774;}
	.st197{fill:#FFFFFF;fill-opacity:0.1671;}
	.st198{fill:#FFFFFF;fill-opacity:0.1064;}
	.st199{fill:#FFFFFF;fill-opacity:0.4157;}
	.st200{fill:#FFFFFF;fill-opacity:0.3274;}
	.st201{fill:#FFFFFF;fill-opacity:0.32;}
	.st202{fill:#FFFFFF;fill-opacity:0.2601;}
	.st203{fill:#FFFFFF;fill-opacity:0.1826;}
	.st204{fill:#FFFFFF;fill-opacity:0.2481;}
	.st205{fill:#FFFFFF;fill-opacity:0.1345;}
	.st206{fill:#FFFFFF;fill-opacity:0.145;}
	.st207{fill:#FFFFFF;fill-opacity:0.1271;}
	.st208{fill:#FFFFFF;fill-opacity:0.2259;}
	.st209{fill:#FFFFFF;fill-opacity:0.1751;}
	.st210{fill:#FFFFFF;fill-opacity:0.1237;}
	.st211{fill:#FFFFFF;fill-opacity:0.4139;}
	.st212{fill:#FFFFFF;fill-opacity:0.2879;}
	.st213{fill:#FFFFFF;fill-opacity:0.1936;}
	.st214{fill:#FFFFFF;fill-opacity:0.1756;}
	.st215{fill:#FFFFFF;fill-opacity:0.2583;}
	.st216{fill:#FFFFFF;fill-opacity:0.3427;}
	.st217{fill:#FFFFFF;fill-opacity:0.4442;}
	.st218{fill:#FFFFFF;fill-opacity:0.1922;}
	.st219{fill:#FFFFFF;fill-opacity:0.1425;}
	.st220{fill:#FFFFFF;fill-opacity:6.669300e-02;}
	.st221{fill:#FFFFFF;fill-opacity:3.112500e-02;}
	.st222{fill:#FFFFFF;fill-opacity:0.3267;}
	.st223{fill:#FFFFFF;fill-opacity:4.561100e-02;}
	.st224{fill:#FFFFFF;fill-opacity:0.1373;}
	.st225{fill:#FFFFFF;fill-opacity:0.1363;}
	.st226{fill:#FFFFFF;fill-opacity:0.2382;}
	.st227{fill:#FFFFFF;fill-opacity:0.2242;}
	.st228{fill:#FFFFFF;fill-opacity:0.128;}
	.st229{fill:#FFFFFF;fill-opacity:0.4766;}
	.st230{fill:#FFFFFF;fill-opacity:0.3934;}
	.st231{fill:#FFFFFF;fill-opacity:0.15;}
	.st232{fill:#FFFFFF;fill-opacity:0.3447;}
	.st233{fill:#FFFFFF;fill-opacity:0.3515;}
	.st234{fill:#FFFFFF;fill-opacity:0.2316;}
	.st235{fill:#FFFFFF;fill-opacity:0.2938;}
	.st236{fill:#FFFFFF;fill-opacity:0.226;}
	.st237{fill:#FFFFFF;fill-opacity:0.3088;}
	.st238{fill:#FFFFFF;fill-opacity:0.4133;}
	.st239{fill:#FFFFFF;fill-opacity:0.4526;}
	.st240{fill:#FFFFFF;fill-opacity:5.904600e-02;}
	.st241{fill:#FFFFFF;fill-opacity:9.648900e-02;}
	.st242{fill:#FFFFFF;fill-opacity:0.4257;}
	.st243{fill:#FFFFFF;fill-opacity:0.152;}
	.st244{fill:#FFFFFF;fill-opacity:8.326500e-02;}
	.st245{fill:#FFFFFF;fill-opacity:0.2335;}
	.st246{fill:#FFFFFF;fill-opacity:0.2062;}
	.st247{fill:#FFFFFF;fill-opacity:8.365800e-02;}
	.st248{fill:#FFFFFF;fill-opacity:0.2528;}
	.st249{fill:#FFFFFF;fill-opacity:0.2733;}
</style>
<g>
	<path class="st0" d="M112.2,332.7c0.8,1.2,2.4,1.6,3.7,0.8c1.2-0.8,1.6-2.4,0.8-3.7c-0.8-1.2-2.4-1.6-3.7-0.8
		C111.8,329.8,111.4,331.5,112.2,332.7z"/>
	<path class="st0" d="M70.5,312.2c0.8,1.2,2.5,1.6,3.7,0.8s1.6-2.5,0.8-3.7c-0.8-1.2-2.5-1.6-3.7-0.8C70,309.3,69.6,311,70.5,312.2z
		"/>
	<path class="st0" d="M100.4,248.4c0.8,1.3,2.5,1.6,3.7,0.8c1.3-0.8,1.6-2.5,0.8-3.7c-0.8-1.3-2.5-1.6-3.7-0.8
		C100,245.4,99.6,247.1,100.4,248.4z"/>
	<path class="st0" d="M31.5,324.5c0.8,1.3,2.5,1.6,3.8,0.8c1.3-0.8,1.6-2.5,0.8-3.8c-0.8-1.3-2.5-1.6-3.8-0.8
		C31,321.5,30.6,323.2,31.5,324.5z"/>
	<path class="st0" d="M223.3,364.9c0.8,1.3,2.5,1.6,3.8,0.8s1.6-2.5,0.8-3.8c-0.8-1.3-2.5-1.6-3.8-0.8
		C222.9,362,222.5,363.7,223.3,364.9z"/>
	<path class="st0" d="M99.9,391.9c0.8,1.3,2.6,1.7,3.9,0.8c1.3-0.8,1.7-2.6,0.8-3.9c-0.8-1.3-2.6-1.7-3.9-0.8S99,390.6,99.9,391.9z"
		/>
	<path class="st0" d="M114.8,415.3h2.4C116.5,415,115.6,414.9,114.8,415.3z"/>
	<path class="st0" d="M49.6,318.4c0.8,1.3,2.6,1.7,3.9,0.8c1.3-0.8,1.7-2.6,0.8-3.9c-0.8-1.3-2.6-1.7-3.9-0.8
		C49.1,315.4,48.7,317.1,49.6,318.4z"/>
	<path class="st0" d="M106.2,408.9c0.8,1.3,2.6,1.7,3.9,0.8c1.3-0.8,1.7-2.6,0.8-3.9c-0.8-1.3-2.6-1.7-3.9-0.8
		C105.8,405.9,105.4,407.6,106.2,408.9z"/>
	<path class="st0" d="M170.4,367.1c0.8,1.3,2.6,1.7,3.9,0.8c1.3-0.8,1.7-2.6,0.8-3.9c-0.8-1.3-2.6-1.7-3.9-0.8
		S169.5,365.8,170.4,367.1z"/>
	<path class="st0" d="M89.9,412.7c0.8,1.3,2.6,1.7,3.9,0.8c1.3-0.8,1.7-2.6,0.8-3.9c-0.8-1.3-2.6-1.7-3.9-0.8
		C89.5,409.7,89.1,411.4,89.9,412.7z"/>
	<path class="st0" d="M107.5,396.4c0.8,1.3,2.6,1.7,3.9,0.8c1.3-0.8,1.7-2.6,0.8-3.9c-0.8-1.3-2.6-1.7-3.9-0.8
		C107,393.3,106.6,395.1,107.5,396.4z"/>
	<path class="st0" d="M20.2,382.1c0.8,1.3,2.6,1.7,3.9,0.8c1.3-0.8,1.7-2.6,0.8-3.9c-0.8-1.3-2.6-1.7-3.9-0.8
		C19.7,379,19.4,380.8,20.2,382.1z"/>
	<path class="st0" d="M16.5,375.6c0.8,1.3,2.6,1.7,3.9,0.8c1.3-0.8,1.7-2.6,0.8-3.9c-0.8-1.3-2.6-1.7-3.9-0.8
		C16.1,372.6,15.7,374.3,16.5,375.6z"/>
	<path class="st0" d="M24,325.2c0.8,1.3,2.6,1.7,3.9,0.8c1.3-0.8,1.7-2.6,0.8-3.9c-0.8-1.3-2.6-1.7-3.9-0.8
		C23.6,322.1,23.2,323.9,24,325.2z"/>
	<path class="st0" d="M1.3,225.8c-0.3-0.5-0.8-0.8-1.2-1.1v5.2c0.1-0.1,0.3-0.1,0.4-0.2C1.7,228.9,2.1,227.1,1.3,225.8z"/>
	<path class="st0" d="M4.1,371.5c0.8,1.3,2.6,1.7,3.9,0.9c1.3-0.8,1.7-2.6,0.9-3.9c-0.8-1.3-2.6-1.7-3.9-0.9
		C3.6,368.4,3.2,370.2,4.1,371.5z"/>
	<path class="st0" d="M141,251.5c0.8,1.3,2.6,1.7,3.9,0.9s1.7-2.6,0.9-3.9c-0.8-1.3-2.6-1.7-3.9-0.9
		C140.5,248.5,140.1,250.2,141,251.5z"/>
	<path class="st0" d="M27.4,259.5c0.8,1.3,2.6,1.7,3.9,0.9c1.3-0.8,1.7-2.6,0.9-3.9c-0.8-1.3-2.6-1.7-3.9-0.9
		C27,256.4,26.6,258.1,27.4,259.5z"/>
	<path class="st0" d="M74,340c0.9,1.3,2.6,1.7,3.9,0.9c1.3-0.9,1.7-2.6,0.9-3.9c-0.9-1.3-2.6-1.7-3.9-0.9
		C73.5,336.9,73.1,338.7,74,340z"/>
	<path class="st0" d="M63.4,276.2c0.9,1.3,2.6,1.7,4,0.9c1.3-0.9,1.7-2.6,0.9-4c-0.9-1.3-2.6-1.7-4-0.9
		C63,273.1,62.6,274.9,63.4,276.2z"/>
	<ellipse class="st0" cx="72.9" cy="379.7" rx="2.9" ry="2.9"/>
	<path class="st0" d="M90.7,402.5c0.9,1.3,2.6,1.7,4,0.9c1.3-0.9,1.7-2.6,0.9-4c-0.9-1.3-2.6-1.7-4-0.9
		C90.2,399.4,89.8,401.1,90.7,402.5z"/>
	<path class="st0" d="M89.9,346.8c0.9,1.3,2.6,1.7,4,0.9c1.3-0.9,1.7-2.6,0.9-4c-0.9-1.3-2.6-1.7-4-0.9
		C89.4,343.7,89.1,345.5,89.9,346.8z"/>
	<path class="st0" d="M92.1,247.3c0.9,1.3,2.6,1.7,4,0.9c1.3-0.9,1.7-2.6,0.9-4c-0.9-1.3-2.6-1.7-4-0.9S91.2,245.9,92.1,247.3z"/>
	<path class="st0" d="M22.4,359.3c0.9,1.3,2.6,1.7,4,0.9c1.3-0.9,1.7-2.6,0.9-4c-0.8-1.4-2.6-1.7-4-0.9
		C22,356.2,21.6,357.9,22.4,359.3z"/>
	<path class="st0" d="M169.5,409.8c0.9,1.3,2.7,1.7,4,0.9c1.3-0.9,1.7-2.7,0.9-4c-0.9-1.3-2.7-1.7-4-0.9
		C169,406.7,168.6,408.5,169.5,409.8z"/>
	<path class="st0" d="M176.3,405.8c0.9,1.3,2.7,1.7,4,0.9c1.3-0.9,1.7-2.7,0.9-4c-0.9-1.3-2.7-1.7-4-0.9
		C175.9,402.6,175.5,404.4,176.3,405.8z"/>
	<path class="st0" d="M66.2,372.2c0.9,1.4,2.7,1.8,4,0.9c1.4-0.9,1.8-2.7,0.9-4c-0.9-1.4-2.7-1.8-4-0.9
		C65.7,369,65.3,370.8,66.2,372.2z"/>
	<path class="st0" d="M26.5,312.7c0.9,1.4,2.7,1.8,4.1,0.9c1.4-0.9,1.8-2.7,0.9-4.1c-0.9-1.4-2.7-1.8-4.1-0.9
		C26,309.5,25.6,311.3,26.5,312.7z"/>
	<ellipse class="st0" cx="75.1" cy="398.6" rx="3" ry="3"/>
	<path class="st0" d="M37.3,226.2c0.9,1.4,2.7,1.8,4.1,0.9c1.4-0.9,1.8-2.7,0.9-4.1c-0.9-1.4-2.7-1.8-4.1-0.9
		C36.8,222.9,36.4,224.8,37.3,226.2z"/>
	<path class="st0" d="M22.1,237.6c0.9,1.4,2.7,1.8,4.1,0.9c1.4-0.9,1.8-2.7,0.9-4.1c-0.9-1.4-2.7-1.8-4.1-0.9
		C21.6,234.3,21.2,236.2,22.1,237.6z"/>
	<path class="st0" d="M16.8,310.7c0.9,1.4,2.7,1.8,4.1,0.9c1.4-0.9,1.8-2.7,0.9-4.1c-0.9-1.4-2.7-1.8-4.1-0.9
		C16.3,307.4,15.9,309.3,16.8,310.7z"/>
	<path class="st0" d="M2,383.1c0.9,1.4,2.8,1.8,4.2,0.9s1.8-2.8,0.9-4.2c-0.9-1.4-2.8-1.8-4.2-0.9C1.6,379.9,1.2,381.7,2,383.1z"/>
	<path class="st0" d="M2.9,334.1c0.9,1.4,2.8,1.8,4.2,0.9s1.8-2.8,0.9-4.2c-0.9-1.4-2.8-1.8-4.2-0.9S2,332.7,2.9,334.1z"/>
	<path class="st0" d="M33.7,329.1c0.9,1.4,2.8,1.8,4.2,0.9s1.8-2.8,0.9-4.2c-0.9-1.4-2.8-1.8-4.2-0.9
		C33.2,325.8,32.8,327.7,33.7,329.1z"/>
	<path class="st0" d="M124.8,406.6c0.9,1.4,2.8,1.8,4.2,0.9c1.4-0.9,1.8-2.8,0.9-4.2s-2.8-1.8-4.2-0.9
		C124.3,403.4,123.9,405.2,124.8,406.6z"/>
	<path class="st0" d="M29.3,288.4c0.9,1.4,2.8,1.8,4.2,0.9c1.4-0.9,1.8-2.8,0.9-4.2c-0.9-1.4-2.8-1.8-4.2-0.9S28.4,286.9,29.3,288.4
		z"/>
	<path class="st0" d="M1.9,409.4c0.9,1.4,2.8,1.8,4.2,0.9c1.4-0.9,1.8-2.8,0.9-4.2s-2.8-1.8-4.2-0.9C1.4,406.1,1,408,1.9,409.4z"/>
	<path class="st0" d="M62.8,372c0.9,1.4,2.8,1.8,4.2,0.9c1.4-0.9,1.8-2.8,0.9-4.2c-0.9-1.4-2.8-1.8-4.2-0.9
		C62.3,368.8,61.9,370.6,62.8,372z"/>
	<path class="st0" d="M1.6,166.5c0.9,1.4,2.8,1.8,4.2,0.9s1.8-2.8,0.9-4.2c-0.9-1.4-2.8-1.8-4.2-0.9C1.1,163.2,0.7,165.1,1.6,166.5z
		"/>
	<path class="st0" d="M168.9,384.4c0.9,1.4,2.8,1.8,4.2,0.9c1.4-0.9,1.8-2.8,0.9-4.2s-2.8-1.8-4.2-0.9
		C168.4,381.1,168,382.9,168.9,384.4z"/>
	<path class="st0" d="M16.1,188.1c0.9,1.4,2.8,1.8,4.2,0.9c1.4-0.9,1.8-2.8,0.9-4.2c-0.9-1.4-2.8-1.8-4.2-0.9
		C15.6,184.8,15.2,186.7,16.1,188.1z"/>
	<path class="st0" d="M116.6,399c0.9,1.4,2.8,1.8,4.2,0.9c1.4-0.9,1.8-2.8,0.9-4.2s-2.8-1.8-4.2-0.9
		C116.1,395.7,115.7,397.6,116.6,399z"/>
	<path class="st0" d="M51,227.4c0.9,1.4,2.8,1.8,4.2,0.9c1.4-0.9,1.8-2.8,0.9-4.2c-0.9-1.4-2.8-1.8-4.2-0.9
		C50.5,224.1,50.1,226,51,227.4z"/>
	<path class="st0" d="M195,371.8c0.9,1.4,2.8,1.8,4.2,0.9c1.4-0.9,1.8-2.8,0.9-4.2s-2.8-1.8-4.2-0.9
		C194.5,368.5,194.1,370.4,195,371.8z"/>
	<path class="st0" d="M104.9,334.8c0.9,1.4,2.8,1.8,4.3,0.9c1.5-0.9,1.8-2.8,0.9-4.3s-2.8-1.8-4.3-0.9
		C104.4,331.5,104,333.4,104.9,334.8z"/>
	<path class="st0" d="M26.4,302.5c0.9,1.4,2.8,1.8,4.3,0.9c1.4-0.9,1.8-2.8,0.9-4.3c-0.9-1.4-2.8-1.8-4.3-0.9
		C25.9,299.2,25.5,301.1,26.4,302.5z"/>
	<path class="st0" d="M132.2,411.3c-0.9-1.4-2.8-1.9-4.3-0.9c-1.4,0.9-1.9,2.8-0.9,4.3c0.2,0.3,0.4,0.5,0.6,0.7h3.9
		C132.8,414.3,133.1,412.6,132.2,411.3z"/>
	<path class="st0" d="M134.4,343.8c0.9,1.4,2.8,1.9,4.3,0.9c1.4-0.9,1.9-2.8,0.9-4.3c-0.9-1.4-2.8-1.9-4.3-0.9
		C133.9,340.5,133.5,342.4,134.4,343.8z"/>
	<path class="st0" d="M136.7,390c0.9,1.4,2.9,1.9,4.3,0.9c1.4-0.9,1.9-2.9,0.9-4.3c-0.9-1.4-2.9-1.9-4.3-0.9
		C136.2,386.6,135.8,388.5,136.7,390z"/>
	<path class="st0" d="M54,393.6c0.9,1.4,2.9,1.9,4.3,0.9c1.4-0.9,1.9-2.9,0.9-4.3c-1-1.4-2.9-1.9-4.3-0.9S53.1,392.1,54,393.6z"/>
	<path class="st0" d="M152.7,409.9c0.9,1.5,2.9,1.9,4.3,0.9c1.5-0.9,1.9-2.9,0.9-4.3c-0.9-1.5-2.9-1.9-4.3-0.9
		C152.2,406.5,151.8,408.4,152.7,409.9z"/>
	<path class="st0" d="M83.2,341.6c0.9,1.5,2.9,1.9,4.3,0.9c1.5-0.9,1.9-2.9,0.9-4.3c-0.9-1.5-2.9-1.9-4.3-0.9
		C82.7,338.2,82.2,340.2,83.2,341.6z"/>
	<path class="st0" d="M40.6,265.7c0.9,1.5,2.9,1.9,4.3,0.9c1.5-0.9,1.9-2.9,0.9-4.3c-0.9-1.5-2.9-1.9-4.3-0.9
		C40.1,262.3,39.6,264.3,40.6,265.7z"/>
	<path class="st0" d="M134.7,323.7c0.9,1.5,2.9,1.9,4.3,0.9c1.5-0.9,1.9-2.9,0.9-4.3c-0.9-1.5-2.9-1.9-4.3-0.9
		C134.2,320.3,133.8,322.3,134.7,323.7z"/>
	<path class="st0" d="M71.1,367.9c0.9,1.5,2.9,1.9,4.4,0.9c1.5-0.9,1.9-2.9,0.9-4.4c-0.9-1.5-2.9-1.9-4.4-0.9
		C70.6,364.5,70.2,366.4,71.1,367.9z"/>
	<path class="st0" d="M197,316.8c0.9,1.5,2.9,1.9,4.4,0.9c1.5-0.9,1.9-2.9,0.9-4.4c-0.9-1.5-2.9-1.9-4.4-0.9
		C196.5,313.3,196,315.3,197,316.8z"/>
	<path class="st0" d="M100.9,282.3c0.9,1.5,2.9,1.9,4.4,0.9c1.5-0.9,1.9-2.9,0.9-4.4c-0.9-1.5-2.9-1.9-4.4-0.9
		C100.4,278.9,100,280.8,100.9,282.3z"/>
	<path class="st0" d="M160.4,332.8c0.9,1.5,2.9,1.9,4.4,0.9c1.5-0.9,1.9-2.9,0.9-4.4c-0.9-1.5-2.9-1.9-4.4-0.9
		C159.9,329.4,159.5,331.3,160.4,332.8z"/>
	<path class="st0" d="M12.1,389.1c0.9,1.5,2.9,1.9,4.4,1s1.9-2.9,1-4.4s-2.9-1.9-4.4-1C11.5,385.7,11.1,387.7,12.1,389.1z"/>
	<path class="st0" d="M128.4,413.6c-0.6,0.4-1.1,1-1.3,1.7h6c-0.1-0.2-0.2-0.5-0.3-0.7C131.8,413.1,129.9,412.7,128.4,413.6z"/>
	<path class="st0" d="M64.9,411.8c0.9,1.5,2.9,1.9,4.4,1s1.9-2.9,1-4.4s-2.9-1.9-4.4-1C64.4,408.4,64,410.4,64.9,411.8z"/>
	<path class="st0" d="M180.5,290.2c1,1.5,2.9,1.9,4.4,1c1.5-1,1.9-2.9,1-4.4c-1-1.5-2.9-1.9-4.4-1
		C180,286.7,179.5,288.7,180.5,290.2z"/>
	<path class="st0" d="M188.1,294.4c1,1.5,2.9,1.9,4.4,1c1.5-1,1.9-2.9,1-4.4c-1-1.5-2.9-1.9-4.4-1
		C187.6,291,187.2,292.9,188.1,294.4z"/>
	<path class="st0" d="M6,300.2c1,1.5,2.9,1.9,4.4,1c1.5-1,1.9-2.9,1-4.4c-1-1.5-2.9-1.9-4.4-1C5.5,296.8,5,298.8,6,300.2z"/>
	<path class="st0" d="M221.9,342.8c1,1.5,2.9,1.9,4.4,1c1.5-1,1.9-2.9,1-4.4c-1-1.5-2.9-1.9-4.4-1
		C221.3,339.3,220.9,341.3,221.9,342.8z"/>
	<path class="st0" d="M0.8,351.6c1,1.5,2.9,1.9,4.4,1c1.5-1,1.9-2.9,1-4.4s-2.9-1.9-4.4-1C0.2,348.1-0.2,350.1,0.8,351.6z"/>
	<path class="st0" d="M95.8,279.7c1,1.5,2.9,1.9,4.4,1c1.5-1,1.9-2.9,1-4.4c-1-1.5-2.9-1.9-4.4-1C95.2,276.3,94.8,278.3,95.8,279.7z
		"/>
	<path class="st0" d="M147.6,325.3c1,1.5,2.9,1.9,4.4,1c1.5-1,1.9-2.9,1-4.4c-1-1.5-2.9-1.9-4.4-1
		C147,321.8,146.6,323.8,147.6,325.3z"/>
	<path class="st0" d="M81.2,282.9c1,1.5,2.9,1.9,4.4,1c1.5-1,1.9-2.9,1-4.4c-1-1.5-2.9-1.9-4.4-1S80.3,281.4,81.2,282.9z"/>
	<path class="st0" d="M126.2,370.6c1,1.5,2.9,1.9,4.4,1c1.5-1,1.9-2.9,1-4.4s-2.9-1.9-4.4-1C125.6,367.1,125.2,369.1,126.2,370.6z"
		/>
	<path class="st0" d="M71.9,377.6c1,1.5,3,1.9,4.5,1s1.9-3,1-4.5c-1-1.5-3-1.9-4.5-1C71.4,374.1,70.9,376.1,71.9,377.6z"/>
	<path class="st0" d="M65.4,314.3c1,1.5,3,2,4.5,1s2-3,1-4.5s-3-2-4.5-1C64.8,310.7,64.4,312.8,65.4,314.3z"/>
	<path class="st0" d="M1.7,235.1c1,1.5,3,2,4.5,1s2-3,1-4.5s-3-2-4.5-1S0.8,233.6,1.7,235.1z"/>
	<path class="st0" d="M18,74c1,1.5,3,2,4.5,1s2-3,1-4.5s-3-2-4.5-1C17.5,70.4,17,72.5,18,74z"/>
	<path class="st0" d="M146.8,367.4c1,1.5,3,2,4.5,1s2-3,1-4.5s-3-2-4.5-1C146.2,363.9,145.8,365.9,146.8,367.4z"/>
	<path class="st0" d="M194,346.7c1,1.5,3,2,4.5,1s2-3,1-4.5s-3-2-4.5-1C193.5,343.1,193.1,345.1,194,346.7z"/>
	<path class="st0" d="M161.5,344.2c1,1.5,3,2,4.5,1s2-3,1-4.5s-3-2-4.5-1C161,340.6,160.6,342.7,161.5,344.2z"/>
	<path class="st0" d="M122,407.1c1,1.5,3,2,4.6,1c1.5-1,2-3,1-4.6c-1-1.5-3-2-4.6-1S121,405.6,122,407.1z"/>
	<path class="st0" d="M82.6,370.3c1,1.5,3,2,4.6,1c1.5-1,2-3,1-4.6c-1-1.5-3-2-4.6-1C82.1,366.7,81.6,368.8,82.6,370.3z"/>
	<path class="st0" d="M168.2,253.9c1,1.5,3.1,2,4.6,1s2-3.1,1-4.6s-3.1-2-4.6-1S167.2,252.3,168.2,253.9z"/>
	<path class="st0" d="M102,199.2c1,1.5,3.1,2,4.6,1s2-3.1,1-4.6s-3.1-2-4.6-1C101.4,195.6,101,197.7,102,199.2z"/>
	<path class="st0" d="M47.4,393.3c1,1.6,3.1,2,4.6,1c1.6-1,2-3.1,1-4.6c-1-1.6-3.1-2-4.6-1C46.8,389.7,46.4,391.8,47.4,393.3z"/>
	<path class="st0" d="M86.8,111.4c1,1.6,3.1,2,4.6,1c1.6-1,2-3.1,1-4.6c-1-1.6-3.1-2-4.6-1C86.3,107.7,85.8,109.8,86.8,111.4z"/>
	<path class="st0" d="M82.7,298.1c1,1.6,3.1,2,4.6,1c1.6-1,2-3.1,1-4.6c-1-1.6-3.1-2-4.6-1C82.2,294.4,81.7,296.5,82.7,298.1z"/>
	<path class="st0" d="M42.1,339.1c1,1.6,3.1,2,4.6,1c1.6-1,2-3.1,1-4.6c-1-1.6-3.1-2-4.6-1S41.1,337.5,42.1,339.1z"/>
	<path class="st0" d="M31.9,85.6c1,1.6,3.1,2,4.6,1c1.6-1,2-3.1,1-4.6c-1-1.6-3.1-2-4.6-1C31.3,82,30.9,84.1,31.9,85.6z"/>
	<path class="st0" d="M168,278.3c1,1.6,3.1,2,4.6,1c1.6-1,2-3.1,1-4.6c-1-1.6-3.1-2-4.6-1C167.4,274.7,167,276.8,168,278.3z"/>
	<path class="st0" d="M150.9,415.3L150.9,415.3h3.7C153.5,414.6,152,414.6,150.9,415.3z"/>
	<path class="st0" d="M182.7,406.3c1,1.6,3.1,2,4.7,1s2-3.1,1-4.7c-1-1.6-3.1-2-4.7-1C182.1,402.7,181.7,404.7,182.7,406.3z"/>
	<path class="st0" d="M2.3,321.4c-0.5-0.8-1.4-1.4-2.3-1.5v6.7c0.4-0.1,0.9-0.2,1.3-0.5C2.9,325.1,3.3,323,2.3,321.4z"/>
	<path class="st0" d="M61,413c1,1.6,3.1,2,4.7,1c1.6-1,2-3.1,1-4.7s-3.1-2-4.7-1C60.4,409.4,59.9,411.5,61,413z"/>
	<path class="st0" d="M130.3,388.4c1,1.6,3.1,2,4.7,1s2-3.1,1-4.7s-3.1-2-4.7-1S129.3,386.8,130.3,388.4z"/>
	<path class="st0" d="M77.8,386.5c1,1.6,3.1,2,4.7,1c1.6-1,2-3.1,1-4.7c-1-1.6-3.1-2-4.7-1C77.2,382.9,76.8,385,77.8,386.5z"/>
	<path class="st0" d="M119.4,153.6c1,1.6,3.1,2,4.7,1s2-3.1,1-4.7s-3.1-2-4.7-1S118.3,152,119.4,153.6z"/>
	<path class="st0" d="M4.3,111.3c1,1.6,3.1,2,4.7,1c1.6-1,2-3.1,1-4.7c-1-1.6-3.1-2-4.7-1C3.7,107.6,3.3,109.8,4.3,111.3z"/>
	<path class="st0" d="M37.5,203.8c1,1.6,3.1,2.1,4.7,1c1.6-1,2.1-3.1,1-4.7c-1-1.6-3.1-2.1-4.7-1C36.9,200,36.5,202.2,37.5,203.8z"
		/>
	<path class="st0" d="M160,383.8c1,1.6,3.1,2.1,4.7,1c1.6-1,2.1-3.1,1-4.7c-1-1.6-3.1-2.1-4.7-1C159.4,380.1,159,382.2,160,383.8z"
		/>
	<path class="st0" d="M200,406.6c1,1.6,3.2,2.1,4.7,1c1.6-1,2.1-3.2,1-4.7c-1-1.6-3.2-2.1-4.7-1C199.4,402.9,198.9,405,200,406.6z"
		/>
	<path class="st0" d="M125.5,138.7c1,1.6,3.2,2.1,4.8,1c1.6-1,2.1-3.2,1-4.8c-1-1.6-3.2-2.1-4.8-1
		C124.9,135,124.5,137.1,125.5,138.7z"/>
	<path class="st0" d="M114.8,310.3c1,1.6,3.2,2.1,4.8,1c1.6-1,2.1-3.2,1-4.8c-1-1.6-3.2-2.1-4.8-1
		C114.3,306.5,113.8,308.6,114.8,310.3z"/>
	<path class="st0" d="M208.1,355.7c1,1.6,3.2,2.1,4.8,1c1.6-1,2.1-3.2,1-4.8c-1-1.6-3.2-2.1-4.8-1
		C207.6,352,207.1,354.1,208.1,355.7z"/>
	<path class="st0" d="M6.4,111.9c1,1.6,3.2,2.1,4.8,1c1.6-1,2.1-3.2,1-4.8c-1-1.6-3.2-2.1-4.8-1C5.9,108.2,5.4,110.3,6.4,111.9z"/>
	<path class="st0" d="M240.2,405c1,1.6,3.2,2.1,4.8,1c1.6-1,2.1-3.2,1-4.8c-1-1.6-3.2-2.1-4.8-1C239.6,401.3,239.2,403.4,240.2,405z
		"/>
	<path class="st0" d="M129.6,358.1c1,1.6,3.2,2.1,4.8,1c1.6-1,2.1-3.2,1-4.8c-1-1.6-3.2-2.1-4.8-1
		C129,354.3,128.6,356.5,129.6,358.1z"/>
	<path class="st0" d="M16.4,104.5c1,1.6,3.2,2.1,4.8,1.1s2.1-3.2,1.1-4.8s-3.2-2.1-4.8-1.1C15.8,100.7,15.4,102.8,16.4,104.5z"/>
	<path class="st0" d="M71.1,381.3c1,1.6,3.2,2.1,4.9,1.1s2.1-3.2,1.1-4.9c-1-1.6-3.2-2.1-4.9-1.1S70.1,379.7,71.1,381.3z"/>
	<path class="st0" d="M90.4,79.4c1,1.6,3.2,2.1,4.9,1.1c1.6-1,2.1-3.2,1.1-4.9c-1-1.6-3.2-2.1-4.9-1.1
		C89.9,75.6,89.4,77.7,90.4,79.4z"/>
	<path class="st0" d="M107.7,358.6c1.1,1.6,3.2,2.1,4.9,1.1s2.1-3.2,1.1-4.9c-1.1-1.6-3.2-2.1-4.9-1.1
		C107.1,354.8,106.7,357,107.7,358.6z"/>
	<path class="st0" d="M78.1,125.1c1.1,1.6,3.2,2.1,4.9,1.1c1.6-1.1,2.1-3.2,1.1-4.9c-1.1-1.6-3.2-2.1-4.9-1.1
		C77.5,121.2,77.1,123.4,78.1,125.1z"/>
	<path class="st0" d="M135.6,118.7c1.1,1.6,3.2,2.1,4.9,1.1s2.1-3.2,1.1-4.9c-1.1-1.6-3.2-2.1-4.9-1.1
		C135,114.9,134.6,117.1,135.6,118.7z"/>
	<path class="st0" d="M56,305.2c1.1,1.6,3.2,2.1,4.9,1.1c1.6-1.1,2.1-3.2,1.1-4.9c-1.1-1.6-3.2-2.1-4.9-1.1
		C55.4,301.4,54.9,303.6,56,305.2z"/>
	<path class="st0" d="M72.6,57.2c1.1,1.6,3.2,2.1,4.9,1.1c1.6-1.1,2.1-3.2,1.1-4.9c-1.1-1.6-3.2-2.1-4.9-1.1
		C72.1,53.4,71.6,55.6,72.6,57.2z"/>
	<path class="st0" d="M76.4,300c1.1,1.6,3.3,2.1,4.9,1.1c1.6-1.1,2.1-3.3,1.1-4.9c-1.1-1.6-3.3-2.1-4.9-1.1
		C75.8,296.1,75.3,298.3,76.4,300z"/>
	<ellipse transform="matrix(0.8816 -0.472 0.472 0.8816 -84.0028 59.6952)" class="st0" cx="77" cy="197.3" rx="3.6" ry="3.6"/>
	<path class="st0" d="M4.7,398.6c1.1,1.7,3.3,2.1,4.9,1.1c1.7-1.1,2.1-3.3,1.1-4.9c-1.1-1.7-3.3-2.1-4.9-1.1
		C4.1,394.8,3.6,397,4.7,398.6z"/>
	<path class="st0" d="M19.5,333.2c1.1,1.7,3.3,2.1,4.9,1.1c1.7-1.1,2.1-3.3,1.1-4.9c-1.1-1.7-3.3-2.1-4.9-1.1
		C18.9,329.4,18.4,331.6,19.5,333.2z"/>
	<path class="st0" d="M114.7,360c1.1,1.7,3.3,2.1,4.9,1.1c1.7-1.1,2.1-3.3,1.1-4.9c-1.1-1.7-3.3-2.1-4.9-1.1
		C114.1,356.1,113.6,358.4,114.7,360z"/>
	<path class="st0" d="M93.3,129.6c1.1,1.7,3.3,2.1,4.9,1.1c1.7-1.1,2.1-3.3,1.1-4.9c-1.1-1.7-3.3-2.1-4.9-1.1
		C92.7,125.7,92.2,127.9,93.3,129.6z"/>
	<ellipse class="st0" cx="34.4" cy="13.7" rx="3.6" ry="3.6"/>
	<path class="st0" d="M72.2,364.3c1.1,1.7,3.3,2.2,5,1.1s2.2-3.3,1.1-5c-1.1-1.7-3.3-2.2-5-1.1C71.6,360.4,71.1,362.7,72.2,364.3z"
		/>
	<path class="st0" d="M135.9,410.2c1.1,1.7,3.3,2.2,5,1.1c1.7-1.1,2.2-3.3,1.1-5c-1.1-1.7-3.3-2.2-5-1.1
		C135.3,406.3,134.8,408.6,135.9,410.2z"/>
	<path class="st0" d="M54.4,188.3c1.1,1.7,3.3,2.2,5,1.1c1.7-1.1,2.2-3.3,1.1-5c-1.1-1.7-3.3-2.2-5-1.1S53.3,186.6,54.4,188.3z"/>
	
		<ellipse transform="matrix(2.570374e-02 -0.9997 0.9997 2.570374e-02 -275.99 509.1327)" class="st0" cx="123.2" cy="396.2" rx="3.7" ry="3.7"/>
	<path class="st0" d="M153.7,250.8c1.1,1.7,3.4,2.2,5.2,1.1c1.7-1.1,2.2-3.4,1.1-5.2c-1.1-1.7-3.4-2.2-5.2-1.1
		C153.1,246.8,152.6,249.1,153.7,250.8z"/>
	<path class="st0" d="M186.9,288.9c1.1,1.7,3.4,2.2,5.2,1.1c1.7-1.1,2.2-3.4,1.1-5.2c-1.1-1.8-3.4-2.2-5.2-1.1
		S185.7,287.2,186.9,288.9z"/>
	<path class="st1" d="M71.8,310.4c-0.2,0.5,0,1,0.4,1.3l41.8,20.5c0.5,0.2,1.1,0,1.3-0.5c0.2-0.5,0-1-0.4-1.3l-41.8-20.5
		C72.6,309.7,72.1,309.9,71.8,310.4z"/>
	<path class="st2" d="M101.7,247l11.8,84.3c0.1,0.5,0.6,0.9,1.1,0.8s0.9-0.6,0.8-1.1l-11.8-84.3c-0.1-0.5-0.6-0.9-1.1-0.8
		C102,246,101.7,246.5,101.7,247z"/>
	<path class="st3" d="M101.8,246.5l-30,63.9c-0.2,0.5,0.1,1.1,0.6,1.3s1,0,1.2-0.4l30-63.9c0.2-0.5,0-1.1-0.6-1.3
		C102.6,245.8,102,246,101.8,246.5z"/>
	<path class="st4" d="M33.5,322.1c-0.5,0.2-0.8,0.7-0.6,1.2s0.7,0.8,1.2,0.6L73,311.7c0.5-0.2,0.8-0.7,0.6-1.2s-0.7-0.8-1.2-0.6
		L33.5,322.1z"/>
	<path class="st5" d="M33.4,322.1c-0.5,0.2-0.7,0.8-0.5,1.3c0.2,0.4,0.7,0.7,1.1,0.6l18.2-6.1c0.5-0.2,0.8-0.7,0.6-1.3
		c-0.2-0.5-0.7-0.8-1.3-0.6L33.4,322.1z"/>
	<path class="st6" d="M171.8,365.7c0.1,0.5,0.5,0.9,1,0.9l52.9-2.2c0.5,0,1-0.5,1-1s-0.5-1-1-1l-52.9,2.2
		C172.1,364.7,171.7,365.2,171.8,365.7z"/>
	<path class="st0" d="M108,406.6c-0.4,0.3-0.5,0.9-0.2,1.4l5.2,7.3h2.4l-6-8.5C109.1,406.4,108.4,406.3,108,406.6z"/>
	<path class="st0" d="M101.4,390c-0.2,0.5-0.1,1,0.3,1.3l7.6,4.5c0.5,0.3,1.1,0.1,1.4-0.4s0.1-1.1-0.4-1.4l-7.6-4.4
		C102.2,389.3,101.6,389.5,101.4,390z"/>
	<path class="st0" d="M108.8,394.7l-1.2,12.6c0,0.5,0.4,1,0.9,1s1-0.3,1-0.9l1.2-12.6c0-0.5-0.4-1-0.9-1
		C109.3,393.9,108.9,394.2,108.8,394.7z"/>
	<path class="st0" d="M91.6,410.5c-0.4,0.4-0.4,1,0,1.4s1,0.4,1.4,0l17.5-16.4c0.4-0.4,0.4-1,0-1.4s-1-0.4-1.4,0L91.6,410.5z"/>
	<path class="st0" d="M26.1,322.7c-0.5,0.2-0.8,0.7-0.6,1.2s0.7,0.8,1.1,0.7l25.5-6.7c0.5-0.2,0.8-0.7,0.6-1.2s-0.7-0.8-1.2-0.7
		L26.1,322.7z"/>
	<path class="st0" d="M18,374.6l3.7,6.5c0.3,0.5,0.9,0.6,1.4,0.4c0.5-0.3,0.6-0.9,0.4-1.4l-3.7-6.5c-0.3-0.5-0.9-0.6-1.4-0.4
		C18,373.5,17.8,374.1,18,374.6z"/>
	<path class="st0" d="M5.7,369.5c-0.3,0.4-0.1,1,0.3,1.3l16.1,10.6c0.5,0.3,1.1,0.2,1.4-0.3c0.3-0.5,0.2-1.1-0.3-1.4L7.1,369.1
		C6.5,368.8,5.9,369,5.7,369.5z"/>
	<path class="st0" d="M5.5,369.6c-0.2,0.5,0.1,1.1,0.6,1.3l12.4,4.1c0.5,0.2,1.1-0.1,1.3-0.6s-0.1-1.1-0.6-1.3L6.8,369
		C6.3,368.8,5.7,369.1,5.5,369.6z"/>
	<path class="st0" d="M30.5,258.6c0.4-0.4,0.4-1,0-1.4L0,227v2.8l29.1,28.8C29.5,259,30.2,259,30.5,258.6z"/>
	<path class="st0" d="M28.9,257.5c-0.2,0.5,0,1.1,0.5,1.3l36,16.7c0.5,0.2,1.1,0,1.3-0.5s0-1.1-0.5-1.3l-36-16.7
		C29.7,256.8,29.2,257,28.9,257.5z"/>
	<path class="st7" d="M93.5,245.6c0,0.5,0.4,1,0.9,1l48.9,4.4c0.5,0,1-0.4,1.1-0.9c0-0.5-0.4-1-0.9-1l-48.8-4.3
		C94,244.7,93.6,245.1,93.5,245.6z"/>
	<path class="st0" d="M5.9,369.1c-0.5,0.3-0.6,0.9-0.3,1.4s0.9,0.6,1.4,0.3l18.4-12.2c0.5-0.3,0.6-0.9,0.3-1.4s-0.9-0.6-1.4-0.3
		L5.9,369.1z"/>
	<path class="st0" d="M75.5,338.1c-0.2,0.5,0,1,0.5,1.2l16,6.9c0.5,0.2,1.1,0,1.3-0.5s0-1.1-0.5-1.3l-16-6.8
		C76.3,337.3,75.7,337.6,75.5,338.1z"/>
	<path class="st0" d="M65.1,273.9c-0.4,0.4-0.3,1,0.1,1.4c0.4,0.3,1,0.3,1.3,0l28.7-28.9c0.4-0.4,0.3-1-0.1-1.4
		c-0.4-0.3-1-0.3-1.3,0L65.1,273.9z"/>
	<path class="st0" d="M72.2,380.3l20.2,21.3c0.4,0.4,1,0.4,1.4,0s0.4-1,0-1.4l-20.2-21.3c-0.4-0.4-1-0.4-1.4,0
		S71.8,379.9,72.2,380.3z"/>
	<path class="st0" d="M93.6,400.1c-0.5-0.3-1.1-0.1-1.4,0.3l-9.3,14.9h2.3l8.6-13.9C94.2,401,94.1,400.4,93.6,400.1z"/>
	<path class="st0" d="M91.5,344.8l-19.4,34.4c-0.3,0.5-0.1,1.1,0.4,1.3c0.5,0.3,1.1,0.1,1.3-0.4l19.4-34.4c0.3-0.5,0.1-1.1-0.4-1.4
		C92.3,344.2,91.7,344.3,91.5,344.8z"/>
	<path class="st0" d="M171.4,407.4c-0.5,0.3-0.6,0.9-0.3,1.4s0.9,0.6,1.4,0.3l6.8-4.1c0.5-0.3,0.6-0.9,0.3-1.4
		c-0.3-0.5-0.9-0.6-1.4-0.3L171.4,407.4z"/>
	<path class="st8" d="M178.9,403.2c-0.5-0.1-1,0.3-1.1,0.9l-1.5,11.3h2l1.4-11C179.8,403.8,179.5,403.3,178.9,403.2z"/>
	<path class="st0" d="M67.7,370.8l6.4,28.1c0.1,0.5,0.7,0.9,1.2,0.7c0.5-0.1,0.9-0.7,0.7-1.2l-6.4-28.1c-0.1-0.5-0.7-0.9-1.2-0.7
		C67.9,369.8,67.5,370.3,67.7,370.8z"/>
	<path class="st0" d="M29.9,310.7c-0.2-0.5-0.7-0.8-1.2-0.6L0,319.2v2.1l29.3-9.3C29.8,311.8,30.1,311.3,29.9,310.7z"/>
	<path class="st0" d="M74.9,397.8c-0.5,0.1-0.9,0.5-0.9,1l1,16.6h2l-1-16.7C76,398.1,75.5,397.7,74.9,397.8z"/>
	<path class="st0" d="M74.7,397.8c-0.5,0.2-0.7,0.8-0.5,1.3l6.8,16.3h2.1l-7.1-17C75.8,397.8,75.2,397.6,74.7,397.8z"/>
	<path class="st0" d="M18.4,308.8c-0.1,0.5,0.2,1.1,0.8,1.2l9.7,2c0.5,0.1,1-0.3,1.1-0.8s-0.2-1-0.7-1.1l-9.7-2
		C19,308,18.5,308.3,18.4,308.8z"/>
	<path class="st0" d="M24,235.2c-0.4,0.3-0.5,1-0.2,1.4s1,0.5,1.4,0.2l15.2-11.4c0.4-0.3,0.5-1,0.2-1.4c-0.3-0.4-1-0.5-1.4-0.2
		L24,235.2z"/>
	<path class="st0" d="M18.5,308.5L4.6,331.9c-0.3,0.5-0.1,1.1,0.4,1.4c0.5,0.3,1.1,0.1,1.3-0.3l13.9-23.4c0.3-0.5,0.1-1.1-0.4-1.4
		C19.4,307.9,18.8,308.1,18.5,308.5z"/>
	<path class="st0" d="M18.6,309.7l16.9,18.4c0.4,0.4,1,0.4,1.4,0.1c0.4-0.4,0.4-1,0.1-1.4l-16.9-18.4c-0.4-0.4-1-0.4-1.4,0
		C18.3,308.7,18.3,309.3,18.6,309.7z"/>
	<path class="st0" d="M5.3,331.5c-0.5,0.1-0.9,0.6-0.8,1.2c0.1,0.5,0.6,0.8,1.1,0.8l30.8-5c0.5-0.1,0.9-0.6,0.8-1.1
		c-0.1-0.5-0.6-0.9-1.1-0.8L5.3,331.5z"/>
	<path class="st0" d="M127.7,404.1c-0.5-0.2-1.1,0.1-1.3,0.6l-3.9,10.7h2.1l3.7-10C128.5,404.8,128.2,404.3,127.7,404.1z"/>
	<path class="st0" d="M3.6,381.5l-0.1,26.3c0,0.5,0.4,1,1,1c0.5,0,1-0.4,1-1l0.1-26.3c0-0.5-0.4-1-1-1S3.6,380.9,3.6,381.5z"/>
	<path class="st0" d="M118.5,398.1l8.2,7.6c0.4,0.4,1,0.3,1.4-0.1c0.3-0.4,0.3-1,0-1.4l-8.2-7.6c-0.4-0.4-1-0.3-1.4,0.1
		C118,397.1,118.1,397.7,118.5,398.1z"/>
	<path class="st0" d="M5.1,407c-0.4-0.3-1-0.3-1.4,0.1L0,411.2v3l5.2-5.7C5.5,408,5.5,407.4,5.1,407z"/>
	<path class="st9" d="M171.1,381.8c-0.5,0.2-0.7,0.8-0.6,1.3l12.4,32.3h2.1l-12.7-33C172.2,381.8,171.6,381.6,171.1,381.8z"/>
	<path class="st0" d="M3.3,165.4L17.9,187c0.3,0.4,0.9,0.6,1.4,0.2c0.4-0.3,0.5-0.9,0.3-1.3L5,164.3c-0.3-0.4-0.9-0.6-1.4-0.2
		C3.2,164.4,3,165,3.3,165.4z"/>
	<path class="st10" d="M30.9,286.5l-2.8,14.2c-0.1,0.5,0.3,1,0.9,1.1c0.5,0.1,1-0.2,1.1-0.7l2.8-14.2c0.1-0.5-0.2-1.1-0.8-1.2
		C31.5,285.6,31,286,30.9,286.5z"/>
	<path class="st11" d="M18,187.1l34.9,39.3c0.4,0.4,1,0.4,1.4,0.1c0.4-0.4,0.4-1,0.1-1.4l-34.9-39.3c-0.4-0.4-1-0.4-1.4-0.1
		C17.6,186.1,17.6,186.7,18,187.1z"/>
	<path class="st0" d="M171.1,381.8c-0.5,0.3-0.6,0.9-0.4,1.4c0.2,0.4,0.8,0.6,1.2,0.4L198,371c0.5-0.2,0.7-0.8,0.5-1.3
		s-0.8-0.7-1.3-0.5L171.1,381.8z"/>
	<path class="st0" d="M128.7,412.8c-0.1,0.5,0.2,1,0.8,1.1l6.8,1.4h9.8l-16.3-3.4C129.3,411.9,128.8,412.2,128.7,412.8z"/>
	<path class="st0" d="M106.6,333c-0.1,0.5,0.1,1,0.6,1.2l29.5,9c0.5,0.1,1.1-0.2,1.2-0.7s-0.1-1-0.6-1.2l-29.5-9
		C107.3,332.1,106.7,332.4,106.6,333z"/>
	<path class="st12" d="M29.9,300.4c-0.3-0.5-0.9-0.6-1.4-0.3L0,317.6v2.3l29.5-18.2C30,301.4,30.1,300.8,29.9,300.4z"/>
	<path class="st13" d="M52.6,225.5l-10.4,38.3c-0.1,0.5,0.2,1.1,0.7,1.2s1.1-0.2,1.2-0.7L54.5,226c0.1-0.5-0.2-1.1-0.8-1.2
		C53.3,224.7,52.8,225,52.6,225.5z"/>
	<path class="st0" d="M138.4,387.9l-9.7,24.6c-0.2,0.5,0,1.1,0.6,1.3c0.5,0.2,1.1,0,1.3-0.6l9.7-24.6c0.2-0.5-0.1-1.1-0.6-1.3
		C139.2,387.2,138.6,387.5,138.4,387.9z"/>
	<path class="st0" d="M85.5,339c-0.5,0.2-0.8,0.8-0.5,1.3c0.2,0.4,0.7,0.7,1.1,0.6l21.7-6.8c0.5-0.2,0.8-0.7,0.6-1.3
		c-0.2-0.5-0.7-0.8-1.2-0.6L85.5,339z"/>
	<path class="st0" d="M154.9,407.3c-0.5,0.3-0.7,0.9-0.4,1.4l3.5,6.7h2.3l-4-7.6C156,407.2,155.4,407,154.9,407.3z"/>
	<path class="st0" d="M42.3,263.7l-14.2,36.9c-0.2,0.5,0.1,1.1,0.6,1.3c0.5,0.2,1.1-0.1,1.3-0.6l14.2-36.8c0.2-0.5-0.1-1.1-0.6-1.3
		C43,262.9,42.5,263.2,42.3,263.7z"/>
	<path class="st0" d="M136.4,322l-0.3,20.1c0,0.6,0.4,1,1,1s1-0.4,1-1l0.4-20.1c0-0.6-0.5-1-1-1C136.8,321.1,136.4,321.5,136.4,322z
		"/>
	<path class="st0" d="M138.6,388.9l16,19.9c0.3,0.4,1,0.5,1.4,0.2c0.4-0.3,0.5-1,0.2-1.4l-16-19.9c-0.3-0.4-1-0.5-1.4-0.1
		C138.3,387.9,138.2,388.5,138.6,388.9z"/>
	<path class="st0" d="M72.9,365.6l-17.1,25.7c-0.3,0.5-0.2,1.1,0.3,1.4c0.5,0.3,1.1,0.2,1.4-0.3l17.2-25.7c0.3-0.5,0.2-1.1-0.3-1.4
		C73.9,365,73.2,365.1,72.9,365.6z"/>
	<path class="st0" d="M84.9,339.5l-12.1,26.2c-0.2,0.5,0.1,1.1,0.6,1.3c0.5,0.2,1,0,1.2-0.5l12-26.2c0.2-0.5,0-1.1-0.6-1.3
		C85.7,338.8,85.1,339,84.9,339.5z"/>
	<path class="st0" d="M136.4,321.7c-0.2,0.5,0.1,1.1,0.6,1.3l25.7,9.1c0.5,0.2,1.1-0.1,1.3-0.7c0.2-0.5-0.1-1.1-0.6-1.3l-25.7-9.1
		C137.2,320.9,136.6,321.2,136.4,321.7z"/>
	<path class="st0" d="M182.3,289l16.5,26.6c0.3,0.5,0.9,0.6,1.4,0.3c0.5-0.3,0.6-0.9,0.3-1.4L184,287.9c-0.3-0.5-0.9-0.6-1.4-0.3
		C182.1,287.9,182,288.5,182.3,289z"/>
	<path class="st0" d="M189.9,293.1l8.8,22.4c0.2,0.5,0.8,0.8,1.3,0.5c0.5-0.2,0.7-0.8,0.6-1.3l-8.8-22.4c-0.2-0.5-0.8-0.8-1.3-0.6
		C189.9,291.9,189.7,292.5,189.9,293.1z"/>
	<path class="st0" d="M97.6,277.6c-0.2,0.5,0,1,0.4,1.3l5.1,2.6c0.5,0.2,1.1,0,1.4-0.5c0.2-0.5,0-1.1-0.4-1.3l-5.1-2.6
		C98.4,276.9,97.8,277.1,97.6,277.6z"/>
	<path class="st0" d="M2.5,350.1l11.3,37.6c0.2,0.5,0.7,0.8,1.3,0.7c0.5-0.2,0.8-0.7,0.7-1.2L4.5,349.6c-0.2-0.5-0.7-0.9-1.3-0.7
		C2.6,349,2.3,349.6,2.5,350.1z"/>
	<path class="st0" d="M149.4,323.1c-0.3,0.5-0.1,1.1,0.4,1.4l12.8,7.5c0.5,0.3,1.1,0.1,1.4-0.4s0.1-1.1-0.4-1.4l-12.8-7.5
		C150.3,322.4,149.7,322.6,149.4,323.1z"/>
	<path class="st0" d="M182.3,288c-0.3,0.5-0.1,1.1,0.4,1.4l7.6,4.2c0.5,0.3,1.1,0.1,1.4-0.4s0.1-1.1-0.4-1.4l-7.7-4.2
		C183.2,287.3,182.5,287.5,182.3,288z"/>
	<path class="st0" d="M82.9,281.2c0,0.5,0.5,1,1,1l19.6-0.6c0.6,0,1-0.5,1-1.1c0-0.5-0.5-0.9-1-1l-19.6,0.6
		C83.3,280.2,82.9,280.7,82.9,281.2z"/>
	<path class="st14" d="M128.8,367.8c-0.5,0-1,0.5-1,1l1.2,46.5h2l-1.2-46.5C129.9,368.2,129.4,367.8,128.8,367.8z"/>
	<path class="st8" d="M68.3,409.4c-0.4-0.4-1-0.4-1.4-0.1l-6.7,6h3.1l5-4.4C68.7,410.5,68.7,409.8,68.3,409.4z"/>
	<path class="st15" d="M73.6,375.6l-7,34.3c-0.1,0.6,0.3,1.1,0.9,1.2c0.5,0.1,1-0.2,1.1-0.8l7-34.3c0.1-0.6-0.2-1.1-0.8-1.2
		C74.3,374.7,73.7,375.1,73.6,375.6z"/>
	<path class="st0" d="M83.7,280.2c-0.6,0.1-0.9,0.7-0.8,1.2c0.1,0.6,0.7,0.9,1.2,0.8l14.5-3.2c0.6-0.1,0.9-0.7,0.8-1.2
		c-0.1-0.5-0.7-0.9-1.2-0.8L83.7,280.2z"/>
	<path class="st0" d="M149.3,323.1l-21.4,45.2c-0.2,0.5,0.1,1.1,0.6,1.3c0.5,0.2,1,0,1.3-0.5l21.4-45.2c0.2-0.5,0-1.1-0.5-1.4
		C150.2,322.4,149.6,322.6,149.3,323.1z"/>
	<path class="st0" d="M9.5,298c-0.3-0.5-0.9-0.6-1.4-0.3L0,302.8v2.5l9.2-5.9C9.7,299.1,9.9,298.4,9.5,298z"/>
	<path class="st0" d="M3.8,350.8c0.5-0.2,0.8-0.8,0.6-1.3L0,336.4v6.5l2.4,7.3C2.6,350.7,3.2,351,3.8,350.8z"/>
	<path class="st16" d="M74.5,374.8c-0.6,0.1-1,0.6-0.9,1.2s0.6,1,1.2,0.9l54.2-7c0.6-0.1,1-0.6,0.9-1.2c-0.1-0.6-0.6-1-1.2-0.9
		L74.5,374.8z"/>
	<path class="st17" d="M83,280.7L67.2,312c-0.3,0.5-0.1,1.2,0.5,1.4c0.5,0.3,1.2,0.1,1.4-0.5l15.8-31.3c0.3-0.5,0.1-1.1-0.5-1.4
		C83.9,280,83.3,280.2,83,280.7z"/>
	<path class="st18" d="M5,232.5c-0.5-0.3-1.1-0.1-1.4,0.3L0,238.5v4l5.4-8.5C5.7,233.4,5.5,232.7,5,232.5z"/>
	<path class="st19" d="M21.7,71.9c-0.2-0.5-0.8-0.8-1.3-0.7L0,77.8V80l21.1-6.8C21.6,73,21.9,72.4,21.7,71.9z"/>
	<path class="st0" d="M149.1,364.7c-0.5,0.3-0.7,0.9-0.4,1.4c0.2,0.5,0.8,0.7,1.3,0.5l47.3-20.7c0.5-0.2,0.8-0.9,0.5-1.4
		c-0.2-0.5-0.9-0.8-1.4-0.5L149.1,364.7z"/>
	<path class="st0" d="M163.4,341.9l-14.8,23.2c-0.3,0.5-0.2,1.1,0.3,1.5c0.5,0.3,1.1,0.2,1.5-0.3l14.8-23.2c0.3-0.5,0.1-1.2-0.4-1.4
		C164.3,341.3,163.7,341.4,163.4,341.9z"/>
	<path class="st0" d="M163.2,342.4c0,0.6,0.4,1.1,1,1.1l32.5,2.5c0.6,0,1.1-0.5,1.1-1s-0.4-1-0.9-1.1l-32.5-2.5
		C163.8,341.3,163.3,341.8,163.2,342.4z"/>
	<path class="st20" d="M5.6,233.3c0-0.6-0.5-1.1-1.1-1.1H0v2.1h4.5C5.1,234.4,5.6,233.9,5.6,233.3z"/>
	<path class="st21" d="M67.4,311.7c-0.4,0.4-0.5,1.1-0.1,1.5c0.4,0.4,1.1,0.5,1.5,0.1L86.2,297c0.4-0.4,0.4-1.1-0.1-1.5
		c-0.4-0.4-1-0.4-1.4,0L67.4,311.7z"/>
	<path class="st0" d="M124.2,404.4c-0.5,0.3-0.7,1-0.3,1.5l5.9,9.4h2.5l-6.6-10.6C125.4,404.2,124.7,404.1,124.2,404.4z"/>
	<path class="st0" d="M125.6,404.7c-0.3-0.4-0.9-0.6-1.4-0.3L106,415.3h4.2l15.1-9.1C125.8,405.9,125.9,405.2,125.6,404.7z"/>
	<path class="st22" d="M104,196.7c-0.4,0.5-0.3,1.1,0.1,1.5l66.2,54.7c0.5,0.4,1.1,0.3,1.5-0.1c0.4-0.5,0.3-1.1-0.1-1.5l-66.2-54.7
		C105,196.2,104.3,196.3,104,196.7z"/>
	<path class="st0" d="M49.6,390.6c-0.5,0.3-0.6,1-0.3,1.5s1,0.6,1.5,0.3l35.2-23c0.5-0.3,0.6-1,0.3-1.5s-0.9-0.6-1.4-0.3L49.6,390.6
		z"/>
	<path class="st0" d="M169.9,252.1l-0.2,24.4c0,0.6,0.5,1.1,1.1,1.1s1.1-0.5,1.1-1.1l0.2-24.4c0-0.6-0.5-1.1-1.1-1.1
		S169.9,251.5,169.9,252.1z"/>
	<path class="st23" d="M33.8,83.4c-0.2,0.5,0,1.1,0.5,1.4l54.9,25.8c0.5,0.3,1.2,0,1.4-0.5s0-1.2-0.5-1.4L35.2,82.9
		C34.6,82.6,34,82.8,33.8,83.4z"/>
	<path class="st24" d="M44.2,336.5c-0.4,0.4-0.4,1.1,0.1,1.5c0.4,0.4,1.1,0.4,1.5,0l40.6-41c0.4-0.4,0.4-1.1,0-1.5
		c-0.4-0.4-1.1-0.4-1.5,0L44.2,336.5z"/>
	<path class="st0" d="M184.9,403.6c-0.5,0.3-0.7,1-0.3,1.5l6.5,10.2h2.6l-7.2-11.4C186.1,403.4,185.4,403.3,184.9,403.6z"/>
	<path class="st0" d="M49.3,392.1l13.6,19.7c0.3,0.5,1,0.6,1.5,0.3c0.5-0.3,0.6-1,0.3-1.5l-13.6-19.7c-0.3-0.5-1-0.6-1.5-0.3
		C49.1,391,48.9,391.7,49.3,392.1z"/>
	<path class="st0" d="M46,337.6c0.2-0.6-0.1-1.2-0.7-1.4L0,322.2v2.4l44.6,13.8C45.2,338.5,45.8,338.2,46,337.6z"/>
	<path class="st0" d="M186.5,404.1c-0.2-0.5-0.8-0.8-1.4-0.6l-28.5,11.8h5.7l23.6-9.8C186.5,405.3,186.7,404.6,186.5,404.1z"/>
	<path class="st0" d="M64.7,410.8c-0.2-0.5-0.8-0.8-1.3-0.6l-14,5.1h6.3l8.4-3.1C64.7,412,65,411.3,64.7,410.8z"/>
	<path class="st25" d="M121.2,151.4L103.8,197c-0.2,0.6,0.1,1.2,0.6,1.4c0.6,0.2,1.2-0.1,1.4-0.6l17.4-45.6c0.2-0.6-0.1-1.2-0.7-1.4
		C122,150.6,121.4,150.9,121.2,151.4z"/>
	<path class="st0" d="M0.5,322.8L0,321.7v2.4C0.5,323.9,0.7,323.3,0.5,322.8z"/>
	<path class="st0" d="M79.7,384.1l-16.8,26.5c-0.3,0.5-0.2,1.2,0.3,1.5c0.5,0.3,1.2,0.2,1.5-0.3l16.8-26.5c0.3-0.5,0.1-1.2-0.4-1.5
		C80.7,383.5,80,383.7,79.7,384.1z"/>
	<path class="st0" d="M7.7,110.4c0.5-0.3,0.7-1,0.4-1.5L0,95.4v4.3l6.2,10.4C6.5,110.6,7.2,110.7,7.7,110.4z"/>
	<path class="st0" d="M127.4,136.4l-6.2,15c-0.2,0.6,0,1.2,0.6,1.4c0.6,0.2,1.2,0,1.4-0.6l6.2-15c0.2-0.6-0.1-1.2-0.6-1.4
		C128.2,135.6,127.6,135.9,127.4,136.4z"/>
	<path class="st26" d="M41.4,202.2c0.2-0.6-0.1-1.2-0.7-1.4L0,188.1v2.3l40,12.5C40.6,203.1,41.3,202.8,41.4,202.2z"/>
	<path class="st0" d="M161.9,381.4c-0.3,0.5-0.1,1.2,0.4,1.5l40,22.8c0.5,0.3,1.2,0.1,1.5-0.4s0.1-1.2-0.4-1.5l-40-22.8
		C162.9,380.7,162.2,380.9,161.9,381.4z"/>
	<path class="st0" d="M6.1,109.3c-0.1,0.6,0.2,1.1,0.8,1.3l2.2,0.6c0.6,0.2,1.2-0.2,1.4-0.8s-0.2-1.2-0.8-1.4l-2.2-0.5
		C6.8,108.3,6.2,108.7,6.1,109.3z"/>
	<path class="st0" d="M209.9,353.7l-8.2,50.9c-0.1,0.6,0.3,1.2,0.9,1.3s1.1-0.3,1.3-0.9l8.2-50.9c0.1-0.6-0.3-1.2-0.9-1.3
		S210,353.1,209.9,353.7z"/>
	<path class="st0" d="M201.8,404.8c0,0.6,0.5,1.1,1.1,1l40.3-1.6c0.6,0,1.1-0.6,1.1-1.2c0-0.6-0.5-1.1-1.1-1.1l-40.3,1.6
		C202.2,403.7,201.7,404.2,201.8,404.8z"/>
	<path class="st27" d="M6.6,108.5c-0.5,0.3-0.7,1-0.4,1.5s1,0.7,1.5,0.4l12.2-6.9c0.5-0.3,0.7-1,0.3-1.6c-0.3-0.5-0.9-0.7-1.5-0.4
		L6.6,108.5z"/>
	<path class="st0" d="M210.1,354.5l32.1,49.3c0.3,0.5,1,0.7,1.6,0.3c0.5-0.3,0.7-1,0.3-1.6L212,353.2c-0.3-0.5-1-0.6-1.6-0.3
		C209.9,353.3,209.8,354,210.1,354.5z"/>
	<path class="st0" d="M116.7,308.7l14.8,47.9c0.2,0.6,0.9,0.9,1.4,0.7c0.6-0.2,0.9-0.8,0.7-1.3l-14.8-47.8c-0.2-0.6-0.8-0.9-1.4-0.7
		C116.8,307.6,116.5,308.1,116.7,308.7z"/>
	<path class="st0" d="M8.7,109.2c-0.5,0.4-0.6,1.1-0.2,1.6c0.4,0.5,1,0.5,1.5,0.2l10-7.5c0.5-0.4,0.6-1.1,0.2-1.6
		c-0.4-0.5-1.1-0.6-1.6-0.2L8.7,109.2z"/>
	<path class="st28" d="M10.3,110.6c0.3-0.5,0.2-1.2-0.3-1.5l-10-6.4v2.7l8.7,5.6C9.3,111.3,10,111.1,10.3,110.6z"/>
	<path class="st0" d="M109.6,356.8c0,0.6,0.5,1.1,1.2,1.1l21.9-0.5c0.6,0,1.1-0.5,1.1-1.2c0-0.6-0.5-1.1-1.2-1.1l-21.9,0.5
		C110,355.6,109.5,356.1,109.6,356.8z"/>
	<path class="st0" d="M73.5,378.5c-0.5,0.4-0.6,1.1-0.3,1.6s1,0.6,1.5,0.3l36.6-22.7c0.5-0.3,0.7-1,0.4-1.6s-1-0.7-1.6-0.4
		L73.5,378.5z"/>
	<path class="st0" d="M92.3,77.2L80,122.9c-0.1,0.6,0.3,1.2,0.9,1.4c0.6,0.1,1.1-0.2,1.3-0.8l12.3-45.7c0.2-0.6-0.2-1.2-0.8-1.4
		C93.1,76.2,92.5,76.6,92.3,77.2z"/>
	<path class="st0" d="M74.7,56l17.8,22.2c0.4,0.5,1.1,0.5,1.6,0.1s0.5-1.1,0.2-1.6L76.5,54.5c-0.4-0.5-1.1-0.6-1.6-0.2
		C74.4,54.8,74.3,55.5,74.7,56z"/>
	<path class="st0" d="M58.7,302.2c-0.6,0.2-0.9,0.8-0.7,1.4c0.2,0.5,0.7,0.9,1.3,0.8l20.4-5.2c0.6-0.2,0.9-0.8,0.8-1.4
		c-0.2-0.6-0.8-0.9-1.3-0.8L58.7,302.2z"/>
	<path class="st0" d="M109.6,356.5c-0.1,0.6,0.3,1.2,0.9,1.3l7,1.4c0.6,0.1,1.2-0.3,1.3-0.9c0.1-0.6-0.3-1.2-0.9-1.3l-7-1.3
		C110.3,355.5,109.7,355.9,109.6,356.5z"/>
	<path class="st0" d="M21.8,330.4c-0.5,0.4-0.6,1.1-0.1,1.6c0.4,0.5,1.1,0.5,1.5,0.2l36.5-28c0.5-0.4,0.6-1.1,0.2-1.6
		c-0.4-0.5-1.1-0.6-1.6-0.2L21.8,330.4z"/>
	<path class="st0" d="M80,122.9c-0.1,0.6,0.2,1.2,0.7,1.4l15.2,4.5c0.6,0.2,1.2-0.2,1.4-0.8s-0.2-1.2-0.8-1.4l-15.2-4.5
		C80.8,121.9,80.2,122.3,80,122.9z"/>
	<path class="st0" d="M96,126.5c-0.6,0.2-1,0.8-0.8,1.4c0.2,0.6,0.8,1,1.4,0.8l42.3-10.8c0.6-0.2,1-0.8,0.8-1.4
		c-0.2-0.6-0.8-1-1.4-0.8L96,126.5z"/>
	<path class="st29" d="M75,361.3c-0.6,0.1-1,0.8-0.9,1.4c0.1,0.6,0.7,1,1.2,0.9l35.5-5.7c0.6-0.1,1-0.7,0.9-1.3s-0.7-1-1.3-0.9
		L75,361.3z"/>
	<path class="st30" d="M21.4,331L6.6,396.4c-0.1,0.6,0.3,1.2,0.9,1.3c0.6,0.1,1.2-0.3,1.3-0.8l14.8-65.4c0.1-0.6-0.3-1.2-0.9-1.3
		C22.1,330.1,21.5,330.5,21.4,331z"/>
	<path class="st31" d="M33.6,14.5l41.2,41.6c0.4,0.4,1.2,0.4,1.6,0c0.4-0.4,0.4-1.2,0-1.6L35.2,12.9c-0.5-0.5-1.2-0.5-1.6,0
		C33.1,13.3,33.1,14,33.6,14.5z"/>
	<path class="st0" d="M6.8,396c-0.4,0.5-0.4,1.2,0.1,1.6l20.7,17.7h3.5L8.3,395.8C8,395.4,7.2,395.5,6.8,396z"/>
	<path class="st0" d="M35.4,14c0.2-0.6-0.1-1.2-0.6-1.4L0,0v2.5l34,12.3C34.6,15,35.2,14.6,35.4,14z"/>
	<path class="st32" d="M21.5,330.7c-0.3,0.5-0.1,1.3,0.4,1.6l52.7,31.1c0.6,0.3,1.3,0.1,1.6-0.4s0.1-1.2-0.4-1.5l-52.7-31.1
		C22.5,330,21.8,330.2,21.5,330.7z"/>
	<path class="st0" d="M75.1,361.2c-0.6,0.1-1.1,0.6-1,1.3c0.1,0.6,0.6,1.1,1.3,1l42.4-4.3c0.6-0.1,1.1-0.6,1-1.3
		c-0.1-0.6-0.6-1.1-1.3-1L75.1,361.2z"/>
	<path class="st0" d="M139.4,407.3c-0.6-0.3-1.2-0.1-1.5,0.5l-4,7.6h2.6l3.4-6.5C140.2,408.3,140,407.6,139.4,407.3z"/>
	<path class="st33" d="M56.4,185.8c-0.3,0.6-0.1,1.2,0.4,1.6l19.5,11c0.6,0.3,1.3,0.1,1.6-0.4c0.3-0.6,0.1-1.3-0.4-1.6l-19.5-11
		C57.4,185,56.7,185.2,56.4,185.8z"/>
	<path class="st34" d="M95.3,127l-38.9,58.7c-0.4,0.5-0.2,1.3,0.4,1.6c0.5,0.3,1.2,0.2,1.6-0.3l38.8-58.7c0.3-0.5,0.2-1.3-0.3-1.6
		C96.4,126.3,95.7,126.5,95.3,127z"/>
	<path class="st35" d="M74.3,361.8c-0.3,0.5-0.2,1.2,0.3,1.6l48,33.7c0.5,0.4,1.3,0.2,1.6-0.4c0.3-0.5,0.2-1.2-0.3-1.6l-48-33.7
		C75.3,361.1,74.6,361.3,74.3,361.8z"/>
	<path class="st0" d="M122.3,395.4c-0.4,0.5-0.3,1.2,0.2,1.6l15.7,12.1c0.5,0.4,1.2,0.3,1.6-0.2s0.3-1.2-0.2-1.6l-15.7-12.2
		C123.4,394.8,122.7,394.9,122.3,395.4z"/>
	<path class="st36" d="M58.4,185.6c-0.4-0.5-1.1-0.6-1.7-0.2L0,228.2v3l58.1-43.9C58.7,186.9,58.8,186.1,58.4,185.6z"/>
	<path class="st0" d="M156,249.6l33.1,38.1c0.4,0.5,1.2,0.5,1.7,0.1c0.5-0.4,0.5-1.2,0.1-1.7L157.8,248c-0.4-0.5-1.2-0.6-1.7-0.1
		C155.6,248.3,155.5,249.1,156,249.6z"/>
	<polygon class="st37" points="96.8,415.3 99.7,415.3 92.3,411.2 	"/>
	<polygon class="st38" points="114.7,415.3 122,415.3 102.2,390.4 	"/>
	<polygon class="st39" points="33.8,323 51.9,316.9 26.4,323.7 	"/>
	<polygon class="st0" points="110.4,415.3 114.2,415.3 108.6,407.4 	"/>
	<polygon class="st0" points="110.4,415.3 114.2,415.3 108.6,407.4 	"/>
	<polygon class="st40" points="102.2,390.4 109.5,415.3 112.2,415.3 109.8,394.8 	"/>
	<polygon class="st41" points="116.7,415.3 138.5,415.3 108.6,407.4 	"/>
	<polygon class="st0" points="109.8,394.8 102.2,390.4 108.6,407.4 	"/>
	<polygon class="st0" points="109.8,394.8 102.2,390.4 108.6,407.4 	"/>
	<polygon class="st0" points="108.6,407.4 114.2,415.3 115.3,415.3 109.8,394.8 	"/>
	<polygon class="st42" points="99.7,415.3 110.4,415.3 108.6,407.4 	"/>
	<polygon class="st43" points="90.5,415.3 96.8,415.3 92.3,411.2 	"/>
	<polygon class="st44" points="18.9,374.1 51.9,316.9 26.4,323.7 	"/>
	<polygon class="st0" points="18.9,374.1 6.5,369.9 22.6,380.5 	"/>
	<polygon class="st0" points="18.9,374.1 6.5,369.9 22.6,380.5 	"/>
	<polygon class="st0" points="18.9,374.1 6.5,369.9 22.6,380.5 	"/>
	<polygon class="st45" points="22.6,380.5 26.4,323.7 6.5,369.9 	"/>
	<polygon class="st46" points="18.9,374.1 0,394.9 0,398.8 22.6,380.5 	"/>
	<polygon class="st47" points="75.5,415.3 99.7,415.3 108.6,407.4 	"/>
	<polygon class="st48" points="92.3,411.2 109.8,394.8 93.1,400.9 	"/>
	<polygon class="st49" points="90.5,415.3 92.5,415.3 92.3,411.2 	"/>
	<polygon class="st50" points="0,227.3 0,228.4 29.8,257.9 	"/>
	<polygon class="st51" points="65.8,274.6 0,228.1 0,228.4 29.8,257.9 	"/>
	<polygon class="st52" points="76.4,338.4 26.4,323.7 24.9,357.7 	"/>
	<polygon class="st52" points="76.4,338.4 26.4,323.7 24.9,357.7 	"/>
	<polygon class="st53" points="82.5,415.3 88.6,415.3 93.1,400.9 	"/>
	<polygon class="st54" points="6.5,369.9 0,382.9 0,391.5 24.9,357.7 	"/>
	<polygon class="st55" points="85.2,415.3 88.6,415.3 93.1,400.9 	"/>
	<polygon class="st55" points="85.2,415.3 88.6,415.3 93.1,400.9 	"/>
	<polygon class="st56" points="78,415.3 81.2,415.3 72.9,379.7 	"/>
	<polygon class="st57" points="143.4,250 94.5,245.7 65.8,274.6 	"/>
	<polygon class="st58" points="65.8,274.6 94.5,245.7 29.8,257.9 	"/>
	<polygon class="st59" points="0,377.4 0,382.9 6.5,369.9 	"/>
	<polygon class="st60" points="93.5,415.3 99,415.3 93.1,400.9 	"/>
	<polygon class="st61" points="61.6,415.3 93.5,415.3 93.1,400.9 	"/>
	<polygon class="st62" points="72.9,379.7 78,415.3 78.9,415.3 76.4,338.4 	"/>
	<polygon class="st63" points="92.3,345.3 76.4,338.4 72.9,379.7 	"/>
	<polygon class="st63" points="92.3,345.3 76.4,338.4 72.9,379.7 	"/>
	<polygon class="st64" points="72.9,379.7 76.4,338.4 24.9,357.7 	"/>
	<polygon class="st65" points="72.9,379.7 50.7,415.3 61.6,415.3 93.1,400.9 	"/>
	<polygon class="st0" points="84.1,415.3 85.2,415.3 93.1,400.9 	"/>
	<polygon class="st66" points="6.5,369.9 0,377.4 0,380.1 24.9,357.7 	"/>
	<polygon class="st0" points="72.9,379.7 78,415.3 84.1,415.3 93.1,400.9 	"/>
	<polygon class="st67" points="93.1,400.9 92.3,345.3 72.9,379.7 	"/>
	<polygon class="st68" points="0,380.1 0,391.5 24.9,357.7 	"/>
	<polygon class="st69" points="68.6,370.6 49.3,415.3 50.7,415.3 72.9,379.7 	"/>
	<polygon class="st70" points="93.1,400.9 92.3,345.3 68.6,370.6 	"/>
	<polygon class="st71" points="72.9,379.7 68.6,370.6 75.1,398.7 	"/>
	<polygon class="st72" points="171.9,408.3 173.4,415.3 177.3,415.3 178.8,404.2 	"/>
	<polygon class="st72" points="171.9,408.3 173.4,415.3 177.3,415.3 178.8,404.2 	"/>
	<polygon class="st73" points="0,299.5 0,305.8 29,311.1 	"/>
	<polygon class="st74" points="173,415.3 177.3,415.3 178.8,404.2 	"/>
	<polygon class="st75" points="173.4,415.3 175.5,415.3 171.9,408.3 	"/>
	<polygon class="st76" points="0,304.1 0,311.8 29,311.1 	"/>
	<polygon class="st77" points="68.6,370.6 68.7,415.3 73,415.3 75.1,398.7 	"/>
	<polygon class="st78" points="0,276.8 0,320.3 29,311.1 	"/>
	<polygon class="st79" points="0,299.5 0,320.3 29,311.1 	"/>
	<polygon class="st80" points="0,302.4 0,304.1 29,311.1 	"/>
	<polygon class="st81" points="0,305.4 0,319.1 19.3,309.1 	"/>
	<polygon class="st82" points="0,282.9 0,302.4 29,311.1 	"/>
	<polygon class="st83" points="68.4,415.3 76.1,415.3 75.1,398.7 	"/>
	<polygon class="st84" points="76.1,415.3 82,415.3 75.1,398.7 	"/>
	<polygon class="st84" points="76.1,415.3 82,415.3 75.1,398.7 	"/>
	<polygon class="st85" points="73,415.3 82,415.3 75.1,398.7 	"/>
	<polygon class="st86" points="24.6,236 0,263.8 0,264.5 39.8,224.6 	"/>
	<polygon class="st87" points="0,327.8 0,330.6 5.4,332.4 	"/>
	<polygon class="st88" points="0,298.3 0,304.2 19.3,309.1 	"/>
	<polygon class="st89" points="0,295.2 0,296.7 29,311.1 	"/>
	<polygon class="st90" points="19.3,309.1 0,319.1 0,320.3 29,311.1 	"/>
	<polygon class="st91" points="29,311.1 0,299.5 0,321.2 5.4,332.4 	"/>
	<polygon class="st92" points="0,296.9 0,310.2 19.3,309.1 	"/>
	<polygon class="st93" points="0,299.5 0,299.8 29,311.1 	"/>
	<polygon class="st42" points="0,321.7 0,327.8 5.4,332.4 	"/>
	<polygon class="st94" points="29,311.1 0,296.7 0,298.3 19.3,309.1 	"/>
	<polygon class="st95" points="0,296.9 0,302.7 19.3,309.1 	"/>
	<polygon class="st96" points="29,311.1 0,295.2 0,322.9 5.4,332.4 	"/>
	<polygon class="st97" points="0,300.3 0,300.5 19.3,309.1 	"/>
	<polygon class="st73" points="127.9,415.3 132.3,415.3 127.3,405 	"/>
	<polygon class="st98" points="0,300.5 0,319.1 19.3,309.1 	"/>
	<polygon class="st99" points="29,311.1 19.3,309.1 5.4,332.4 	"/>
	<polygon class="st100" points="0,300.5 0,302.7 19.3,309.1 	"/>
	<polygon class="st101" points="0,303.8 0,323.1 36.2,327.4 	"/>
	<polygon class="st102" points="0,322.4 0,323.8 5.4,332.4 	"/>
	<polygon class="st103" points="0,296.9 0,300.5 19.3,309.1 	"/>
	<polygon class="st104" points="29,311.1 31.8,286.7 5.4,332.4 	"/>
	<polygon class="st104" points="29,311.1 31.8,286.7 5.4,332.4 	"/>
	<polygon class="st105" points="0,291.4 0,295.7 31.8,286.7 	"/>
	<polygon class="st106" points="31.8,286.7 0,291.4 0,299.8 29,311.1 	"/>
	<polygon class="st0" points="36.2,327.4 19.3,309.1 5.4,332.4 	"/>
	<polygon class="st0" points="36.2,327.4 19.3,309.1 5.4,332.4 	"/>
	<polygon class="st107" points="98.1,415.3 118.5,415.3 119.1,397.4 	"/>
	<polygon class="st108" points="5.4,332.4 0,322.4 0,361.6 4.6,381.5 	"/>
	<polygon class="st109" points="123.5,415.3 127.9,415.3 127.3,405 	"/>
	<polygon class="st110" points="36.2,327.4 31.8,286.7 19.3,309.1 	"/>
	<polygon class="st110" points="36.2,327.4 31.8,286.7 19.3,309.1 	"/>
	<polygon class="st111" points="4.5,407.8 5.4,332.4 4.6,381.5 	"/>
	<polygon class="st112" points="98.1,415.3 100,415.3 119.1,397.4 	"/>
	<polygon class="st113" points="110.8,415.3 127.9,415.3 127.3,405 	"/>
	<polygon class="st113" points="110.8,415.3 127.9,415.3 127.3,405 	"/>
	<polygon class="st114" points="65.3,370.4 36.2,327.4 4.6,381.5 	"/>
	<polygon class="st115" points="0,412.7 0,415.3 6.6,415.3 4.5,407.8 	"/>
	<polygon class="st0" points="119.1,397.4 118.5,415.3 123.5,415.3 127.3,405 	"/>
	<polygon class="st116" points="65.3,370.4 31.8,286.7 36.2,327.4 	"/>
	<polygon class="st117" points="4.6,381.5 0,391 0,412.7 4.5,407.8 	"/>
	<polygon class="st118" points="127.3,405 171.5,382.7 119.1,397.4 	"/>
	<polygon class="st119" points="31.8,286.7 0,291.4 0,296.2 29,300.9 	"/>
	<polygon class="st120" points="53.6,225.7 4.1,164.9 18.7,186.5 	"/>
	<polygon class="st121" points="129.6,412.9 171.5,382.7 127.3,405 	"/>
	<polygon class="st121" points="129.6,412.9 171.5,382.7 127.3,405 	"/>
	<polygon class="st122" points="127.3,405 119.1,397.4 129.6,412.9 	"/>
	<polygon class="st123" points="162.4,415.3 184.1,415.3 171.5,382.7 	"/>
	<polygon class="st124" points="147.8,415.3 153.3,415.3 119.1,397.4 	"/>
	<polygon class="st125" points="127.3,405 151.5,415.3 164.3,415.3 197.6,370.1 	"/>
	<polygon class="st126" points="29,300.9 0,318.8 0,331.7 36.2,327.4 	"/>
	<polygon class="st127" points="171.5,382.7 162.4,415.3 164.3,415.3 197.6,370.1 	"/>
	<polygon class="st127" points="171.5,382.7 162.4,415.3 164.3,415.3 197.6,370.1 	"/>
	<polygon class="st128" points="137,342.1 107.5,333.2 119.1,397.4 	"/>
	<polygon class="st129" points="171.5,382.7 197.6,370.1 139.4,388.3 	"/>
	<polygon class="st130" points="139.4,388.3 107.5,333.2 119.1,397.4 	"/>
	<polygon class="st131" points="29,300.9 43.2,264 31.8,286.7 	"/>
	<polygon class="st132" points="139.4,388.3 158.3,415.3 162.4,415.3 171.5,382.7 	"/>
	<polygon class="st133" points="119.1,397.4 153.3,415.3 158.3,415.3 139.4,388.3 	"/>
	<polygon class="st97" points="155.3,408.2 197.6,370.1 171.5,382.7 	"/>
	<polygon class="st134" points="155.3,408.2 119.1,397.4 129.6,412.9 	"/>
	<polygon class="st135" points="43.2,264 53.6,225.7 29,300.9 	"/>
	<polygon class="st113" points="197.6,370.1 137,342.1 139.4,388.3 	"/>
	<polygon class="st136" points="0,310.8 0,318.8 29,300.9 	"/>
	<polygon class="st64" points="139.4,388.3 158.3,415.3 159.9,415.3 137,342.1 	"/>
	<polygon class="st137" points="129.6,412.9 141.2,415.3 159.1,415.3 155.3,408.2 	"/>
	<polygon class="st138" points="137,342.1 107.5,333.2 85.8,339.9 	"/>
	<polygon class="st139" points="137,342.1 137.4,322 107.5,333.2 	"/>
	<polygon class="st140" points="139.4,388.3 158.3,415.3 159.1,415.3 155.3,408.2 	"/>
	<polygon class="st141" points="139.4,388.3 137.4,322 107.5,333.2 	"/>
	<polygon class="st142" points="137,342.1 85.8,339.9 139.4,388.3 	"/>
	<polygon class="st143" points="137,342.1 137.4,322 85.8,339.9 	"/>
	<polygon class="st144" points="129.6,412.9 130,415.3 133.2,415.3 155.3,408.2 	"/>
	<polygon class="st145" points="73.8,366.2 85.8,339.9 56.6,391.9 	"/>
	<polygon class="st146" points="163.1,331.1 137.4,322 137,342.1 	"/>
	<polygon class="st147" points="56.6,391.9 85.8,339.9 14.7,387.4 	"/>
	<polygon class="st148" points="137.4,322 103.6,280.6 85.8,339.9 	"/>
	<polygon class="st148" points="137.4,322 103.6,280.6 85.8,339.9 	"/>
	<polygon class="st149" points="56.6,391.9 73.8,366.2 14.7,387.4 	"/>
	<polygon class="st150" points="67.6,410.1 73.8,366.2 56.6,391.9 	"/>
	<polygon class="st151" points="56.6,391.9 58.3,415.3 67.2,415.3 67.6,410.1 	"/>
	<polygon class="st152" points="199.6,315.1 183.2,288.5 137.4,322 	"/>
	<polygon class="st153" points="67.6,410.1 73.8,366.2 14.7,387.4 	"/>
	<polygon class="st154" points="150.3,323.6 199.6,315.1 137.4,322 	"/>
	<polygon class="st154" points="150.3,323.6 199.6,315.1 137.4,322 	"/>
	<polygon class="st155" points="199.6,315.1 183.2,288.5 163.1,331.1 	"/>
	<polygon class="st7" points="150.3,323.6 137.4,322 163.1,331.1 	"/>
	<polygon class="st156" points="224.6,341.1 199.6,315.1 163.1,331.1 	"/>
	<polygon class="st0" points="190.8,292.7 183.2,288.5 199.6,315.1 	"/>
	<polygon class="st0" points="190.8,292.7 183.2,288.5 199.6,315.1 	"/>
	<polygon class="st0" points="190.8,292.7 183.2,288.5 199.6,315.1 	"/>
	<polygon class="st157" points="67.2,415.3 71.1,415.3 67.6,410.1 	"/>
	<polygon class="st158" points="224.6,341.1 190.8,292.7 199.6,315.1 	"/>
	<polygon class="st107" points="224.6,341.1 183.2,288.5 163.1,331.1 	"/>
	<polygon class="st159" points="67.6,410.1 3.4,349.8 14.7,387.4 	"/>
	<polygon class="st160" points="73.8,366.2 47.7,415.3 61.7,415.3 67.6,410.1 	"/>
	<polygon class="st161" points="163.1,331.1 183.2,288.5 150.3,323.6 	"/>
	<polygon class="st162" points="163.1,331.1 190.8,292.7 150.3,323.6 	"/>
	<polygon class="st0" points="103.6,280.6 98.4,278 83.9,281.2 	"/>
	<polygon class="st0" points="103.6,280.6 98.4,278 83.9,281.2 	"/>
	<polygon class="st0" points="103.6,280.6 98.4,278 83.9,281.2 	"/>
	<polygon class="st163" points="61.7,415.3 67.2,415.3 67.6,410.1 	"/>
	<polygon class="st164" points="190.8,292.7 183.2,288.5 150.3,323.6 	"/>
	<polygon class="st165" points="67.6,410.1 74.6,375.9 14.7,387.4 	"/>
	<polygon class="st166" points="163.1,331.1 150.3,323.6 128.9,368.8 	"/>
	<polygon class="st167" points="3.4,349.8 0,339.7 0,341.3 14.7,387.4 	"/>
	<polygon class="st168" points="74.6,375.9 128.8,415.3 130.1,415.3 128.9,368.8 	"/>
	<polygon class="st169" points="8.7,298.5 0,304 0,339.7 3.4,349.8 	"/>
	<polygon class="st170" points="67.6,410.1 128.9,368.8 74.6,375.9 	"/>
	<polygon class="st171" points="0,299.4 0,304 8.7,298.5 	"/>
	<polygon class="st172" points="149.5,365.6 150.3,323.6 128.9,368.8 	"/>
	<polygon class="st173" points="164.3,342.4 150.3,323.6 128.9,368.8 	"/>
	<polygon class="st174" points="74.6,375.9 83.9,281.2 68.1,312.5 	"/>
	<polygon class="st175" points="124.8,405.3 149.5,365.6 128.9,368.8 	"/>
	<polygon class="st176" points="85.4,368.5 68.1,312.5 74.6,375.9 	"/>
	<polygon class="st176" points="85.4,368.5 68.1,312.5 74.6,375.9 	"/>
	<polygon class="st0" points="196.8,344.9 164.3,342.4 149.5,365.6 	"/>
	<polygon class="st0" points="196.8,344.9 164.3,342.4 149.5,365.6 	"/>
	<polygon class="st0" points="196.8,344.9 164.3,342.4 149.5,365.6 	"/>
	<polygon class="st177" points="85.4,368.5 127.8,415.3 140.1,415.3 149.5,365.6 	"/>
	<polygon class="st178" points="85.4,368.5 85.5,296.2 68.1,312.5 	"/>
	<polygon class="st179" points="124.8,405.3 149.5,365.6 133.1,386.5 	"/>
	<polygon class="st180" points="133.1,386.5 149.5,365.6 85.4,368.5 	"/>
	<polygon class="st181" points="45,337.3 85.5,296.2 68.1,312.5 	"/>
	<polygon class="st182" points="124.8,405.3 146.6,415.3 148.9,415.3 85.4,368.5 	"/>
	<polygon class="st183" points="124.8,405.3 85.4,368.5 80.6,384.7 	"/>
	<polygon class="st184" points="85.4,368.5 85.5,296.2 45,337.3 	"/>
	<polygon class="st185" points="63.8,411.2 85.4,368.5 50.2,391.5 	"/>
	<polygon class="st186" points="162.2,415.3 175.7,415.3 185.5,404.5 	"/>
	<polygon class="st187" points="85.4,368.5 45,337.3 63.8,411.2 	"/>
	<polygon class="st188" points="52.6,415.3 79.2,415.3 63.8,411.2 	"/>
	<polygon class="st189" points="45,337.3 95.7,415.3 96.4,415.3 80.6,384.7 	"/>
	<polygon class="st190" points="45,337.3 0,323.4 0,324 50.2,391.5 	"/>
	<polygon class="st191" points="50.2,391.5 30.4,415.3 52.6,415.3 63.8,411.2 	"/>
	<polygon class="st192" points="159.5,415.3 192.4,415.3 185.5,404.5 	"/>
	<polygon class="st193" points="133.1,386.5 85.4,368.5 80.6,384.7 	"/>
	<polygon class="st194" points="140.2,415.3 146.6,415.3 124.8,405.3 	"/>
	<polygon class="st195" points="175.7,415.3 192.4,415.3 185.5,404.5 	"/>
	<polygon class="st196" points="50.2,391.5 30.4,415.3 37.3,415.3 80.6,384.7 	"/>
	<polygon class="st197" points="0,294.3 0,323.4 45,337.3 	"/>
	<polygon class="st0" points="159.5,415.3 175.7,415.3 185.5,404.5 	"/>
	<polygon class="st198" points="89.6,109.6 34.7,83.8 7.1,109.5 	"/>
	<polygon class="st199" points="173.5,415.3 175.7,415.3 185.5,404.5 	"/>
	<polygon class="st200" points="185.5,404.5 192.4,415.3 203.5,415.3 202.8,404.8 	"/>
	<polygon class="st201" points="153.5,415.3 157,415.3 162.9,382 	"/>
	<polygon class="st202" points="163.3,415.3 188.2,415.3 202.8,404.8 	"/>
	<polygon class="st203" points="202.8,404.8 133.1,386.5 185.5,404.5 	"/>
	<polygon class="st204" points="34.7,83.8 0,71.2 0,97.6 7.1,109.5 	"/>
	<polygon class="st205" points="104.8,197.4 128.4,136.8 122.2,151.8 	"/>
	<polygon class="st206" points="0,125.5 0,126.5 7.1,109.5 	"/>
	<polygon class="st207" points="0,175.9 0,189.3 40.4,201.9 	"/>
	<polygon class="st208" points="162.9,382 153.5,415.3 163.3,415.3 202.8,404.8 	"/>
	<polygon class="st209" points="162.9,382 157,415.3 188.2,415.3 202.8,404.8 	"/>
	<polygon class="st210" points="185.5,404.5 211,353.9 162.9,382 	"/>
	<polygon class="st73" points="19.3,102.6 34.7,83.8 7.1,109.5 	"/>
	<polygon class="st211" points="162.9,382 160.4,415.3 183.1,415.3 202.8,404.8 	"/>
	<polygon class="st212" points="9.4,110.1 0,95.4 0,97.6 7.1,109.5 	"/>
	<polygon class="st213" points="162.9,382 132.6,356.2 133.1,386.5 	"/>
	<polygon class="st214" points="211,353.9 168.2,415.3 183.1,415.3 202.8,404.8 	"/>
	<polygon class="st215" points="243.1,403.1 162.9,382 202.8,404.8 	"/>
	<polygon class="st216" points="243.1,403.1 211,353.9 202.8,404.8 	"/>
	<polygon class="st216" points="243.1,403.1 211,353.9 202.8,404.8 	"/>
	<polygon class="st217" points="9.4,110.1 19.3,102.6 7.1,109.5 	"/>
	<polygon class="st217" points="9.4,110.1 19.3,102.6 7.1,109.5 	"/>
	<polygon class="st218" points="162.9,382 211,353.9 132.6,356.2 	"/>
	<polygon class="st219" points="122.2,151.8 138.6,116.8 128.4,136.8 	"/>
	<polygon class="st220" points="0,95.4 0,104 9.4,110.1 	"/>
	<polygon class="st221" points="0,104 0,108.9 9.4,110.1 	"/>
	<polygon class="st222" points="132.6,356.2 117.7,308.4 110.7,356.7 	"/>
	<polygon class="st222" points="132.6,356.2 117.7,308.4 110.7,356.7 	"/>
	<polygon class="st223" points="162.9,382 132.6,356.2 117.7,358.1 	"/>
	<polygon class="st224" points="128.4,136.8 93.4,77.5 81.1,123.2 	"/>
	<polygon class="st225" points="138.6,116.8 93.4,77.5 128.4,136.8 	"/>
	<polygon class="st226" points="93.4,77.5 75.6,55.3 19.3,102.6 	"/>
	<polygon class="st227" points="74.1,379.4 132.6,356.2 117.7,358.1 	"/>
	<polygon class="st228" points="81.1,123.2 75.6,55.3 19.3,102.6 	"/>
	<polygon class="st229" points="117.7,358.1 132.6,356.2 110.7,356.7 	"/>
	<polygon class="st230" points="93.4,77.5 75.6,55.3 81.1,123.2 	"/>
	<polygon class="st231" points="138.6,116.8 75.6,55.3 81.1,123.2 	"/>
	<polygon class="st232" points="110.7,356.7 79.4,298 59,303.3 	"/>
	<polygon class="st233" points="96.3,127.6 93.4,77.5 81.1,123.2 	"/>
	<polygon class="st234" points="138.6,116.8 93.4,77.5 96.3,127.6 	"/>
	<polygon class="st235" points="74.1,379.4 110.7,356.7 75.2,362.4 	"/>
	<polygon class="st236" points="75.6,55.3 34.4,13.7 93.4,77.5 	"/>
	<polygon class="st237" points="117.7,358.1 79.4,298 110.7,356.7 	"/>
	<polygon class="st238" points="96.3,127.6 138.6,116.8 81.1,123.2 	"/>
	<polygon class="st238" points="96.3,127.6 138.6,116.8 81.1,123.2 	"/>
	<polygon class="st239" points="22.5,331.3 79.4,298 59,303.3 	"/>
	<polygon class="st239" points="22.5,331.3 79.4,298 59,303.3 	"/>
	<polygon class="st240" points="138.9,408.3 132.6,356.2 117.7,358.1 	"/>
	<polygon class="st241" points="74.1,379.4 75.2,362.4 7.7,396.7 	"/>
	<polygon class="st68" points="75.2,362.4 22.5,331.3 74.1,379.4 	"/>
	<polygon class="st242" points="117.7,358.1 110.7,356.7 75.2,362.4 	"/>
	<polygon class="st242" points="117.7,358.1 110.7,356.7 75.2,362.4 	"/>
	<polygon class="st243" points="34.4,13.7 0,1.3 0,4 75.6,55.3 	"/>
	<polygon class="st244" points="7.7,396.7 29.5,415.3 45.6,415.3 22.5,331.3 	"/>
	<polygon class="st245" points="75.2,362.4 59,303.3 22.5,331.3 	"/>
	<polygon class="st246" points="29.5,415.3 33.6,415.3 7.7,396.7 	"/>
	<polygon class="st247" points="77,197.3 96.3,127.6 57.4,186.3 	"/>
	<polygon class="st248" points="0,1.3 0,15.2 34.4,13.7 	"/>
	<polygon class="st249" points="123.2,396.1 75.2,362.4 138.9,408.3 	"/>
</g>
</svg>
