<?xml version="1.0" encoding="utf-8"?>
<!-- Generator: Adobe Illustrator 24.0.1, SVG Export Plug-In . SVG Version: 6.00 Build 0)  -->
<svg version="1.1" id="Capa_1" xmlns="http://www.w3.org/2000/svg" xmlns:xlink="http://www.w3.org/1999/xlink" x="0px" y="0px"
	 viewBox="0 0 283.3 441.1" style="enable-background:new 0 0 283.3 441.1;" xml:space="preserve">
<style type="text/css">
	.st0{fill:#FFFFFF;fill-opacity:0.51;}
	.st1{fill:#FFFFFF;fill-opacity:0.3826;}
	.st2{fill:#FFFFFF;fill-opacity:3.959100e-02;}
	.st3{fill:#FFFFFF;fill-opacity:0.4464;}
	.st4{fill:#FFFFFF;fill-opacity:0.4762;}
	.st5{fill:#FFFFFF;fill-opacity:0.4038;}
	.st6{fill:#FFFFFF;fill-opacity:0.2795;}
	.st7{fill:#FFFFFF;fill-opacity:0.3541;}
	.st8{fill:#FFFFFF;fill-opacity:0.3082;}
	.st9{fill:#FFFFFF;fill-opacity:0.4482;}
	.st10{fill:#FFFFFF;fill-opacity:0.4864;}
	.st11{fill:#FFFFFF;fill-opacity:0.2838;}
	.st12{fill:#FFFFFF;fill-opacity:0.4518;}
	.st13{fill:#FFFFFF;fill-opacity:0.4972;}
	.st14{fill:#FFFFFF;fill-opacity:0.4304;}
	.st15{fill:#FFFFFF;fill-opacity:0.3026;}
	.st16{fill:#FFFFFF;fill-opacity:0.4945;}
	.st17{fill:#FFFFFF;fill-opacity:0.4856;}
	.st18{fill:#FFFFFF;fill-opacity:0.2559;}
	.st19{fill:#FFFFFF;fill-opacity:0.4346;}
	.st20{fill:#FFFFFF;fill-opacity:0.3231;}
	.st21{fill:#FFFFFF;fill-opacity:0.363;}
	.st22{fill:#FFFFFF;fill-opacity:0.5054;}
	.st23{fill:#FFFFFF;fill-opacity:0.4466;}
	.st24{fill:#FFFFFF;fill-opacity:0.3791;}
	.st25{fill:#FFFFFF;fill-opacity:0.4749;}
	.st26{fill:#FFFFFF;fill-opacity:0.5076;}
	.st27{fill:#FFFFFF;fill-opacity:0.4207;}
	.st28{fill:#FFFFFF;fill-opacity:0.4398;}
	.st29{fill:#FFFFFF;fill-opacity:0.3986;}
	.st30{fill:#FFFFFF;fill-opacity:0.3861;}
	.st31{fill:#FFFFFF;fill-opacity:0.5003;}
	.st32{fill:#FFFFFF;fill-opacity:0.3651;}
	.st33{fill:#FFFFFF;fill-opacity:0.4054;}
	.st34{fill:#FFFFFF;fill-opacity:0.2844;}
	.st35{fill:#FFFFFF;fill-opacity:0.3131;}
	.st36{fill:#FFFFFF;fill-opacity:0.3808;}
	.st37{fill:#FFFFFF;fill-opacity:9.444800e-02;}
	.st38{fill:#FFFFFF;fill-opacity:0.4587;}
	.st39{fill:#FFFFFF;fill-opacity:0.2634;}
	.st40{fill:#FFFFFF;fill-opacity:0.2366;}
	.st41{fill:#FFFFFF;fill-opacity:0.3054;}
	.st42{fill:#FFFFFF;fill-opacity:0.3987;}
	.st43{fill:#FFFFFF;fill-opacity:0.3298;}
	.st44{fill:#FFFFFF;fill-opacity:0.2906;}
	.st45{fill:#FFFFFF;fill-opacity:0.3928;}
	.st46{fill:#FFFFFF;fill-opacity:0.2568;}
	.st47{fill:#FFFFFF;fill-opacity:0.3338;}
	.st48{fill:#FFFFFF;fill-opacity:0.4716;}
	.st49{fill:#FFFFFF;fill-opacity:0.4962;}
	.st50{fill:#FFFFFF;fill-opacity:4.963600e-02;}
	.st51{fill:#FFFFFF;fill-opacity:0.464;}
	.st52{fill:#FFFFFF;fill-opacity:0.3326;}
	.st53{fill:#FFFFFF;fill-opacity:0.3211;}
	.st54{fill:#FFFFFF;fill-opacity:0.291;}
	.st55{fill:#FFFFFF;fill-opacity:2.558500e-02;}
	.st56{fill:#FFFFFF;fill-opacity:0.4301;}
	.st57{fill:#FFFFFF;fill-opacity:0.1199;}
	.st58{fill:#FFFFFF;fill-opacity:0.1374;}
	.st59{fill:#FFFFFF;fill-opacity:0.1749;}
	.st60{fill:#FFFFFF;fill-opacity:3.337900e-02;}
	.st61{fill:#FFFFFF;fill-opacity:0.2985;}
	.st62{fill:#FFFFFF;fill-opacity:0.4143;}
	.st63{fill:#FFFFFF;fill-opacity:0.1123;}
	.st64{fill:#FFFFFF;fill-opacity:0.3855;}
	.st65{fill:#FFFFFF;fill-opacity:0.3442;}
	.st66{fill:#FFFFFF;fill-opacity:0.374;}
	.st67{fill:#FFFFFF;fill-opacity:3.627100e-02;}
	.st68{fill:#FFFFFF;fill-opacity:0.1423;}
	.st69{fill:#FFFFFF;fill-opacity:0.2801;}
	.st70{fill:#FFFFFF;fill-opacity:0.3013;}
	.st71{fill:#FFFFFF;fill-opacity:0.2921;}
	.st72{fill:#FFFFFF;fill-opacity:0.242;}
	.st73{fill:#FFFFFF;fill-opacity:0.4924;}
	.st74{fill:#FFFFFF;fill-opacity:6.306300e-02;}
	.st75{fill:#FFFFFF;fill-opacity:0.3312;}
	.st76{fill:#FFFFFF;fill-opacity:0.3491;}
	.st77{fill:#FFFFFF;fill-opacity:0.4683;}
	.st78{fill:#FFFFFF;fill-opacity:0.2123;}
	.st79{fill:#FFFFFF;fill-opacity:6.309600e-02;}
	.st80{fill:#FFFFFF;fill-opacity:0.1986;}
	.st81{fill:#FFFFFF;fill-opacity:0.1242;}
	.st82{fill:#FFFFFF;fill-opacity:0.3894;}
	.st83{fill:#FFFFFF;fill-opacity:7.624900e-02;}
	.st84{fill:#FFFFFF;fill-opacity:0.2842;}
	.st85{fill:#FFFFFF;fill-opacity:0.3098;}
	.st86{fill:#FFFFFF;fill-opacity:8.827600e-02;}
	.st87{fill:#FFFFFF;fill-opacity:0.3153;}
	.st88{fill:#FFFFFF;fill-opacity:0.2454;}
	.st89{fill:#FFFFFF;fill-opacity:5.100000e-03;}
	.st90{fill:#FFFFFF;fill-opacity:0.5083;}
	.st91{fill:#FFFFFF;fill-opacity:0.2814;}
	.st92{fill:#FFFFFF;fill-opacity:5.020600e-02;}
	.st93{fill:#FFFFFF;fill-opacity:0.3221;}
	.st94{fill:#FFFFFF;fill-opacity:0.3197;}
	.st95{fill:#FFFFFF;fill-opacity:4.615100e-02;}
	.st96{fill:#FFFFFF;fill-opacity:0.3718;}
	.st97{fill:#FFFFFF;fill-opacity:0.117;}
	.st98{fill:#FFFFFF;fill-opacity:0.249;}
	.st99{fill:#FFFFFF;fill-opacity:0.3432;}
	.st100{fill:#FFFFFF;fill-opacity:0.3072;}
	.st101{fill:#FFFFFF;fill-opacity:0.4777;}
	.st102{fill:#FFFFFF;fill-opacity:0.2545;}
	.st103{fill:#FFFFFF;fill-opacity:0.2093;}
	.st104{fill:#FFFFFF;fill-opacity:0.4931;}
	.st105{fill:#FFFFFF;fill-opacity:0.1873;}
	.st106{fill:#FFFFFF;fill-opacity:0.3474;}
	.st107{fill:#FFFFFF;fill-opacity:0.1975;}
	.st108{fill:#FFFFFF;fill-opacity:0.1119;}
	.st109{fill:#FFFFFF;fill-opacity:0.495;}
	.st110{fill:#FFFFFF;fill-opacity:0.3433;}
	.st111{fill:#FFFFFF;fill-opacity:0.1466;}
	.st112{fill:#FFFFFF;fill-opacity:0.3166;}
	.st113{fill:#FFFFFF;fill-opacity:0.2667;}
	.st114{fill:#FFFFFF;fill-opacity:9.722900e-02;}
	.st115{fill:#FFFFFF;fill-opacity:0.1075;}
	.st116{fill:#FFFFFF;fill-opacity:6.506400e-02;}
	.st117{fill:#FFFFFF;fill-opacity:0.2512;}
	.st118{fill:#FFFFFF;fill-opacity:0.3844;}
	.st119{fill:#FFFFFF;fill-opacity:0.3097;}
	.st120{fill:#FFFFFF;fill-opacity:0.1858;}
	.st121{fill:#FFFFFF;fill-opacity:4.642300e-02;}
	.st122{fill:#FFFFFF;fill-opacity:0.462;}
	.st123{fill:#FFFFFF;fill-opacity:0.2383;}
	.st124{fill:#FFFFFF;fill-opacity:0.2364;}
	.st125{fill:#FFFFFF;fill-opacity:0.1796;}
	.st126{fill:#FFFFFF;fill-opacity:0.1958;}
	.st127{fill:#FFFFFF;fill-opacity:0.1683;}
	.st128{fill:#FFFFFF;fill-opacity:4.189100e-02;}
	.st129{fill:#FFFFFF;fill-opacity:4.508400e-02;}
	.st130{fill:#FFFFFF;fill-opacity:0.104;}
	.st131{fill:#FFFFFF;fill-opacity:0.2643;}
	.st132{fill:#FFFFFF;fill-opacity:0.1982;}
	.st133{fill:#FFFFFF;fill-opacity:0.3152;}
	.st134{fill:#FFFFFF;fill-opacity:0.4978;}
	.st135{fill:#FFFFFF;fill-opacity:6.929600e-02;}
	.st136{fill:#FFFFFF;fill-opacity:0.21;}
	.st137{fill:#FFFFFF;fill-opacity:0.232;}
	.st138{fill:#FFFFFF;fill-opacity:0.3593;}
	.st139{fill:#FFFFFF;fill-opacity:7.708400e-02;}
	.st140{fill:#FFFFFF;fill-opacity:0.1662;}
	.st141{fill:#FFFFFF;fill-opacity:0.3513;}
	.st142{fill:#FFFFFF;fill-opacity:0.2664;}
	.st143{fill:#FFFFFF;fill-opacity:0.1593;}
	.st144{fill:#FFFFFF;fill-opacity:0.1271;}
	.st145{fill:#FFFFFF;fill-opacity:0.3454;}
	.st146{fill:#FFFFFF;fill-opacity:0.1702;}
	.st147{fill:#FFFFFF;fill-opacity:0.1924;}
	.st148{fill:#FFFFFF;fill-opacity:0.191;}
	.st149{fill:#FFFFFF;fill-opacity:4.188500e-02;}
	.st150{fill:#FFFFFF;fill-opacity:0.1773;}
	.st151{fill:#FFFFFF;fill-opacity:0.4288;}
	.st152{fill:#FFFFFF;fill-opacity:2.918900e-02;}
	.st153{fill:#FFFFFF;fill-opacity:0.1455;}
	.st154{fill:#FFFFFF;fill-opacity:0.3245;}
	.st155{fill:#FFFFFF;fill-opacity:0.3335;}
	.st156{fill:#FFFFFF;fill-opacity:0.3847;}
	.st157{fill:#FFFFFF;fill-opacity:0.4927;}
	.st158{fill:#FFFFFF;fill-opacity:0.2243;}
	.st159{fill:#FFFFFF;fill-opacity:2.247000e-02;}
	.st160{fill:#FFFFFF;fill-opacity:0.2811;}
	.st161{fill:#FFFFFF;fill-opacity:0.4358;}
	.st162{fill:#FFFFFF;fill-opacity:0.3636;}
	.st163{fill:#FFFFFF;fill-opacity:9.149600e-02;}
	.st164{fill:#FFFFFF;fill-opacity:0.1282;}
	.st165{fill:#FFFFFF;fill-opacity:0.4801;}
	.st166{fill:#FFFFFF;fill-opacity:9.685600e-02;}
	.st167{fill:#FFFFFF;fill-opacity:0.1764;}
	.st168{fill:#FFFFFF;fill-opacity:4.039100e-02;}
	.st169{fill:#FFFFFF;fill-opacity:0.2892;}
	.st170{fill:#FFFFFF;fill-opacity:0.1723;}
	.st171{fill:#FFFFFF;fill-opacity:0.3896;}
	.st172{fill:#FFFFFF;fill-opacity:0.4055;}
	.st173{fill:#FFFFFF;fill-opacity:5.115000e-02;}
	.st174{fill:#FFFFFF;fill-opacity:0.1415;}
	.st175{fill:#FFFFFF;fill-opacity:0.2246;}
	.st176{fill:#FFFFFF;fill-opacity:0.177;}
	.st177{fill:#FFFFFF;fill-opacity:0.2239;}
	.st178{fill:#FFFFFF;fill-opacity:8.195900e-02;}
	.st179{fill:#FFFFFF;fill-opacity:9.615000e-03;}
	.st180{fill:#FFFFFF;fill-opacity:0.2869;}
	.st181{fill:#FFFFFF;fill-opacity:0.4878;}
	.st182{fill:#FFFFFF;fill-opacity:0.478;}
	.st183{fill:#FFFFFF;fill-opacity:0.4674;}
	.st184{fill:#FFFFFF;fill-opacity:0.3337;}
	.st185{fill:#FFFFFF;fill-opacity:0.118;}
	.st186{fill:#FFFFFF;fill-opacity:0.2887;}
	.st187{fill:#FFFFFF;fill-opacity:0.2858;}
	.st188{fill:#FFFFFF;fill-opacity:0.2316;}
	.st189{fill:#FFFFFF;fill-opacity:0.428;}
	.st190{fill:#FFFFFF;fill-opacity:0.2043;}
	.st191{fill:#FFFFFF;fill-opacity:0.5098;}
	.st192{fill:#FFFFFF;fill-opacity:0.5053;}
	.st193{fill:#FFFFFF;fill-opacity:0.2911;}
	.st194{fill:#FFFFFF;fill-opacity:1.755900e-02;}
	.st195{fill:#FFFFFF;fill-opacity:0.3415;}
	.st196{fill:#FFFFFF;fill-opacity:1.747700e-02;}
	.st197{fill:#FFFFFF;fill-opacity:0.382;}
	.st198{fill:#FFFFFF;fill-opacity:0.1459;}
	.st199{fill:#FFFFFF;fill-opacity:0.125;}
	.st200{fill:#FFFFFF;fill-opacity:6.208900e-02;}
	.st201{fill:#FFFFFF;fill-opacity:0.4387;}
	.st202{fill:#FFFFFF;fill-opacity:5.541000e-02;}
	.st203{fill:#FFFFFF;fill-opacity:6.628800e-02;}
	.st204{fill:#FFFFFF;fill-opacity:0.2081;}
	.st205{fill:#FFFFFF;fill-opacity:0.2355;}
	.st206{fill:#FFFFFF;fill-opacity:0.1678;}
	.st207{fill:#FFFFFF;fill-opacity:0.3797;}
	.st208{fill:#FFFFFF;fill-opacity:0.2406;}
	.st209{fill:#FFFFFF;fill-opacity:0.1163;}
	.st210{fill:#FFFFFF;fill-opacity:0.3378;}
	.st211{fill:#FFFFFF;fill-opacity:4.544600e-02;}
	.st212{fill:#FFFFFF;fill-opacity:0.2647;}
	.st213{fill:#FFFFFF;fill-opacity:0.3858;}
	.st214{fill:#FFFFFF;fill-opacity:1.717600e-02;}
	.st215{fill:#FFFFFF;fill-opacity:0.169;}
	.st216{fill:#FFFFFF;fill-opacity:5.671000e-02;}
	.st217{fill:#FFFFFF;fill-opacity:5.986100e-02;}
	.st218{fill:#FFFFFF;fill-opacity:0.4405;}
	.st219{fill:#FFFFFF;fill-opacity:2.157600e-02;}
	.st220{fill:#FFFFFF;fill-opacity:0.3293;}
	.st221{fill:#FFFFFF;fill-opacity:9.355700e-02;}
	.st222{fill:#FFFFFF;fill-opacity:5.804700e-02;}
	.st223{fill:#FFFFFF;fill-opacity:0.3351;}
	.st224{fill:#FFFFFF;fill-opacity:5.567000e-03;}
	.st225{fill:#FFFFFF;fill-opacity:1.741400e-02;}
	.st226{fill:#FFFFFF;fill-opacity:0.196;}
	.st227{fill:#FFFFFF;fill-opacity:0.1445;}
	.st228{fill:#FFFFFF;fill-opacity:5.742000e-03;}
	.st229{fill:#FFFFFF;fill-opacity:0.1068;}
	.st230{fill:#FFFFFF;fill-opacity:0.2158;}
	.st231{fill:#FFFFFF;fill-opacity:5.839400e-02;}
	.st232{fill:#FFFFFF;fill-opacity:0.3319;}
	.st233{fill:#FFFFFF;fill-opacity:0.1834;}
	.st234{fill:#FFFFFF;fill-opacity:0.2637;}
	.st235{fill:#FFFFFF;fill-opacity:0.2122;}
	.st236{fill:#FFFFFF;fill-opacity:8.452000e-02;}
	.st237{fill:#FFFFFF;fill-opacity:0.2107;}
	.st238{fill:#FFFFFF;fill-opacity:0.3112;}
	.st239{fill:#FFFFFF;fill-opacity:0.401;}
	.st240{fill:#FFFFFF;fill-opacity:0.2102;}
	.st241{fill:#FFFFFF;fill-opacity:0.2213;}
	.st242{fill:#FFFFFF;fill-opacity:8.950300e-02;}
	.st243{fill:#FFFFFF;fill-opacity:0.2832;}
	.st244{fill:#FFFFFF;fill-opacity:1.054600e-02;}
	.st245{fill:#FFFFFF;fill-opacity:0.4546;}
	.st246{fill:#FFFFFF;fill-opacity:0.4732;}
	.st247{fill:#FFFFFF;fill-opacity:0.2263;}
	.st248{fill:#FFFFFF;fill-opacity:0.2237;}
	.st249{fill:#FFFFFF;fill-opacity:0.2774;}
	.st250{fill:#FFFFFF;fill-opacity:3.744000e-02;}
	.st251{fill:#FFFFFF;fill-opacity:0.4157;}
	.st252{fill:#FFFFFF;fill-opacity:0.3274;}
	.st253{fill:#FFFFFF;fill-opacity:0.3034;}
	.st254{fill:#FFFFFF;fill-opacity:0.32;}
	.st255{fill:#FFFFFF;fill-opacity:0.3599;}
	.st256{fill:#FFFFFF;fill-opacity:0.2988;}
	.st257{fill:#FFFFFF;fill-opacity:0.2259;}
	.st258{fill:#FFFFFF;fill-opacity:0.1165;}
	.st259{fill:#FFFFFF;fill-opacity:8.326500e-02;}
	.st260{fill:#FFFFFF;fill-opacity:0.2062;}
</style>
<g>
	<path class="st0" d="M206.9,160.6c0.8,1.3,2.5,1.6,3.8,0.8c1.3-0.8,1.6-2.5,0.8-3.8c-0.8-1.3-2.5-1.6-3.8-0.8
		C206.4,157.7,206.1,159.3,206.9,160.6z"/>
	<path class="st0" d="M224.8,154.9c0.8,1.3,2.5,1.6,3.8,0.8c1.3-0.8,1.6-2.5,0.8-3.8c-0.8-1.3-2.5-1.6-3.8-0.8
		C224.3,151.9,223.9,153.6,224.8,154.9z"/>
	<ellipse class="st0" cx="156.7" cy="83.8" rx="2.8" ry="2.8"/>
	<path class="st0" d="M164.2,70.1c0.8,1.3,2.5,1.7,3.8,0.8c1.3-0.8,1.7-2.5,0.8-3.8c-0.8-1.3-2.5-1.7-3.8-0.8
		C163.7,67.1,163.3,68.8,164.2,70.1z"/>
	<path class="st0" d="M182.9,152.8c0.8,1.3,2.6,1.7,3.8,0.8s1.7-2.6,0.8-3.8s-2.6-1.7-3.8-0.8C182.4,149.8,182.1,151.5,182.9,152.8z
		"/>
	<path class="st0" d="M181.4,163.7c0.8,1.3,2.6,1.7,3.9,0.8c1.3-0.8,1.7-2.6,0.8-3.9c-0.8-1.3-2.6-1.7-3.9-0.8
		C180.9,160.7,180.6,162.4,181.4,163.7z"/>
	<path class="st0" d="M173.7,140.4c0.8,1.3,2.6,1.7,3.9,0.8s1.7-2.6,0.8-3.9c-0.8-1.3-2.6-1.7-3.9-0.8
		C173.2,137.4,172.9,139.1,173.7,140.4z"/>
	<path class="st0" d="M170.5,64.1c0.8,1.3,2.6,1.7,3.9,0.8c1.3-0.8,1.7-2.6,0.8-3.9c-0.8-1.3-2.6-1.7-3.9-0.8
		C170.1,61.1,169.7,62.8,170.5,64.1z"/>
	<path class="st0" d="M246.9,279.6c0.8,1.3,2.6,1.7,3.9,0.8c1.3-0.8,1.7-2.6,0.8-3.9c-0.8-1.3-2.6-1.7-3.9-0.8
		C246.5,276.5,246.1,278.3,246.9,279.6z"/>
	<path class="st0" d="M130.1,95c0.8,1.3,2.6,1.7,3.9,0.8c1.3-0.8,1.7-2.6,0.8-3.9c-0.8-1.3-2.6-1.7-3.9-0.8
		C129.6,91.9,129.2,93.7,130.1,95z"/>
	<path class="st0" d="M248.4,246.6c0.8,1.3,2.6,1.7,3.9,0.8c1.3-0.8,1.7-2.6,0.8-3.9c-0.8-1.3-2.6-1.7-3.9-0.8
		C247.9,243.5,247.5,245.3,248.4,246.6z"/>
	<path class="st0" d="M177,228c0.8,1.3,2.6,1.7,3.9,0.8c1.3-0.8,1.7-2.6,0.8-3.9c-0.8-1.3-2.6-1.7-3.9-0.8
		C176.5,224.9,176.1,226.7,177,228z"/>
	<path class="st0" d="M261.2,291c0.8,1.3,2.6,1.7,3.9,0.8c1.3-0.8,1.7-2.6,0.9-3.9c-0.8-1.3-2.6-1.7-3.9-0.8S260.4,289.7,261.2,291z
		"/>
	<path class="st0" d="M181.1,188.5c0.9,1.3,2.6,1.7,3.9,0.9c1.3-0.9,1.7-2.6,0.9-3.9c-0.9-1.3-2.6-1.7-3.9-0.9
		C180.6,185.4,180.3,187.1,181.1,188.5z"/>
	<path class="st0" d="M187.5,87.5c0.9,1.3,2.6,1.7,3.9,0.9c1.3-0.9,1.7-2.6,0.9-3.9c-0.9-1.3-2.6-1.7-3.9-0.9
		C187,84.4,186.6,86.2,187.5,87.5z"/>
	<path class="st0" d="M231.9,250.3c0.9,1.3,2.6,1.7,4,0.9c1.3-0.9,1.7-2.6,0.9-4s-2.6-1.7-4-0.9C231.4,247.2,231,249,231.9,250.3z"
		/>
	<path class="st0" d="M153.3,117.9c0.9,1.3,2.6,1.7,4,0.9c1.3-0.9,1.7-2.6,0.9-4c-0.9-1.3-2.6-1.7-4-0.9
		C152.8,114.8,152.5,116.6,153.3,117.9z"/>
	<path class="st0" d="M128.1,228c0.9,1.3,2.6,1.7,4,0.9c1.3-0.9,1.7-2.6,0.9-4c-0.9-1.3-2.6-1.7-4-0.9
		C127.6,224.9,127.2,226.7,128.1,228z"/>
	<path class="st0" d="M183.5,198c0.9,1.3,2.6,1.7,4,0.9c1.3-0.9,1.7-2.6,0.9-4c-0.9-1.3-2.6-1.7-4-0.9
		C183,194.9,182.7,196.7,183.5,198z"/>
	<ellipse class="st0" cx="210.2" cy="80.2" rx="2.9" ry="2.9"/>
	<path class="st0" d="M166.1,53.1c0.9,1.3,2.6,1.7,4,0.9c1.3-0.9,1.7-2.6,0.9-4c-0.9-1.3-2.6-1.7-4-0.9
		C165.7,50,165.3,51.8,166.1,53.1z"/>
	<path class="st0" d="M228.1,122.5c0.9,1.3,2.6,1.7,4,0.9c1.3-0.9,1.7-2.6,0.9-4c-0.9-1.3-2.6-1.7-4-0.9
		C227.6,119.4,227.2,121.2,228.1,122.5z"/>
	<path class="st0" d="M225.1,25.5c0.9,1.3,2.6,1.7,4,0.9c1.3-0.9,1.7-2.6,0.9-4c-0.9-1.3-2.6-1.7-4-0.9
		C224.6,22.4,224.3,24.2,225.1,25.5z"/>
	<path class="st0" d="M204,264.2c0.9,1.3,2.6,1.7,4,0.9c1.3-0.9,1.7-2.6,0.9-4c-0.9-1.3-2.6-1.7-4-0.9
		C203.5,261.1,203.1,262.8,204,264.2z"/>
	<path class="st0" d="M179.1,159.1c0.9,1.3,2.7,1.7,4,0.9c1.3-0.9,1.7-2.7,0.9-4c-0.9-1.3-2.7-1.7-4-0.9
		C178.6,156,178.2,157.8,179.1,159.1z"/>
	<path class="st0" d="M198.6,18.8c0.9,1.3,2.7,1.7,4,0.9c1.3-0.9,1.7-2.7,0.9-4c-0.9-1.3-2.7-1.7-4-0.9
		C198.1,15.7,197.7,17.5,198.6,18.8z"/>
	<path class="st0" d="M277,319.5c0.9,1.4,2.7,1.7,4,0.9c1.4-0.9,1.7-2.7,0.9-4c-0.8-1.3-2.7-1.7-4-0.9
		C276.6,316.3,276.2,318.1,277,319.5z"/>
	<ellipse class="st0" cx="178.4" cy="197.5" rx="2.9" ry="2.9"/>
	<path class="st0" d="M168.7,167.3c0.9,1.4,2.7,1.7,4,0.9c1.4-0.9,1.7-2.7,0.9-4c-0.9-1.4-2.7-1.7-4-0.9
		C168.2,164.2,167.9,166,168.7,167.3z"/>
	<path class="st0" d="M146,140.1c0.9,1.4,2.7,1.7,4,0.9s1.7-2.7,0.9-4c-0.9-1.4-2.7-1.7-4-0.9C145.5,136.9,145.1,138.7,146,140.1z"
		/>
	<ellipse transform="matrix(0.8971 -0.4418 0.4418 0.8971 19.3059 90.0885)" class="st0" cx="203.1" cy="3.6" rx="2.9" ry="2.9"/>
	<path class="st0" d="M186.1,172.5c0.9,1.4,2.7,1.8,4,0.9c1.4-0.9,1.8-2.7,0.9-4c-0.9-1.4-2.7-1.8-4-0.9
		C185.6,169.4,185.2,171.2,186.1,172.5z"/>
	<path class="st0" d="M263.2,53.4c0.9,1.4,2.7,1.8,4.1,0.9s1.8-2.7,0.9-4.1s-2.7-1.8-4.1-0.9C262.7,50.2,262.3,52.1,263.2,53.4z"/>
	<path class="st0" d="M211.7,78.6c0.9,1.4,2.7,1.8,4.1,0.9s1.8-2.7,0.9-4.1s-2.7-1.8-4.1-0.9S210.8,77.3,211.7,78.6z"/>
	<path class="st0" d="M146.1,107.2c0.9,1.4,2.7,1.8,4.1,0.9s1.8-2.7,0.9-4.1s-2.7-1.8-4.1-0.9S145.2,105.8,146.1,107.2z"/>
	<path class="st0" d="M167.5,16.9c0.9,1.4,2.7,1.8,4.1,0.9s1.8-2.7,0.9-4.1c-0.9-1.4-2.7-1.8-4.1-0.9
		C167,13.7,166.6,15.6,167.5,16.9z"/>
	<path class="st0" d="M241.6,7.2c0.9,1.4,2.7,1.8,4.1,0.9c1.4-0.9,1.8-2.7,0.9-4.1c-0.9-1.4-2.7-1.8-4.1-0.9
		C241.1,3.9,240.7,5.8,241.6,7.2z"/>
	<path class="st0" d="M232.6,286.8c0.9,1.4,2.7,1.8,4.1,0.9s1.8-2.7,0.9-4.1s-2.7-1.8-4.1-0.9C232.1,283.6,231.7,285.4,232.6,286.8z
		"/>
	<path class="st0" d="M213.1,258.4c0.9,1.4,2.7,1.8,4.1,0.9s1.8-2.7,0.9-4.1s-2.7-1.8-4.1-0.9C212.6,255.1,212.2,257,213.1,258.4z"
		/>
	<path class="st0" d="M166.4,103.4c0.9,1.4,2.7,1.8,4.1,0.9s1.8-2.7,0.9-4.1s-2.7-1.8-4.1-0.9C166,100.2,165.6,102,166.4,103.4z"/>
	<path class="st0" d="M283.2,367.6L283.2,367.6v-3.3C282.6,365.2,282.5,366.5,283.2,367.6z"/>
	<path class="st0" d="M131.1,49.6c0.9,1.4,2.7,1.8,4.1,0.9s1.8-2.7,0.9-4.1s-2.7-1.8-4.1-0.9S130.2,48.2,131.1,49.6z"/>
	<path class="st0" d="M190.4,108.5c0.9,1.4,2.7,1.8,4.1,0.9s1.8-2.7,0.9-4.1s-2.7-1.8-4.1-0.9C189.9,105.3,189.5,107.2,190.4,108.5z
		"/>
	<path class="st0" d="M212.6,75.9c0.9,1.4,2.7,1.8,4.1,0.9s1.8-2.7,0.9-4.1s-2.7-1.8-4.1-0.9C212.1,72.7,211.7,74.5,212.6,75.9z"/>
	<path class="st0" d="M127.7,9.9c0.9,1.4,2.7,1.8,4.1,0.9c1.4-0.9,1.8-2.7,0.9-4.1c-0.9-1.4-2.7-1.8-4.1-0.9
		C127.2,6.7,126.8,8.5,127.7,9.9z"/>
	<path class="st0" d="M178,41.7c0.9,1.4,2.7,1.8,4.1,0.9s1.8-2.7,0.9-4.1s-2.7-1.8-4.1-0.9C177.5,38.4,177.1,40.3,178,41.7z"/>
	<path class="st0" d="M199.5,117.9c0.9,1.4,2.7,1.8,4.1,0.9s1.8-2.7,0.9-4.1s-2.7-1.8-4.1-0.9C199,114.7,198.6,116.6,199.5,117.9z"
		/>
	<path class="st0" d="M281.3,198.3c-1.4,0.9-1.8,2.7-0.9,4.1c0.6,1,1.7,1.5,2.8,1.4v-6C282.6,197.8,281.9,197.9,281.3,198.3z"/>
	<path class="st0" d="M233.8,176.4c0.9,1.4,2.8,1.8,4.1,0.9c1.4-0.9,1.8-2.8,0.9-4.1c-0.9-1.4-2.8-1.8-4.1-0.9
		C233.4,173.1,233,175,233.8,176.4z"/>
	<path class="st0" d="M153,30.8c0.9,1.4,2.8,1.8,4.1,0.9c1.4-0.9,1.8-2.8,0.9-4.1c-0.9-1.4-2.8-1.8-4.1-0.9
		C152.5,27.6,152.1,29.4,153,30.8z"/>
	<path class="st0" d="M168.4,223.5c0.9,1.4,2.8,1.8,4.1,0.9c1.4-0.9,1.8-2.8,0.9-4.1c-0.9-1.4-2.8-1.8-4.1-0.9
		C167.9,220.2,167.5,222.1,168.4,223.5z"/>
	<path class="st0" d="M63.6,18.4c0.9,1.4,2.8,1.8,4.1,0.9c1.4-0.9,1.8-2.8,0.9-4.1c-0.9-1.4-2.8-1.8-4.1-0.9
		C63.1,15.1,62.7,17,63.6,18.4z"/>
	<path class="st0" d="M162,10.9c0.9,1.4,2.8,1.8,4.2,0.9c1.4-0.9,1.8-2.8,0.9-4.2s-2.8-1.8-4.2-0.9C161.5,7.7,161.1,9.5,162,10.9z"
		/>
	<path class="st0" d="M30.8,15.3c0.9,1.4,2.8,1.8,4.2,0.9c1.4-0.9,1.8-2.8,0.9-4.2c-0.9-1.4-2.8-1.8-4.2-0.9
		C30.3,12.1,29.9,13.9,30.8,15.3z"/>
	<path class="st0" d="M269.9,238.6c0.9,1.4,2.8,1.8,4.2,0.9s1.8-2.8,0.9-4.2c-0.9-1.4-2.8-1.8-4.2-0.9
		C269.4,235.3,269,237.2,269.9,238.6z"/>
	<path class="st0" d="M183.6,276.1c0.9,1.4,2.8,1.8,4.2,0.9c1.4-0.9,1.8-2.8,0.9-4.2s-2.8-1.8-4.2-0.9
		C183.1,272.8,182.7,274.7,183.6,276.1z"/>
	<path class="st0" d="M209.2,352.2c0.9,1.4,2.8,1.8,4.2,0.9c1.4-0.9,1.8-2.8,0.9-4.2s-2.8-1.8-4.2-0.9
		C208.7,348.9,208.3,350.8,209.2,352.2z"/>
	<path class="st0" d="M100.6,117.6c0.9,1.4,2.8,1.8,4.2,0.9c1.4-0.9,1.8-2.8,0.9-4.2s-2.8-1.8-4.2-0.9
		C100.1,114.3,99.7,116.1,100.6,117.6z"/>
	<path class="st0" d="M229.9,169.7c0.9,1.4,2.8,1.8,4.2,0.9c1.4-0.9,1.8-2.8,0.9-4.2c-0.9-1.4-2.8-1.8-4.2-0.9
		C229.4,166.4,229,168.3,229.9,169.7z"/>
	<path class="st0" d="M92.7,87.9c0.9,1.4,2.8,1.8,4.2,0.9c1.4-0.9,1.8-2.8,0.9-4.2c-0.9-1.4-2.8-1.8-4.2-0.9
		C92.2,84.6,91.7,86.5,92.7,87.9z"/>
	<path class="st0" d="M237,108c0.9,1.4,2.8,1.8,4.2,0.9s1.8-2.8,0.9-4.2c-0.9-1.4-2.8-1.8-4.2-0.9C236.5,104.7,236.1,106.6,237,108z
		"/>
	<path class="st0" d="M103.3,112.5c0.9,1.4,2.8,1.8,4.2,0.9c1.4-0.9,1.8-2.8,0.9-4.2c-0.9-1.4-2.8-1.8-4.2-0.9
		C102.8,109.2,102.4,111.1,103.3,112.5z"/>
	<path class="st0" d="M210.9,318.5c0.9,1.4,2.8,1.8,4.2,0.9c1.4-0.9,1.8-2.8,0.9-4.2s-2.8-1.8-4.2-0.9
		C210.4,315.2,210,317.1,210.9,318.5z"/>
	<path class="st0" d="M188.8,167.4c0.9,1.4,2.8,1.8,4.2,0.9c1.4-0.9,1.8-2.8,0.9-4.2c-0.9-1.4-2.8-1.8-4.2-0.9
		C188.3,164.1,187.9,166,188.8,167.4z"/>
	<path class="st0" d="M237.9,45.3c0.9,1.4,2.8,1.8,4.2,0.9c1.4-0.9,1.8-2.8,0.9-4.2c-0.9-1.4-2.8-1.8-4.2-0.9
		C237.4,42,237,43.9,237.9,45.3z"/>
	<path class="st0" d="M160.2,28c0.9,1.4,2.8,1.8,4.3,0.9c1.4-0.9,1.8-2.8,0.9-4.3c-0.9-1.4-2.8-1.8-4.3-0.9
		C159.7,24.7,159.3,26.6,160.2,28z"/>
	<path class="st0" d="M255.2,394.7c0.9,1.4,2.8,1.8,4.3,0.9c1.4-0.9,1.8-2.8,0.9-4.3c-0.9-1.4-2.8-1.8-4.3-0.9
		C254.7,391.4,254.3,393.3,255.2,394.7z"/>
	<path class="st0" d="M151.1,38.7c0.9,1.4,2.8,1.8,4.3,0.9c1.4-0.9,1.8-2.8,0.9-4.3c-0.9-1.4-2.8-1.8-4.3-0.9
		C150.6,35.3,150.2,37.2,151.1,38.7z"/>
	<path class="st0" d="M263.1,14.9c0.9,1.4,2.8,1.9,4.3,0.9c1.4-0.9,1.9-2.8,0.9-4.3c-0.9-1.4-2.8-1.9-4.3-0.9
		C262.6,11.5,262.1,13.4,263.1,14.9z"/>
	<path class="st0" d="M221.7,110.7c0.9,1.4,2.8,1.9,4.3,0.9c1.4-0.9,1.9-2.8,0.9-4.3c-0.9-1.4-2.8-1.9-4.3-0.9
		C221.2,107.3,220.8,109.3,221.7,110.7z"/>
	<path class="st0" d="M127.5,60.1c0.9,1.4,2.8,1.9,4.3,0.9c1.4-0.9,1.9-2.8,0.9-4.3c-0.9-1.4-2.8-1.9-4.3-0.9
		C127,56.8,126.6,58.7,127.5,60.1z"/>
	<path class="st0" d="M169.3,13.3c0.9,1.4,2.9,1.9,4.3,0.9c1.4-0.9,1.9-2.9,0.9-4.3c-0.9-1.4-2.9-1.9-4.3-0.9
		C168.8,9.9,168.4,11.8,169.3,13.3z"/>
	<path class="st0" d="M201.6,343.1c0.9,1.4,2.9,1.9,4.3,0.9c1.4-0.9,1.9-2.9,0.9-4.3c-0.9-1.4-2.9-1.9-4.3-0.9
		C201,339.7,200.6,341.6,201.6,343.1z"/>
	<path class="st0" d="M261,300.6c0.9,1.5,2.9,1.9,4.3,0.9c1.5-0.9,1.9-2.9,0.9-4.3c-0.9-1.4-2.9-1.9-4.3-0.9S260,299.1,261,300.6z"
		/>
	<path class="st0" d="M137,92c0.9,1.5,2.9,1.9,4.3,0.9c1.5-0.9,1.9-2.9,0.9-4.3c-0.9-1.5-2.9-1.9-4.3-0.9
		C136.4,88.6,136,90.5,137,92z"/>
	<path class="st0" d="M98,45.2c0.9,1.5,2.9,1.9,4.3,0.9c1.5-0.9,1.9-2.9,0.9-4.3c-0.9-1.5-2.9-1.9-4.3-0.9
		C97.5,41.8,97.1,43.7,98,45.2z"/>
	<path class="st0" d="M277.3,236.5c0.9,1.5,2.9,1.9,4.3,0.9c1.5-0.9,1.9-2.9,0.9-4.3s-2.9-1.9-4.3-0.9
		C276.8,233.1,276.4,235,277.3,236.5z"/>
	<path class="st0" d="M246.2,126.2c0.9,1.5,2.9,1.9,4.3,0.9c1.5-0.9,1.9-2.9,0.9-4.3c-0.9-1.5-2.9-1.9-4.3-0.9
		C245.7,122.8,245.3,124.8,246.2,126.2z"/>
	<path class="st0" d="M215.7,49.4c0.9,1.5,2.9,1.9,4.3,0.9c1.5-0.9,1.9-2.9,0.9-4.3c-0.9-1.5-2.9-1.9-4.3-0.9
		C215.2,46,214.7,48,215.7,49.4z"/>
	<path class="st0" d="M152.3,86.8c0.9,1.5,2.9,1.9,4.3,0.9c1.5-0.9,1.9-2.9,0.9-4.3c-0.9-1.5-2.9-1.9-4.3-0.9
		C151.8,83.4,151.4,85.4,152.3,86.8z"/>
	<path class="st0" d="M205.8,359.3c0.9,1.5,2.9,1.9,4.3,0.9c1.5-0.9,1.9-2.9,0.9-4.3c-0.9-1.5-2.9-1.9-4.3-0.9
		C205.3,355.9,204.8,357.9,205.8,359.3z"/>
	<path class="st0" d="M204.2,358c0.9,1.5,2.9,1.9,4.3,0.9c1.5-0.9,1.9-2.9,0.9-4.3c-0.9-1.5-2.9-1.9-4.3-0.9
		C203.6,354.6,203.2,356.6,204.2,358z"/>
	<path class="st0" d="M271.2,268.2c0.9,1.5,2.9,1.9,4.3,0.9c1.5-0.9,1.9-2.9,0.9-4.3c-0.9-1.5-2.9-1.9-4.3-0.9
		C270.6,264.8,270.2,266.7,271.2,268.2z"/>
	<path class="st0" d="M56.7,130.6c0.9,1.5,2.9,1.9,4.3,0.9c1.5-0.9,1.9-2.9,0.9-4.3c-0.9-1.5-2.9-1.9-4.3-0.9
		C56.2,127.2,55.8,129.1,56.7,130.6z"/>
	<path class="st0" d="M202.5,18.5c0.9,1.5,2.9,1.9,4.4,0.9c1.5-0.9,1.9-2.9,0.9-4.4c-0.9-1.5-2.9-1.9-4.4-0.9
		C202,15,201.5,17,202.5,18.5z"/>
	<path class="st0" d="M182.5,56.2c0.9,1.5,2.9,1.9,4.4,0.9c1.5-0.9,1.9-2.9,0.9-4.4c-0.9-1.5-2.9-1.9-4.4-0.9
		C181.9,52.8,181.5,54.7,182.5,56.2z"/>
	<path class="st0" d="M65.3,114.6c0.9,1.5,2.9,1.9,4.4,0.9s1.9-2.9,0.9-4.4c-0.9-1.5-2.9-1.9-4.4-0.9
		C64.8,111.2,64.3,113.2,65.3,114.6z"/>
	<path class="st0" d="M161.2,23.6c0.9,1.5,2.9,1.9,4.4,1s1.9-2.9,1-4.4s-2.9-1.9-4.4-1C160.7,20.2,160.2,22.2,161.2,23.6z"/>
	<path class="st0" d="M237.5,255.9c0.9,1.5,2.9,1.9,4.4,1s1.9-2.9,1-4.4s-2.9-1.9-4.4-1S236.6,254.4,237.5,255.9z"/>
	<path class="st0" d="M283.2,32.9v-1.2C283.2,32.1,283.2,32.5,283.2,32.9z"/>
	<path class="st0" d="M199.1,319.2c1,1.5,2.9,1.9,4.4,1c1.5-1,1.9-2.9,1-4.4c-1-1.5-2.9-1.9-4.4-1
		C198.6,315.8,198.1,317.7,199.1,319.2z"/>
	<path class="st0" d="M55.6,25.8c1,1.5,2.9,1.9,4.4,1c1.5-1,1.9-2.9,1-4.4c-1-1.5-2.9-1.9-4.4-1C55.1,22.4,54.6,24.4,55.6,25.8z"/>
	<path class="st0" d="M207.8,339.5c1,1.5,2.9,1.9,4.4,1c1.5-1,1.9-2.9,1-4.4c-1-1.5-2.9-1.9-4.4-1S206.9,338,207.8,339.5z"/>
	<path class="st0" d="M263,360.3c1,1.5,2.9,1.9,4.4,1c1.5-1,1.9-2.9,1-4.4c-1-1.5-2.9-1.9-4.4-1C262.5,356.9,262.1,358.8,263,360.3z
		"/>
	<path class="st0" d="M247.2,371.8c1,1.5,2.9,1.9,4.4,1c1.5-1,1.9-2.9,1-4.4c-1-1.5-2.9-1.9-4.4-1S246.2,370.3,247.2,371.8z"/>
	<path class="st0" d="M272.7,334.2c1,1.5,2.9,1.9,4.4,1c1.5-1,1.9-2.9,1-4.4c-1-1.5-2.9-1.9-4.4-1S271.7,332.7,272.7,334.2z"/>
	<path class="st0" d="M247.7,7c1,1.5,3,1.9,4.5,1c1.5-1,1.9-3,1-4.5c-1-1.5-3-1.9-4.5-1C247.2,3.5,246.7,5.5,247.7,7z"/>
	<path class="st0" d="M214.6,0.2c1,1.5,3,1.9,4.5,1c0.4-0.3,0.8-0.7,1-1.1h-5.6C214.6,0.1,214.6,0.2,214.6,0.2z"/>
	<path class="st0" d="M207,311.4c1,1.5,3,1.9,4.5,1c1.5-1,1.9-3,1-4.5c-1-1.5-3-1.9-4.5-1C206.5,307.9,206.1,309.9,207,311.4z"/>
	<path class="st0" d="M151.3,196.6c1,1.5,3,1.9,4.5,1c1.5-1,1.9-3,1-4.5c-1-1.5-3-1.9-4.5-1S150.3,195,151.3,196.6z"/>
	<path class="st0" d="M178.6,140.5c1,1.5,3,2,4.5,1s2-3,1-4.5s-3-2-4.5-1C178,137,177.6,139,178.6,140.5z"/>
	<path class="st0" d="M138.8,82.9c1,1.5,3,2,4.5,1s2-3,1-4.5s-3-2-4.5-1C138.2,79.3,137.8,81.4,138.8,82.9z"/>
	<path class="st0" d="M99,68.2c1,1.5,3,2,4.5,1s2-3,1-4.5s-3-2-4.5-1C98.4,64.7,98,66.7,99,68.2z"/>
	<path class="st0" d="M123.1,70.1c1,1.5,3,2,4.5,1c1.5-1,2-3,1-4.5c-1-1.5-3-2-4.5-1C122.5,66.6,122.1,68.6,123.1,70.1z"/>
	<path class="st0" d="M174.9,78.1c1,1.5,3,2,4.6,1c1.5-1,2-3,1-4.6c-1-1.5-3-2-4.6-1C174.4,74.5,174,76.6,174.9,78.1z"/>
	<path class="st0" d="M215.1,3.8c1,1.5,3,2,4.6,1c1.5-1,2-3,1-4.6l-0.1-0.1h-5.4C214.4,1.1,214.3,2.6,215.1,3.8z"/>
	<path class="st0" d="M206.1,81.6c1,1.5,3,2,4.6,1s2-3,1-4.6c-1-1.5-3-2-4.6-1C205.6,78,205.1,80.1,206.1,81.6z"/>
	<path class="st0" d="M144.2,61.1c1,1.5,3.1,2,4.6,1s2-3.1,1-4.6s-3.1-2-4.6-1S143.2,59.6,144.2,61.1z"/>
	<path class="st0" d="M120.7,110.6c1,1.6,3.1,2,4.6,1c1.6-1,2-3.1,1-4.6c-1-1.6-3.1-2-4.6-1C120.1,107,119.7,109.1,120.7,110.6z"/>
	<path class="st0" d="M151.3,152.2c1,1.6,3.1,2,4.6,1c1.6-1,2-3.1,1-4.6c-1-1.6-3.1-2-4.6-1S150.3,150.7,151.3,152.2z"/>
	<path class="st0" d="M100.5,152.2c1,1.6,3.1,2,4.6,1c1.6-1,2-3.1,1-4.6c-1-1.6-3.1-2-4.6-1C99.9,148.5,99.5,150.6,100.5,152.2z"/>
	<path class="st0" d="M214.8,124.8c1,1.6,3.1,2,4.6,1c1.6-1,2-3.1,1-4.6c-1-1.6-3.1-2-4.6-1C214.2,121.2,213.8,123.3,214.8,124.8z"
		/>
	<path class="st0" d="M115.7,27.4c1,1.6,3.1,2,4.7,1s2-3.1,1-4.7s-3.1-2-4.7-1C115.1,23.7,114.7,25.8,115.7,27.4z"/>
	<path class="st0" d="M237.2,194.9c1,1.6,3.1,2,4.7,1s2-3.1,1-4.7s-3.1-2-4.7-1C236.7,191.2,236.2,193.3,237.2,194.9z"/>
	<path class="st0" d="M164.4,91c1,1.6,3.1,2,4.7,1s2-3.1,1-4.7s-3.1-2-4.7-1C163.8,87.4,163.4,89.5,164.4,91z"/>
	<path class="st0" d="M105.8,140.5c1,1.6,3.1,2,4.7,1s2-3.1,1-4.7s-3.1-2-4.7-1C105.2,136.8,104.7,138.9,105.8,140.5z"/>
	<path class="st0" d="M206.7,140.4c1,1.6,3.1,2,4.7,1s2-3.1,1-4.7s-3.1-2-4.7-1C206.1,136.7,205.7,138.8,206.7,140.4z"/>
	<path class="st0" d="M99.4,162.2c1,1.6,3.1,2,4.7,1s2-3.1,1-4.7s-3.1-2-4.7-1C98.9,158.6,98.4,160.7,99.4,162.2z"/>
	<path class="st0" d="M222.5,63c1,1.6,3.1,2,4.7,1s2-3.1,1-4.7s-3.1-2-4.7-1C221.9,59.3,221.5,61.4,222.5,63z"/>
	<path class="st0" d="M263.6,214.5c1,1.6,3.2,2.1,4.7,1c1.6-1,2.1-3.2,1-4.7c-1-1.6-3.2-2.1-4.7-1
		C263.1,210.7,262.6,212.9,263.6,214.5z"/>
	<path class="st0" d="M228.1,139.8c1,1.6,3.2,2.1,4.8,1c1.6-1,2.1-3.2,1-4.8c-1-1.6-3.2-2.1-4.8-1
		C227.5,136.1,227,138.2,228.1,139.8z"/>
	<path class="st0" d="M234.9,126.1c1,1.6,3.2,2.1,4.8,1c1.6-1,2.1-3.2,1-4.8c-1-1.6-3.2-2.1-4.8-1
		C234.3,122.4,233.9,124.5,234.9,126.1z"/>
	<path class="st0" d="M107.3,44.7c1,1.6,3.2,2.1,4.8,1c1.6-1,2.1-3.2,1-4.8c-1-1.6-3.2-2.1-4.8-1C106.8,40.9,106.3,43.1,107.3,44.7z
		"/>
	<path class="st0" d="M267.9,443.1c1,1.6,3.2,2.1,4.8,1c1.6-1,2.1-3.2,1-4.8c-1-1.6-3.2-2.1-4.8-1
		C267.4,439.4,266.9,441.5,267.9,443.1z"/>
	<path class="st0" d="M122.1,169.4c1,1.6,3.2,2.1,4.8,1c1.6-1,2.1-3.2,1-4.8c-1-1.6-3.2-2.1-4.8-1
		C121.6,165.6,121.1,167.8,122.1,169.4z"/>
	<path class="st0" d="M223.2,14.6c1,1.6,3.2,2.1,4.8,1c1.6-1,2.1-3.2,1-4.8c-1-1.6-3.2-2.1-4.8-1C222.6,10.9,222.1,13,223.2,14.6z"
		/>
	<path class="st0" d="M182.6,8.4c1,1.6,3.2,2.1,4.8,1c1.6-1,2.1-3.2,1-4.8c-1-1.6-3.2-2.1-4.8-1C182,4.7,181.5,6.8,182.6,8.4z"/>
	<path class="st0" d="M201.3,118.4c1,1.6,3.2,2.1,4.8,1c1.6-1,2.1-3.2,1-4.8c-1-1.6-3.2-2.1-4.8-1
		C200.7,114.6,200.3,116.7,201.3,118.4z"/>
	<path class="st0" d="M100.5,15.1c1,1.6,3.2,2.1,4.9,1.1c1.6-1,2.1-3.2,1.1-4.9c-1-1.6-3.2-2.1-4.9-1.1
		C99.9,11.3,99.4,13.5,100.5,15.1z"/>
	<path class="st0" d="M238.5,5.8c1.1,1.6,3.2,2.1,4.9,1.1c1.6-1.1,2.1-3.2,1.1-4.9c-1.1-1.6-3.2-2.1-4.9-1.1
		C237.9,2,237.4,4.2,238.5,5.8z"/>
	<path class="st0" d="M265.7,245.7c1.1,1.6,3.2,2.1,4.9,1.1c1.6-1.1,2.1-3.2,1.1-4.9c-1.1-1.6-3.2-2.1-4.9-1.1
		C265.2,241.9,264.7,244.1,265.7,245.7z"/>
	<path class="st0" d="M238.2,29.8c1.1,1.6,3.2,2.1,4.9,1.1c1.6-1.1,2.1-3.2,1.1-4.9c-1.1-1.6-3.2-2.1-4.9-1.1
		C237.6,26,237.1,28.2,238.2,29.8z"/>
	<path class="st0" d="M54.4,143c1.1,1.6,3.2,2.1,4.9,1.1c1.6-1.1,2.1-3.2,1.1-4.9c-1.1-1.6-3.2-2.1-4.9-1.1
		C53.8,139.2,53.3,141.4,54.4,143z"/>
	<path class="st0" d="M149.3,0.1h-1.7C148.2,0.2,148.8,0.2,149.3,0.1z"/>
	<path class="st0" d="M-5.1,103.9c1.1,1.7,3.3,2.1,4.9,1.1c1.7-1.1,2.1-3.3,1.1-4.9C-0.2,98.4-2.4,98-4,99
		C-5.7,100.1-6.2,102.3-5.1,103.9z"/>
	<path class="st0" d="M245.6,16c1.1,1.7,3.3,2.1,4.9,1.1c1.7-1.1,2.1-3.3,1.1-4.9c-1.1-1.7-3.3-2.1-4.9-1.1S244.5,14.4,245.6,16z"/>
	<path class="st0" d="M146.2,196.7c1.1,1.7,3.3,2.2,5,1.1s2.2-3.3,1.1-5s-3.3-2.2-5-1.1C145.6,192.7,145.2,195,146.2,196.7z"/>
	<path class="st0" d="M145.1,111.9c1.1,1.7,3.3,2.2,5,1.1s2.2-3.3,1.1-5s-3.3-2.2-5-1.1S144,110.2,145.1,111.9z"/>
	<path class="st0" d="M220.2,93.8c1.1,1.7,3.3,2.2,5,1.1s2.2-3.3,1.1-5s-3.3-2.2-5-1.1C219.6,89.8,219.1,92.1,220.2,93.8z"/>
	<path class="st0" d="M179,25.9c1.1,1.7,3.4,2.2,5.1,1.1s2.2-3.4,1.1-5.1s-3.4-2.2-5.1-1.1C178.4,21.9,177.9,24.2,179,25.9z"/>
	<path class="st0" d="M130.9,116.4c1.1,1.7,3.4,2.2,5.1,1.1s2.2-3.4,1.1-5.1s-3.4-2.2-5.1-1.1S129.8,114.6,130.9,116.4z"/>
	<path class="st0" d="M199.9,40.8c1.1,1.7,3.4,2.2,5.2,1.1c1.7-1.1,2.2-3.4,1.1-5.2c-1.1-1.7-3.4-2.2-5.2-1.1
		C199.3,36.8,198.8,39.1,199.9,40.8z"/>
	<path class="st0" d="M279.9,315c-1.7,1.1-2.2,3.4-1.1,5.2c1,1.5,2.8,2.1,4.5,1.5v-7C282.2,314.3,280.9,314.4,279.9,315z"/>
	<path class="st0" d="M131.4,21.8c1.1,1.7,3.4,2.2,5.2,1.1c1.7-1.1,2.2-3.4,1.1-5.2c-1.1-1.7-3.4-2.2-5.2-1.1
		C130.8,17.7,130.3,20,131.4,21.8z"/>
	<path class="st0" d="M167.1,41.3c1.1,1.8,3.5,2.3,5.2,1.1c1.8-1.1,2.3-3.5,1.1-5.2c-1.1-1.8-3.5-2.3-5.2-1.1
		C166.5,37.2,166,39.5,167.1,41.3z"/>
	<path class="st0" d="M215.7,116.3c1.1,1.8,3.5,2.3,5.2,1.1c1.8-1.1,2.3-3.5,1.1-5.2c-1.1-1.8-3.5-2.3-5.2-1.1
		C215,112.2,214.5,114.5,215.7,116.3z"/>
	<path class="st0" d="M127.7,59.1c1.1,1.8,3.5,2.3,5.3,1.1c1.8-1.1,2.3-3.5,1.1-5.3c-1.1-1.8-3.5-2.3-5.3-1.1
		C127.1,54.9,126.6,57.3,127.7,59.1z"/>
	<path class="st0" d="M208.9,158.1c-0.5,0.2-0.8,0.8-0.7,1.3c0.2,0.5,0.8,0.8,1.3,0.7l17.9-5.7c0.5-0.2,0.8-0.8,0.7-1.3
		c-0.2-0.5-0.8-0.8-1.3-0.7L208.9,158.1z"/>
	<path class="st0" d="M165.6,68l-9.7,15.3c-0.3,0.5-0.2,1.1,0.3,1.4s1.1,0.2,1.4-0.3l9.7-15.3c0.3-0.5,0.2-1.1-0.3-1.4
		C166.6,67.4,165.9,67.5,165.6,68z"/>
	<path class="st1" d="M172.1,61.9L156,83.2c-0.3,0.5-0.3,1.1,0.2,1.5c0.5,0.3,1.1,0.3,1.5-0.2l16.1-21.3c0.3-0.5,0.3-1.1-0.2-1.5
		C173.1,61.4,172.4,61.5,172.1,61.9z"/>
	<path class="st2" d="M226.1,153c-0.2,0.5,0,1.1,0.6,1.4l56.5,23.5v-2.2l-55.8-23.2C226.9,152.2,226.3,152.5,226.1,153z"/>
	<path class="st0" d="M184.2,151.2l-1.5,10.9c-0.1,0.6,0.3,1.1,0.9,1.1c0.6,0.1,1.1-0.3,1.1-0.9l1.5-10.9c0.1-0.6-0.3-1.1-0.9-1.2
		C184.8,150.2,184.3,150.6,184.2,151.2z"/>
	<path class="st0" d="M175.2,139.5l9.2,12.4c0.3,0.5,1,0.6,1.5,0.2c0.5-0.3,0.6-1,0.2-1.5l-9.2-12.4c-0.3-0.5-1-0.6-1.5-0.2
		C175,138.4,174.9,139,175.2,139.5z"/>
	<path class="st0" d="M165.8,67.8c-0.4,0.4-0.4,1,0,1.5c0.4,0.4,1,0.4,1.5,0l6.4-6c0.4-0.4,0.4-1,0-1.5c-0.4-0.4-1-0.4-1.5,0
		L165.8,67.8z"/>
	<path class="st3" d="M131.8,92.6c-0.5,0.3-0.6,1-0.2,1.4c0.3,0.5,1,0.6,1.4,0.2l34-24.9c0.5-0.3,0.5-1,0.2-1.5
		c-0.3-0.4-1-0.5-1.4-0.2L131.8,92.6z"/>
	<path class="st0" d="M175.1,139.2l7.7,23.3c0.2,0.5,0.8,0.8,1.3,0.6c0.5-0.2,0.8-0.7,0.6-1.3l-7.7-23.3c-0.2-0.5-0.8-0.8-1.3-0.7
		C175.2,138.1,174.9,138.7,175.1,139.2z"/>
	<path class="st4" d="M131.8,92.6c-0.4,0.4-0.5,1-0.2,1.5c0.3,0.4,1,0.5,1.4,0.2l40.5-30.9c0.5-0.3,0.5-1,0.2-1.5s-1-0.5-1.5-0.2
		L131.8,92.6z"/>
	<path class="st0" d="M249.7,245l-1.5,33c0,0.6,0.4,1.1,1,1.1s1.1-0.4,1.1-1l1.5-33c0-0.6-0.4-1-1-1.1
		C250.2,244.1,249.8,244.5,249.7,245z"/>
	<path class="st0" d="M248.5,277.4c-0.3,0.4-0.3,1.1,0.2,1.4l14.3,11.4c0.5,0.4,1.1,0.3,1.5-0.2c0.3-0.4,0.3-1.1-0.2-1.4L250,277.2
		C249.5,276.9,248.8,277,248.5,277.4z"/>
	<path class="st0" d="M262.7,290c0.3,0.5,0.9,0.7,1.4,0.4l19.1-10.3v-2.4l-20.1,10.8C262.6,288.9,262.4,289.5,262.7,290z"/>
	<path class="st0" d="M182.5,186.8l-4.2,39.5c-0.1,0.6,0.4,1.1,0.9,1.1c0.6,0.1,1.1-0.4,1.1-0.9l4.2-39.5c0.1-0.6-0.4-1.1-0.9-1.1
		C183,185.8,182.5,186.2,182.5,186.8z"/>
	<path class="st0" d="M234,247.7c-0.6,0.1-0.9,0.7-0.8,1.2s0.7,0.9,1.2,0.8l16.5-3.7c0.6-0.1,0.9-0.7,0.8-1.2s-0.7-0.9-1.2-0.8
		L234,247.7z"/>
	<path class="st0" d="M182.5,187.2l2.4,9.5c0.1,0.6,0.7,0.9,1.3,0.8c0.6-0.1,0.9-0.7,0.8-1.3l-2.4-9.5c-0.1-0.6-0.7-0.9-1.3-0.8
		C182.7,186.1,182.4,186.6,182.5,187.2z"/>
	<path class="st0" d="M155,115.6c-0.4,0.4-0.5,1-0.1,1.5s1,0.5,1.5,0.1l34.1-30.4c0.4-0.4,0.5-1,0.1-1.5c-0.4-0.4-1-0.5-1.5-0.1
		L155,115.6z"/>
	<path class="st0" d="M189.6,85c-0.5,0.2-0.9,0.8-0.7,1.3c0.2,0.5,0.7,0.8,1.2,0.7l20.5-5.7c0.6-0.2,0.9-0.7,0.7-1.3
		c-0.2-0.6-0.7-0.9-1.3-0.7L189.6,85z"/>
	<path class="st5" d="M189.2,86.7l40.7,35c0.4,0.4,1.1,0.3,1.5-0.1s0.3-1.1-0.1-1.5l-40.7-35c-0.4-0.4-1.1-0.3-1.5,0.1
		C188.7,85.7,188.7,86.4,189.2,86.7z"/>
	<path class="st0" d="M206,261.7c-0.5,0.3-0.7,0.9-0.5,1.4c0.3,0.5,0.9,0.7,1.4,0.5l27.8-13.9c0.5-0.3,0.7-0.9,0.5-1.4
		c-0.3-0.5-0.9-0.7-1.4-0.5L206,261.7z"/>
	<path class="st6" d="M184.9,196.8l20.5,66.2c0.2,0.5,0.8,0.8,1.3,0.7c0.5-0.2,0.8-0.7,0.7-1.3l-20.5-66.2c-0.2-0.5-0.8-0.9-1.3-0.7
		C185.1,195.6,184.8,196.2,184.9,196.8z"/>
	<path class="st0" d="M209.4,80.7l20.2,40.7c0.3,0.5,0.9,0.7,1.4,0.5c0.5-0.3,0.7-0.9,0.5-1.4l-20.2-40.7c-0.3-0.5-0.9-0.7-1.4-0.4
		C209.4,79.6,209.2,80.2,209.4,80.7z"/>
	<path class="st0" d="M200,17c-0.1,0.6,0.2,1.1,0.8,1.3l26.5,6.7c0.6,0.1,1.1-0.2,1.3-0.8c0.1-0.6-0.2-1.1-0.8-1.3l-26.5-6.7
		C200.7,16.1,200.1,16.5,200,17z"/>
	<path class="st7" d="M278.5,318c0.1,0.6,0.6,1,1.2,0.9l3.6-0.4v-2.1l-3.9,0.5C278.8,316.9,278.4,317.4,278.5,318z"/>
	<path class="st0" d="M170.5,164.9c-0.4,0.4-0.5,1-0.2,1.5c0.4,0.4,1,0.5,1.5,0.2l10.3-8.2c0.4-0.4,0.5-1,0.1-1.5
		c-0.4-0.4-1-0.5-1.4-0.2L170.5,164.9z"/>
	<path class="st0" d="M202,3.4l-2.1,13.7c-0.1,0.6,0.3,1.1,0.9,1.2s1.1-0.3,1.2-0.9l2.1-13.7c0.1-0.6-0.3-1.1-0.9-1.2
		C202.7,2.5,202.1,2.9,202,3.4z"/>
	<path class="st0" d="M180.6,158.1l7,13.4c0.3,0.5,0.9,0.7,1.4,0.4c0.5-0.3,0.7-0.9,0.4-1.4l-7-13.4c-0.3-0.5-0.9-0.7-1.4-0.4
		C180.5,156.9,180.3,157.6,180.6,158.1z"/>
	<path class="st8" d="M264.7,51.7c-0.1,0.6,0.4,1.1,0.9,1.1l17.6,1.8v-2.1l-17.4-1.8C265.2,50.7,264.7,51.2,264.7,51.7z"/>
	<path class="st0" d="M202.2,4.2c0.3,0.5,1,0.6,1.4,0.2c0.5-0.3,0.6-1,0.2-1.4l-2.1-2.9h-2.5L202.2,4.2z"/>
	<path class="st0" d="M187.6,170.6l-10,26.6c-0.2,0.5,0.1,1.1,0.6,1.3c0.5,0.2,1.1-0.1,1.3-0.6l10-26.6c0.2-0.5-0.1-1.1-0.6-1.3
		C188.3,169.8,187.8,170.1,187.6,170.6z"/>
	<path class="st0" d="M170.2,165.5c-0.2,0.5,0.1,1.1,0.7,1.3l17.4,5.2c0.5,0.2,1.1-0.1,1.3-0.7c0.2-0.5-0.1-1.1-0.7-1.3l-17.3-5.2
		C170.9,164.6,170.3,164.9,170.2,165.5z"/>
	<path class="st0" d="M264.9,52.5c0.4,0.4,1,0.5,1.5,0.2L283.3,39v-2.7l-18.2,14.8C264.6,51.4,264.5,52,264.9,52.5z"/>
	<path class="st9" d="M202.1,3.6c0,0.5,0.4,0.9,0.9,1l41,2c0.6,0,1.1-0.4,1.1-1s-0.4-1-1-1.1l-41-2C202.5,2.6,202.1,3,202.1,3.6z"/>
	<path class="st10" d="M243.1,6l21.6,46.3c0.2,0.5,0.9,0.7,1.4,0.5s0.7-0.9,0.5-1.4L245,5.1c-0.2-0.5-0.9-0.7-1.4-0.5
		C243.1,4.9,242.9,5.5,243.1,6z"/>
	<path class="st0" d="M148.4,104.6c-0.6,0.1-0.9,0.7-0.8,1.2s0.6,0.9,1.2,0.8l20.3-3.8c0.6-0.1,0.9-0.7,0.8-1.2
		c-0.1-0.6-0.6-0.9-1.2-0.8L148.4,104.6z"/>
	<path class="st0" d="M214.1,74l-0.9,2.7c-0.2,0.5,0.1,1.1,0.6,1.3c0.5,0.2,1.1-0.1,1.3-0.6l0.9-2.7c0.2-0.5-0.1-1.1-0.7-1.3
		C214.9,73.2,214.3,73.4,214.1,74z"/>
	<path class="st0" d="M214.8,257.3l19.4,28.5c0.3,0.5,1,0.6,1.4,0.3c0.5-0.3,0.6-1,0.3-1.4l-19.5-28.4c-0.3-0.5-1-0.6-1.4-0.3
		C214.6,256.2,214.5,256.9,214.8,257.3z"/>
	<path class="st0" d="M169,15.7l10.6,24.7c0.2,0.5,0.8,0.8,1.4,0.5c0.5-0.2,0.8-0.8,0.5-1.4l-10.6-24.7c-0.2-0.5-0.8-0.8-1.4-0.6
		C169,14.6,168.8,15.2,169,15.7z"/>
	<path class="st0" d="M168,101.6c-0.1,0.5,0.2,1.1,0.8,1.2l24,5.1c0.6,0.1,1.1-0.3,1.2-0.8s-0.2-1.1-0.8-1.2l-24-5.1
		C168.6,100.7,168.1,101,168,101.6z"/>
	<path class="st0" d="M168,101.4c-0.2,0.5,0,1.1,0.5,1.4l33.1,14.5c0.5,0.2,1.1,0,1.4-0.5c0.2-0.5,0-1.1-0.5-1.4l-33.1-14.5
		C168.8,100.6,168.2,100.8,168,101.4z"/>
	<path class="st0" d="M192.2,107.6l9.1,9.4c0.4,0.4,1.1,0.4,1.5,0s0.4-1,0-1.4l-9.1-9.4c-0.4-0.4-1.1-0.4-1.5,0
		S191.8,107.2,192.2,107.6z"/>
	<path class="st0" d="M282.3,201.6c0.3,0.2,0.6,0.3,0.9,0.2V199l-1,1.1C281.8,200.5,281.8,201.2,282.3,201.6z"/>
	<path class="st0" d="M65.1,16.6c0,0.6,0.4,1.1,0.9,1.1c0.6,0,1.1-0.4,1.1-0.9l1.4-16.7h-2.1L65.1,16.6z"/>
	<path class="st0" d="M32.8,12.8c-0.5,0.3-0.7,0.9-0.4,1.4c0.3,0.5,0.9,0.7,1.4,0.4L60.5,0.1h-4.3L32.8,12.8z"/>
	<path class="st0" d="M154.6,28.9c-0.2,0.5,0,1,0.5,1.3L180.2,41c0.5,0.2,1.1,0,1.3-0.6c0.2-0.5,0-1.1-0.5-1.3l-25.1-10.8
		C155.4,28.1,154.8,28.3,154.6,28.9z"/>
	<path class="st0" d="M163.6,8.9l-9.1,19.9c-0.2,0.5,0,1.1,0.6,1.4c0.5,0.2,1.1,0,1.3-0.5l9.1-19.9c0.2-0.5,0-1.1-0.6-1.4
		C164.4,8.2,163.9,8.4,163.6,8.9z"/>
	<path class="st0" d="M32.3,13.6c-0.1,0.6,0.4,1.1,0.9,1.1l32.7,3c0.6,0.1,1.1-0.4,1.1-0.9c0.1-0.6-0.4-1.1-0.9-1.1l-32.7-3
		C32.9,12.6,32.4,13,32.3,13.6z"/>
	<path class="st0" d="M163.7,8.8c-0.3,0.5-0.2,1.1,0.3,1.4s1.1,0.2,1.4-0.3l6.1-9.8h-2.4L163.7,8.8z"/>
	<path class="st0" d="M282,200.5l-10.5,36.2c-0.2,0.6,0.2,1.1,0.7,1.3c0.6,0.2,1.1-0.2,1.3-0.7l9.8-33.7v-3.7l0,0
		C282.7,199.7,282.1,200,282,200.5z"/>
	<path class="st11" d="M235.5,175.3l36.1,62.2c0.3,0.5,0.9,0.7,1.4,0.4c0.5-0.3,0.7-0.9,0.4-1.4l-36.1-62.2
		c-0.3-0.5-0.9-0.6-1.4-0.3C235.4,174.2,235.2,174.8,235.5,175.3z"/>
	<path class="st12" d="M170,222.1l15.2,52.6c0.2,0.5,0.7,0.9,1.3,0.7c0.5-0.2,0.8-0.7,0.7-1.3L172,221.5c-0.2-0.6-0.7-0.9-1.3-0.7
		C170.1,221,169.8,221.6,170,222.1z"/>
	<path class="st13" d="M231.6,168.5l3.9,6.7c0.3,0.5,0.9,0.6,1.4,0.3c0.5-0.3,0.6-0.9,0.4-1.4l-3.9-6.7c-0.3-0.5-0.9-0.6-1.4-0.3
		C231.5,167.5,231.3,168.1,231.6,168.5z"/>
	<path class="st14" d="M185.3,275l27.4,42.4c0.3,0.5,1,0.6,1.4,0.3c0.5-0.3,0.6-1,0.3-1.4L187,273.9c-0.3-0.5-1-0.6-1.4-0.3
		C185.1,273.9,184.9,274.6,185.3,275z"/>
	<path class="st0" d="M212.5,316.8l-1.7,33.7c0,0.6,0.4,1.1,1,1.1s1.1-0.4,1.1-1l1.7-33.7c0-0.6-0.4-1.1-1-1.1
		S212.5,316.3,212.5,316.8z"/>
	<path class="st0" d="M94.2,86.5l8,29.7c0.2,0.6,0.7,0.9,1.3,0.7c0.5-0.2,0.9-0.7,0.7-1.3l-8-29.7c-0.2-0.6-0.7-0.9-1.3-0.7
		C94.4,85.4,94.1,86,94.2,86.5z"/>
	<path class="st15" d="M211.1,351.3l46,42.5c0.4,0.4,1.1,0.3,1.5-0.1s0.3-1.1-0.1-1.4l-46-42.5c-0.4-0.4-1.1-0.3-1.5,0.1
		C210.7,350.3,210.7,350.9,211.1,351.3z"/>
	<path class="st0" d="M105,110.3l-2.7,5.1c-0.3,0.5,0,1.1,0.5,1.4c0.5,0.2,1.1,0.1,1.4-0.4l2.7-5.1c0.3-0.5,0-1.1-0.5-1.4
		C105.9,109.7,105.2,109.9,105,110.3z"/>
	<path class="st0" d="M94.3,86.7l10.7,24.6c0.2,0.5,0.9,0.7,1.4,0.5s0.7-0.8,0.5-1.3L96.2,85.9c-0.2-0.5-0.8-0.8-1.4-0.5
		C94.3,85.5,94,86.1,94.3,86.7z"/>
	<path class="st0" d="M190.3,165.7c0,0.6,0.4,1,1,1.1l41.1,2.3c0.6,0,1.1-0.4,1.1-1s-0.4-1.1-1-1.1l-41.1-2.3
		C190.9,164.7,190.4,165.1,190.3,165.7z"/>
	<path class="st16" d="M264.6,13.1c-0.1,0.6,0.4,1.1,0.9,1.1c0.5,0.1,1-0.3,1.1-0.9l1.7-13.2h-2.1L264.6,13.1z"/>
	<path class="st0" d="M224.2,108c-0.6,0.1-0.9,0.6-0.8,1.2s0.6,0.9,1.2,0.8l15.3-2.6c0.6-0.1,0.9-0.6,0.8-1.2s-0.6-0.9-1.2-0.8
		L224.2,108z"/>
	<path class="st0" d="M152.9,36.3c-0.4,0.4-0.3,1.1,0.1,1.5s1.1,0.3,1.5-0.1l9.1-10.6c0.3-0.5,0.2-1.1-0.2-1.4
		c-0.4-0.3-1-0.3-1.3,0.1L152.9,36.3z"/>
	<path class="st0" d="M239.7,43c-0.4,0.4-0.3,1.1,0.2,1.5c0.4,0.3,1.1,0.3,1.4-0.1l25.2-30.5c0.4-0.4,0.3-1.1-0.1-1.5
		s-1.1-0.3-1.5,0.1L239.7,43z"/>
	<path class="st0" d="M129.4,57.7c-0.4,0.4-0.4,1.1,0,1.5s1,0.4,1.4,0.1l23.6-21.5c0.4-0.4,0.5-1,0.1-1.5c-0.4-0.4-1-0.5-1.5-0.1
		L129.4,57.7z"/>
	<path class="st0" d="M161.8,26.4c0,0.6,0.5,1,1.1,1s1-0.5,1-1.1l-1.6-26.2h-2.1L161.8,26.4z"/>
	<path class="st0" d="M171,11l-9.1,14.8c-0.3,0.5-0.1,1.1,0.4,1.4s1.1,0.1,1.4-0.3l9.1-14.8c0.3-0.5,0.1-1.1-0.4-1.4
		C171.9,10.5,171.3,10.6,171,11z"/>
	<path class="st0" d="M170.9,12c0.2,0.5,0.8,0.8,1.4,0.5c0.5-0.2,0.8-0.8,0.6-1.3l-4.7-11.1H166L170.9,12z"/>
	<path class="st0" d="M129.1,58.8l9.5,31.8c0.2,0.5,0.8,0.9,1.3,0.7c0.5-0.2,0.8-0.7,0.7-1.3l-9.5-31.8c-0.2-0.5-0.8-0.9-1.3-0.7
		C129.2,57.7,128.9,58.2,129.1,58.8z"/>
	<path class="st0" d="M99.7,43c-0.3,0.5-0.1,1.1,0.5,1.4l29.4,15c0.5,0.3,1.1,0.1,1.4-0.5c0.3-0.5,0.1-1.1-0.5-1.4l-29.4-15
		C100.6,42.3,100,42.5,99.7,43z"/>
	<path class="st0" d="M223.5,108.5c-0.3,0.5-0.2,1.1,0.3,1.4l24.5,15.5c0.5,0.3,1.1,0.1,1.4-0.4s0.1-1.1-0.3-1.4l-24.5-15.5
		C224.4,107.8,223.8,108,223.5,108.5z"/>
	<path class="st17" d="M263,298c-0.5,0.3-0.7,0.9-0.4,1.4l20.6,34.4v-4l-18.8-31.4C264.2,297.9,263.5,297.7,263,298z"/>
	<path class="st0" d="M203.2,341.7l4.2,16.2c0.1,0.6,0.7,0.9,1.3,0.7c0.6-0.1,0.9-0.7,0.7-1.3l-4.2-16.2c-0.1-0.6-0.7-0.9-1.3-0.7
		C203.4,340.5,203,341.1,203.2,341.7z"/>
	<path class="st0" d="M139.3,89.3c-0.5,0.2-0.8,0.8-0.7,1.3c0.2,0.5,0.8,0.8,1.3,0.7l15.4-5.2c0.5-0.2,0.8-0.8,0.6-1.3
		c-0.2-0.5-0.8-0.8-1.3-0.6L139.3,89.3z"/>
	<path class="st0" d="M203.2,341.6l2.6,14.9c0.1,0.6,0.7,0.9,1.2,0.8c0.5-0.1,0.9-0.6,0.8-1.2l-2.6-14.9c-0.1-0.6-0.6-0.9-1.2-0.8
		C203.4,340.5,203.1,341,203.2,341.6z"/>
	<path class="st0" d="M278.9,234.6l-6.2,31.7c-0.1,0.6,0.3,1.1,0.8,1.2c0.6,0.1,1.1-0.3,1.2-0.8l6.2-31.7c0.1-0.6-0.3-1.1-0.8-1.2
		S279.1,234,278.9,234.6z"/>
	<path class="st18" d="M67.6,111.9c-0.5,0.2-0.8,0.8-0.7,1.3c0.2,0.5,0.7,0.8,1.3,0.7l71.7-22.6c0.5-0.2,0.8-0.8,0.7-1.3
		c-0.2-0.5-0.8-0.8-1.3-0.7L67.6,111.9z"/>
	<path class="st0" d="M204.2,17.2l13.2,31c0.2,0.5,0.8,0.8,1.4,0.5c0.5-0.2,0.8-0.8,0.5-1.3l-13.2-31c-0.2-0.5-0.8-0.8-1.4-0.5
		C204.2,16,204,16.6,204.2,17.2z"/>
	<path class="st0" d="M206,355.7c-0.4,0.4-0.3,1.1,0.1,1.5l1.6,1.3c0.5,0.4,1.1,0.3,1.5-0.2c0.3-0.4,0.3-1.1-0.1-1.4l-1.6-1.3
		C207,355.2,206.4,355.2,206,355.7z"/>
	<path class="st0" d="M184.9,53.5c-0.6,0.1-0.9,0.7-0.8,1.2c0.1,0.6,0.7,0.9,1.2,0.8l33.2-6.7c0.6-0.1,0.9-0.7,0.8-1.2
		c-0.1-0.6-0.7-0.9-1.2-0.8L184.9,53.5z"/>
	<path class="st0" d="M279.5,235.7c0.5,0.2,1.1,0,1.4-0.5l2.3-5.4v-5.2l-4.2,9.8C278.8,234.9,279,235.5,279.5,235.7z"/>
	<path class="st19" d="M239.7,253.2c-0.5,0.3-0.7,0.9-0.5,1.4c0.3,0.5,0.9,0.7,1.4,0.5l39.8-19.4c0.5-0.3,0.7-0.9,0.5-1.4
		c-0.3-0.5-0.9-0.7-1.4-0.5L239.7,253.2z"/>
	<path class="st0" d="M67,112.4l-8.6,15.9c-0.3,0.5-0.1,1.1,0.4,1.4s1.1,0.1,1.4-0.4l8.6-15.9c0.3-0.5,0.1-1.1-0.4-1.4
		C67.9,111.8,67.3,111.9,67,112.4z"/>
	<path class="st0" d="M272.9,266c-0.3,0.5-0.1,1.1,0.4,1.4l9.9,5.3v-2.4l-8.9-4.8C273.8,265.3,273.2,265.5,272.9,266z"/>
	<path class="st0" d="M204.2,16.4c-0.2,0.5,0.1,1.1,0.6,1.3c0.5,0.2,1.1-0.1,1.3-0.6l6.3-17h-2.2L204.2,16.4z"/>
	<path class="st20" d="M57.4,23.7c-0.2,0.5,0,1.1,0.5,1.3l42.3,19.4c0.5,0.2,1.1,0,1.4-0.6c0.2-0.5,0-1.1-0.5-1.3L58.7,23.2
		C58.2,23,57.6,23.2,57.4,23.7z"/>
	<path class="st0" d="M163,22.5l21.2,32.6c0.3,0.5,1,0.6,1.4,0.3c0.5-0.3,0.6-1,0.3-1.4l-21.3-32.6c-0.3-0.5-1-0.6-1.4-0.3
		C162.8,21.4,162.7,22,163,22.5z"/>
	<path class="st0" d="M57.5,23.4c-0.4,0.4-0.3,1.1,0.1,1.5s1,0.3,1.4-0.1L81.4,0.1h-2.8L57.5,23.4z"/>
	<polygon class="st21" points="283.2,27.1 283.2,21.3 275,0.1 272.8,0.1 	"/>
	<path class="st0" d="M200.8,317.9l8.7,20.3c0.2,0.5,0.8,0.8,1.4,0.5c0.5-0.2,0.8-0.8,0.5-1.3l-8.7-20.3c-0.2-0.5-0.8-0.8-1.4-0.5
		C200.8,316.8,200.6,317.4,200.8,317.9z"/>
	<path class="st0" d="M264.7,358.6c0,0.6,0.5,1,1.1,1l17.5-0.2v-2.1l-17.5,0.2C265.1,357.6,264.7,358,264.7,358.6z"/>
	<path class="st22" d="M249.6,4.7c-0.3,0.5-0.3,1.1,0.2,1.5l33.4,25.1v-2.6L251,4.5C250.6,4.1,249.9,4.2,249.6,4.7z"/>
	<path class="st0" d="M248.9,370.3c0.2,0.5,0.7,0.9,1.3,0.7l33.1-10v-2.2l-33.7,10.1C249,369.2,248.7,369.8,248.9,370.3z"/>
	<path class="st0" d="M249.3,369.2c-0.5,0.3-0.6,1-0.2,1.5c0.3,0.4,1,0.6,1.4,0.2l15.9-11.4c0.5-0.3,0.6-1,0.2-1.5
		c-0.3-0.5-1-0.6-1.4-0.2L249.3,369.2z"/>
	<path class="st0" d="M274.9,331.5c-0.5,0.3-0.7,0.9-0.4,1.4l8.8,17v-4.5l-6.9-13.4C276,331.4,275.4,331.2,274.9,331.5z"/>
	<path class="st0" d="M201,316.8c-0.4,0.4-0.4,1.1,0,1.5s1.1,0.4,1.5,0l8-7.8c0.4-0.4,0.4-1.1,0-1.5s-1.1-0.4-1.5,0L201,316.8z"/>
	<path class="st0" d="M208.7,309.7l0.8,28.1c0,0.6,0.5,1,1.1,1s1-0.5,1-1.1l-0.7-28.1c0-0.6-0.5-1-1.1-1
		C209.2,308.6,208.7,309.1,208.7,309.7z"/>
	<path class="st0" d="M250.2,6.3c0.6,0.1,1.1-0.3,1.2-0.8s-0.2-1.1-0.8-1.2l-20.3-4.2H220L250.2,6.3z"/>
	<path class="st0" d="M249.5,5.8c0.3,0.5,0.9,0.7,1.4,0.4s0.7-0.9,0.4-1.4l-2.5-4.7h-2.4L249.5,5.8z"/>
	<path class="st23" d="M180.4,138.3l-27.2,56.1c-0.2,0.5,0,1.2,0.5,1.4c0.5,0.2,1.1,0,1.4-0.5l27.2-56.1c0.2-0.5,0-1.2-0.5-1.4
		C181.2,137.6,180.6,137.8,180.4,138.3z"/>
	<path class="st24" d="M140.6,81.7l39.8,57.6c0.3,0.5,1,0.6,1.5,0.3c0.5-0.3,0.6-1,0.3-1.4l-39.8-57.6c-0.3-0.5-1-0.6-1.5-0.3
		C140.4,80.6,140.3,81.2,140.6,81.7z"/>
	<path class="st0" d="M100.7,66.1c-0.2,0.5,0.1,1.2,0.6,1.4l39.8,14.6c0.5,0.2,1.1-0.1,1.3-0.6c0.2-0.5-0.1-1.1-0.6-1.3L102,65.5
		C101.5,65.2,100.9,65.5,100.7,66.1z"/>
	<path class="st0" d="M125,67.7c-0.4,0.5-0.3,1.1,0.2,1.5l15.7,12.7c0.5,0.4,1.1,0.3,1.5-0.2c0.3-0.4,0.3-1.1-0.1-1.5l-15.7-12.7
		C126,67.2,125.4,67.2,125,67.7z"/>
	<path class="st0" d="M100.7,66.4c0,0.5,0.4,1,0.9,1.1l24.1,1.9c0.6,0,1.1-0.4,1.1-1s-0.4-1-0.9-1.1l-24.1-1.9
		C101.2,65.4,100.7,65.8,100.7,66.4z"/>
	<path class="st0" d="M125.4,67.4c-0.5,0.2-0.8,0.9-0.5,1.4c0.2,0.5,0.8,0.8,1.4,0.6l21.2-9c0.5-0.2,0.8-0.9,0.6-1.4
		c-0.2-0.5-0.9-0.8-1.4-0.6L125.4,67.4z"/>
	<path class="st0" d="M176.7,76.2c-0.1,0.6,0.4,1.1,0.9,1.2l31.2,3.5c0.6,0.1,1.1-0.4,1.2-0.9c0.1-0.6-0.4-1.1-0.9-1.2l-31.2-3.5
		C177.3,75.2,176.7,75.6,176.7,76.2z"/>
	<path class="st0" d="M146.1,58.8c-0.3,0.5-0.1,1.2,0.4,1.5l30.7,17c0.5,0.3,1.2,0.1,1.5-0.4s0.1-1.2-0.4-1.4l-30.7-17
		C147,58.1,146.3,58.3,146.1,58.8z"/>
	<path class="st0" d="M207.9,80.1l8.7,43.2c0.1,0.6,0.7,0.9,1.3,0.8c0.6-0.1,0.9-0.7,0.8-1.2L210,79.7c-0.1-0.6-0.7-1-1.3-0.8
		C208.1,78.9,207.7,79.5,207.9,80.1z"/>
	<path class="st25" d="M216.8,2c0,0.6,0.5,1.1,1.1,1c0.6,0,1.1-0.5,1-1.1V0h-2.1V2z"/>
	<path class="st16" d="M117.8,24.8c-0.4,0.4-0.4,1.1,0,1.5s1,0.4,1.5,0.1L149,0.1h-3.2L117.8,24.8z"/>
	<path class="st26" d="M176.9,75.6l-10.5,12.9c-0.4,0.5-0.3,1.2,0.2,1.5c0.5,0.4,1.2,0.3,1.5-0.2l10.5-12.9c0.4-0.5,0.3-1.1-0.2-1.5
		C178,75.1,177.3,75.2,176.9,75.6z"/>
	<path class="st0" d="M122.6,109.5l30.7,41.6c0.4,0.5,1,0.6,1.5,0.2s0.6-1,0.2-1.5l-30.6-41.6c-0.4-0.5-1-0.6-1.5-0.2
		C122.4,108.3,122.3,109,122.6,109.5z"/>
	<path class="st0" d="M102.2,150.4c0,0.6,0.5,1.1,1.1,1.1l50.8,0.1c0.6,0,1.1-0.5,1.1-1.1s-0.5-1.1-1.1-1.1l-50.8-0.1
		C102.7,149.3,102.2,149.8,102.2,150.4z"/>
	<path class="st27" d="M208.1,79.1c-0.4,0.4-0.3,1.1,0.1,1.5s1.1,0.3,1.5-0.1l16.5-18.7c0.4-0.5,0.3-1.2-0.1-1.5
		c-0.4-0.4-1.1-0.3-1.5,0.1L208.1,79.1z"/>
	<path class="st0" d="M123.1,107.8c-0.5,0.2-0.8,0.9-0.5,1.4s0.9,0.8,1.4,0.5l43.7-19.6c0.6-0.2,0.8-0.9,0.5-1.4
		c-0.2-0.6-0.9-0.8-1.4-0.5L123.1,107.8z"/>
	<path class="st0" d="M122.5,108.3l-14.9,29.8c-0.3,0.5-0.1,1.2,0.5,1.5c0.5,0.3,1.2,0.1,1.5-0.5l14.9-29.8c0.3-0.5,0.1-1.2-0.5-1.5
		C123.5,107.6,122.8,107.8,122.5,108.3z"/>
	<path class="st0" d="M107.6,138.2l-5.3,11.7c-0.2,0.5,0,1.2,0.5,1.4c0.5,0.2,1.2,0,1.4-0.5l5.3-11.7c0.2-0.6,0-1.2-0.6-1.4
		C108.5,137.4,107.9,137.7,107.6,138.2z"/>
	<path class="st0" d="M102.2,150.2l-1.1,10c-0.1,0.6,0.4,1.1,1,1.2s1.1-0.4,1.2-1l1-10.1c0.1-0.6-0.4-1.1-1-1.2
		C102.8,149.2,102.3,149.6,102.2,150.2z"/>
	<path class="st0" d="M216.6,122.5l-8.1,15.6c-0.3,0.5-0.1,1.2,0.5,1.5c0.5,0.3,1.2,0.1,1.4-0.5l8.1-15.6c0.3-0.5,0-1.2-0.5-1.4
		C217.5,121.8,216.9,122,216.6,122.5z"/>
	<path class="st0" d="M107.6,138.3l-6.4,21.8c-0.2,0.6,0.2,1.2,0.8,1.3c0.6,0.2,1.2-0.2,1.3-0.7l6.3-21.8c0.2-0.6-0.2-1.2-0.7-1.4
		C108.3,137.4,107.7,137.8,107.6,138.3z"/>
	<path class="st28" d="M166.8,88.2c-0.5,0.3-0.8,0.9-0.5,1.5c0.3,0.5,0.9,0.8,1.5,0.5l58.1-28.1c0.5-0.3,0.8-0.9,0.5-1.5
		c-0.3-0.5-0.9-0.8-1.4-0.5L166.8,88.2z"/>
	<path class="st0" d="M239.2,192.4c-0.4,0.5-0.3,1.2,0.2,1.5l26.5,19.6c0.5,0.4,1.2,0.2,1.5-0.3s0.2-1.1-0.2-1.5l-26.5-19.6
		C240.2,191.8,239.5,191.9,239.2,192.4z"/>
	<path class="st29" d="M117.5,25.1l-8.3,17.2c-0.3,0.6,0,1.2,0.5,1.5c0.6,0.3,1.2,0,1.5-0.5l8.2-17.2c0.2-0.6,0-1.2-0.6-1.4
		C118.4,24.4,117.8,24.6,117.5,25.1z"/>
	<path class="st0" d="M208.4,138.6c0,0.6,0.5,1.1,1.1,1.1l21.5-0.6c0.6,0,1.1-0.6,1.1-1.2s-0.5-1.1-1.1-1.1l-21.5,0.7
		C208.9,137.5,208.4,138,208.4,138.6z"/>
	<path class="st30" d="M107.7,139.2l16.4,28.9c0.3,0.5,1,0.7,1.5,0.4c0.5-0.3,0.7-1,0.4-1.5l-16.5-28.9c-0.3-0.5-1-0.7-1.5-0.4
		C107.5,138,107.4,138.7,107.7,139.2z"/>
	<path class="st0" d="M269.8,441.6c0.2,0.6,0.8,0.9,1.4,0.7l12-4.1v-2.3l-12.8,4.4C269.9,440.4,269.6,441.1,269.8,441.6z"/>
	<path class="st0" d="M236.8,123.8l-6.8,13.7c-0.3,0.6,0,1.2,0.5,1.5s1.2,0,1.5-0.5l6.8-13.7c0.3-0.6,0.1-1.2-0.5-1.5
		S237.1,123.2,236.8,123.8z"/>
	<path class="st31" d="M236.7,124.6c0.2,0.6,0.8,0.9,1.4,0.8l45.1-12.9v-2.3l-45.7,13.1C236.9,123.3,236.6,124,236.7,124.6z"/>
	<path class="st0" d="M203.4,115.8c-0.4,0.5-0.3,1.2,0.2,1.6l26.7,21.4c0.5,0.4,1.2,0.3,1.6-0.2s0.3-1.2-0.2-1.6L205,115.5
		C204.5,115.2,203.8,115.3,203.4,115.8z"/>
	<path class="st0" d="M225.1,13.3c0.3,0.5,1,0.7,1.5,0.4s0.7-1,0.4-1.5l-7.5-12.1h-2.6L225.1,13.3z"/>
	<path class="st0" d="M203.2,116.3c-0.1,0.6,0.2,1.2,0.8,1.3l33.6,7.8c0.6,0.1,1.2-0.2,1.3-0.8c0.1-0.6-0.2-1.2-0.8-1.3l-33.6-7.8
		C203.9,115.3,203.3,115.7,203.2,116.3z"/>
	<path class="st0" d="M184.9,5.6c-0.5,0.3-0.7,1-0.4,1.5c0.3,0.5,1,0.7,1.5,0.4L198.4,0h-4.3L184.9,5.6z"/>
	<path class="st0" d="M184.4,6.4c-0.1,0.6,0.3,1.1,0.9,1.2l40.6,6.2c0.6,0.1,1.2-0.3,1.3-1c0.1-0.6-0.3-1.2-0.9-1.3l-40.6-6.2
		C185,5.4,184.5,5.8,184.4,6.4z"/>
	<path class="st32" d="M265.4,212.7l2.2,31.2c0.1,0.6,0.6,1.1,1.2,1c0.6-0.1,1.1-0.6,1-1.2l-2.2-31.2c-0.1-0.6-0.6-1.1-1.2-1
		S265.4,212.1,265.4,212.7z"/>
	<path class="st0" d="M102.3,13.5l6.8,29.6c0.2,0.6,0.8,0.9,1.4,0.8c0.6-0.2,0.9-0.7,0.8-1.3L104.5,13c-0.1-0.6-0.7-1-1.4-0.9
		C102.6,12.2,102.2,12.8,102.3,13.5z"/>
	<polygon class="st0" points="281.1,0.1 283.2,3.5 283.2,0.1 	"/>
	<path class="st0" d="M240,28c0.1,0.6,0.6,1.1,1.3,1l41.9-5.2v-2.3L241,26.7C240.4,26.8,239.9,27.4,240,28z"/>
	<path class="st0" d="M241,2.8c-0.6,0.2-0.8,0.9-0.6,1.5c0.2,0.6,0.9,0.8,1.5,0.6L253.6,0h-5.9L241,2.8z"/>
	<path class="st0" d="M240.3,3.9l-0.3,24c0,0.6,0.5,1.1,1.1,1.2c0.6,0,1.1-0.5,1.2-1.1l0.3-24c0-0.6-0.5-1.1-1.1-1.1
		C240.8,2.8,240.3,3.3,240.3,3.9z"/>
	<path class="st0" d="M103,12.1c-0.6,0.2-0.9,0.9-0.7,1.5c0.2,0.6,0.9,0.9,1.5,0.7l38.6-14.2h-6.6L103,12.1z"/>
	<path class="st33" d="M-3.1,101.4c-0.3,0.5-0.2,1.2,0.3,1.6l59.5,39.1c0.5,0.3,1.2,0.2,1.6-0.3c0.3-0.5,0.2-1.2-0.3-1.6l-59.4-39.1
		C-2,100.7-2.7,100.9-3.1,101.4z"/>
	<path class="st0" d="M267.9,244.6c0.4,0.4,1.1,0.4,1.6,0l13.7-13.5v-3.2L267.9,243C267.5,243.4,267.5,244.2,267.9,244.6z"/>
	<path class="st0" d="M247.6,13.5l-7.4,13.8c-0.3,0.6-0.1,1.2,0.5,1.5s1.2,0.1,1.5-0.5l7.5-13.8c0.3-0.6,0.1-1.3-0.5-1.6
		C248.6,12.8,247.9,13,247.6,13.5z"/>
	<path class="st34" d="M247.5,13.7l-25.4,77.7c-0.2,0.6,0.1,1.3,0.7,1.5s1.3-0.1,1.5-0.7l25.4-77.7c0.2-0.6-0.1-1.3-0.8-1.4
		C248.3,12.8,247.7,13.1,247.5,13.7z"/>
	<path class="st35" d="M146.9,109.9l1.2,84.8c0,0.6,0.6,1.1,1.2,1.1s1.1-0.5,1.1-1.2l-1.2-84.8c0-0.6-0.6-1.1-1.2-1.1
		C147.4,108.8,146.9,109.3,146.9,109.9z"/>
	<path class="st36" d="M147.8,108.8c-0.6,0.2-1,0.8-0.8,1.4s0.8,1,1.4,0.8l75.1-18.1c0.6-0.2,1-0.8,0.9-1.4c-0.2-0.6-0.8-1-1.4-0.9
		L147.8,108.8z"/>
	<path class="st37" d="M132.8,114.6l15.3,80.3c0.1,0.6,0.7,1,1.4,0.9c0.6-0.1,1-0.7,0.9-1.4l-15.2-80.3c-0.1-0.6-0.7-1.1-1.4-1
		C133.1,113.3,132.7,113.9,132.8,114.6z"/>
	<path class="st38" d="M133.6,113.2c-0.6,0.2-1,0.9-0.8,1.5s0.9,1,1.5,0.8l14.1-4.5c0.6-0.2,0.9-0.9,0.7-1.5
		c-0.2-0.6-0.8-0.9-1.4-0.7L133.6,113.2z"/>
	<path class="st39" d="M280.7,318.4c0.1,0.7,0.7,1.1,1.4,1l1.1-0.2v-2.4l-1.5,0.2C281.1,317.1,280.6,317.7,280.7,318.4z"/>
	<path class="st0" d="M181.1,23.3c-0.4,0.5-0.2,1.2,0.3,1.6l21,14.9c0.5,0.4,1.3,0.3,1.7-0.3c0.4-0.5,0.3-1.3-0.3-1.7l-21-14.9
		C182.2,22.6,181.5,22.7,181.1,23.3z"/>
	<path class="st0" d="M133.8,20.7c0.5,0.4,1.3,0.3,1.7-0.2c0.4-0.5,0.4-1.2-0.1-1.7L113.5,0h-3.7L133.8,20.7z"/>
	<path class="st0" d="M281.2,317.2c-0.5,0.4-0.6,1.1-0.2,1.7l2.3,3.1v-4l-0.3-0.5C282.5,316.9,281.7,316.8,281.2,317.2z"/>
	<path class="st0" d="M169.1,39.3c0,0.7,0.6,1.2,1.2,1.2l32.8-0.4c0.7,0,1.2-0.6,1.2-1.2c0-0.7-0.6-1.2-1.2-1.2l-32.8,0.4
		C169.6,38,169.1,38.6,169.1,39.3z"/>
	<path class="st0" d="M133.5,19.2c-0.3,0.6-0.1,1.3,0.5,1.6l35.7,19.5c0.6,0.3,1.3,0.1,1.6-0.5c0.3-0.6,0.1-1.3-0.5-1.6l-35.7-19.5
		C134.5,18.4,133.8,18.6,133.5,19.2z"/>
	<path class="st0" d="M202,38.3c-0.3,0.6-0.1,1.3,0.5,1.6c0.6,0.3,1.3,0.1,1.6-0.5l20.8-39.3h-2.7L202,38.3z"/>
	<path class="st40" d="M281.3,319.2c0.6,0.3,1.3,0.1,1.6-0.4l0.3-0.5v-4.7l-2.4,4C280.5,318.1,280.8,318.9,281.3,319.2z"/>
	<path class="st0" d="M130.4,55.9c-0.6,0.3-0.9,1-0.6,1.6s1,0.9,1.6,0.6l39.4-17.8c0.6-0.3,0.9-1,0.6-1.6s-1-0.9-1.6-0.6L130.4,55.9
		z"/>
	<polygon class="st41" points="227.1,153.4 185.2,151.3 209.2,159.1 	"/>
	<polygon class="st41" points="227.1,153.4 185.2,151.3 209.2,159.1 	"/>
	<polygon class="st41" points="227.1,153.4 185.2,151.3 209.2,159.1 	"/>
	<polygon class="st42" points="156.8,83.9 172.9,62.6 166.5,68.6 	"/>
	<polygon class="st42" points="156.8,83.9 172.9,62.6 166.5,68.6 	"/>
	<polygon class="st0" points="185.2,151.3 176,138.9 183.8,162.2 	"/>
	<polygon class="st0" points="185.2,151.3 176,138.9 183.8,162.2 	"/>
	<polygon class="st0" points="185.2,151.3 176,138.9 183.8,162.2 	"/>
	<polygon class="st43" points="166.5,68.6 172.9,62.6 132.4,93.4 	"/>
	<polygon class="st43" points="166.5,68.6 172.9,62.6 132.4,93.4 	"/>
	<polygon class="st44" points="249.3,278.1 283.2,287.9 283.2,280.6 250.7,245.1 	"/>
	<polygon class="st45" points="283.2,287.9 283.2,274.3 249.3,278.1 	"/>
	<polygon class="st46" points="263.6,289.5 283.2,290.2 283.2,280.6 250.7,245.1 	"/>
	<polygon class="st47" points="249.3,278.1 283.2,274.3 283.2,266 250.7,245.1 	"/>
	<polygon class="st48" points="263.6,289.5 250.7,245.1 249.3,278.1 	"/>
	<polygon class="st49" points="283.2,290.2 283.2,279 263.6,289.5 	"/>
	<polygon class="st49" points="283.2,290.2 283.2,279 263.6,289.5 	"/>
	<polygon class="st50" points="155.7,116.4 132.4,93.4 176,138.9 	"/>
	<polygon class="st51" points="263.6,289.5 283.2,279 283.2,274.3 249.3,278.1 	"/>
	<polygon class="st52" points="263.6,289.5 283.2,279 283.2,266 250.7,245.1 	"/>
	<polygon class="st53" points="249.3,278.1 250.7,245.1 234.3,248.8 	"/>
	<polygon class="st54" points="263.6,289.5 234.3,248.8 249.3,278.1 	"/>
	<polygon class="st55" points="183.8,162.2 181.5,157.6 183.5,186.9 	"/>
	<polygon class="st56" points="185.9,196.5 183.5,186.9 179.4,226.4 	"/>
	<polygon class="st56" points="185.9,196.5 183.5,186.9 179.4,226.4 	"/>
	<polygon class="st57" points="189.9,86 168.6,51.6 172.9,62.6 	"/>
	<polygon class="st58" points="179.4,226.4 185.9,196.5 130.5,226.5 	"/>
	<polygon class="st59" points="206.4,262.6 250.7,245.1 234.3,248.8 	"/>
	<polygon class="st60" points="185.9,196.5 181.5,157.6 179.4,226.4 	"/>
	<polygon class="st61" points="155.7,116.4 210.4,80.2 189.9,86 	"/>
	<polygon class="st62" points="185.9,196.5 181.5,157.6 183.5,186.9 	"/>
	<polygon class="st63" points="181.5,157.6 189.9,86 155.7,116.4 	"/>
	<polygon class="st64" points="210.4,80.2 168.6,51.6 189.9,86 	"/>
	<polygon class="st65" points="230.5,121 210.4,80.2 189.9,86 	"/>
	<polygon class="st65" points="230.5,121 210.4,80.2 189.9,86 	"/>
	<polygon class="st66" points="185.9,196.5 183.5,186.9 178.5,197.5 	"/>
	<polygon class="st67" points="230.5,121 155.7,116.4 181.5,157.6 	"/>
	<polygon class="st68" points="210.4,80.2 227.5,23.9 168.6,51.6 	"/>
	<polygon class="st69" points="227.5,23.9 201,17.3 168.6,51.6 	"/>
	<polygon class="st43" points="185.9,196.5 181.5,157.6 178.5,197.5 	"/>
	<polygon class="st0" points="227.5,23.9 203.1,3.6 201,17.3 	"/>
	<polygon class="st70" points="227.5,23.9 184.4,0.1 182,0.1 201,17.3 	"/>
	<polygon class="st71" points="227.5,23.9 208.6,0.1 201.3,0.1 203.1,3.6 	"/>
	<polygon class="st72" points="181.5,157.6 148.5,138.5 178.5,197.5 	"/>
	<polygon class="st73" points="181.5,157.6 148.5,138.5 171.2,165.8 	"/>
	<polygon class="st0" points="188.5,170.9 181.5,157.6 171.2,165.8 	"/>
	<polygon class="st0" points="188.5,170.9 181.5,157.6 171.2,165.8 	"/>
	<polygon class="st74" points="201,17.3 170,15.3 168.6,51.6 	"/>
	<polygon class="st75" points="181.5,157.6 148.5,138.5 188.5,170.9 	"/>
	<polygon class="st0" points="203.1,3.6 200.6,0.1 197,0.1 201,17.3 	"/>
	<polygon class="st0" points="203.1,3.6 200.6,0.1 197,0.1 201,17.3 	"/>
	<polygon class="st76" points="171.2,165.8 148.5,138.5 178.5,197.5 	"/>
	<polygon class="st77" points="201,17.3 199,0.1 196,0.1 	"/>
	<polygon class="st0" points="188.5,170.9 171.2,165.8 178.5,197.5 	"/>
	<polygon class="st0" points="188.5,170.9 171.2,165.8 178.5,197.5 	"/>
	<polygon class="st78" points="283.2,53.6 283.2,37.6 265.7,51.8 	"/>
	<polygon class="st79" points="244.1,5.6 223.3,0.1 202.9,0.1 227.5,23.9 	"/>
	<polygon class="st0" points="201.3,0.1 190.5,0.1 203.1,3.6 	"/>
	<polygon class="st0" points="201.3,0.1 190.5,0.1 203.1,3.6 	"/>
	<polygon class="st0" points="202.1,0.1 200.6,0.1 203.1,3.6 	"/>
	<polygon class="st80" points="201,17.3 196,0.1 177,0.1 170,15.3 	"/>
	<polygon class="st80" points="201,17.3 196,0.1 177,0.1 170,15.3 	"/>
	<polygon class="st0" points="202.1,0.1 190.5,0.1 203.1,3.6 	"/>
	<polygon class="st0" points="202.1,0.1 190.5,0.1 203.1,3.6 	"/>
	<polygon class="st81" points="188.5,170.9 148.6,105.6 148.5,138.5 	"/>
	<polygon class="st82" points="203.1,3.6 202.1,0.1 181.3,0.1 170,15.3 	"/>
	<polygon class="st83" points="244.1,5.6 203.1,3.6 265.7,51.8 	"/>
	<polygon class="st84" points="265.7,51.8 283.2,37.6 283.2,25.3 244.1,5.6 	"/>
	<polygon class="st85" points="148.5,138.5 169,101.8 148.6,105.6 	"/>
	<polygon class="st86" points="170,15.3 187,0.1 164.4,0.1 130.2,8.3 	"/>
	<polygon class="st87" points="180.5,40 178.5,0.1 176.8,0.1 170,15.3 	"/>
	<polygon class="st88" points="214.1,77 265.7,51.8 215.1,74.3 	"/>
	<polygon class="st89" points="234.1,0.1 226,0.1 244.1,5.6 	"/>
	<polygon class="st89" points="214.1,77 133.6,48 169,101.8 	"/>
	<polygon class="st90" points="192.9,106.9 169,101.8 148.6,105.6 	"/>
	<polygon class="st91" points="202,116.3 214.1,77 169,101.8 	"/>
	<polygon class="st92" points="192.9,106.9 133.6,48 148.6,105.6 	"/>
	<polygon class="st28" points="214.1,77 215.1,74.3 192.9,106.9 	"/>
	<polygon class="st28" points="214.1,77 215.1,74.3 192.9,106.9 	"/>
	<polygon class="st28" points="214.1,77 215.1,74.3 192.9,106.9 	"/>
	<polygon class="st93" points="170,15.3 130.2,8.3 133.6,48 	"/>
	<polygon class="st94" points="180.5,40 170,15.3 133.6,48 	"/>
	<polygon class="st95" points="192.9,106.9 180.5,40 148.6,105.6 	"/>
	<polygon class="st96" points="202,116.3 215.1,74.3 214.1,77 	"/>
	<polygon class="st97" points="170,15.3 174.7,0.1 168.7,0.1 133.6,48 	"/>
	<polygon class="st98" points="192.9,106.9 180.5,40 169,101.8 	"/>
	<polygon class="st0" points="192.9,106.9 169,101.8 202,116.3 	"/>
	<polygon class="st0" points="192.9,106.9 169,101.8 202,116.3 	"/>
	<polygon class="st99" points="202,116.3 215.1,74.3 169,101.8 	"/>
	<polygon class="st100" points="170,15.3 174.7,0.1 171.4,0.1 155.5,29.2 	"/>
	<polygon class="st100" points="170,15.3 174.7,0.1 171.4,0.1 155.5,29.2 	"/>
	<polygon class="st101" points="170,15.3 164.6,9.3 155.5,29.2 	"/>
	<polygon class="st102" points="170,15.3 166.4,0.1 163.2,0.1 164.6,9.3 	"/>
	<polygon class="st103" points="235.1,285.2 215.6,256.7 186.1,274.5 	"/>
	<polygon class="st104" points="155.5,29.2 130.2,8.3 133.6,48 	"/>
	<polygon class="st105" points="215.1,74.3 180.5,40 202,116.3 	"/>
	<polygon class="st106" points="180.5,40 164.6,9.3 133.6,48 	"/>
	<polygon class="st107" points="180.5,40 179.5,0.1 148.1,0.1 130.2,8.3 	"/>
	<polygon class="st108" points="164.3,0.1 163.2,0.1 164.6,9.3 	"/>
	<polygon class="st109" points="66.1,16.7 67.5,0.1 58.4,0.1 33.3,13.7 	"/>
	<polygon class="st109" points="66.1,16.7 67.5,0.1 58.4,0.1 33.3,13.7 	"/>
	<polygon class="st109" points="66.1,16.7 67.5,0.1 58.4,0.1 33.3,13.7 	"/>
	<polygon class="st110" points="130.2,8.3 148.1,0.1 135.3,0.1 	"/>
	<polygon class="st0" points="180.5,40 164.6,9.3 155.5,29.2 	"/>
	<polygon class="st0" points="180.5,40 164.6,9.3 155.5,29.2 	"/>
	<polygon class="st111" points="215.6,256.7 171,221.8 186.1,274.5 	"/>
	<polygon class="st112" points="283.2,200.6 283.2,200.5 282.9,200.8 	"/>
	<polygon class="st113" points="272.4,237 283.2,216.9 283.2,200.5 282.9,200.8 	"/>
	<polygon class="st0" points="155.5,29.2 171.4,0.1 170.3,0.1 164.6,9.3 	"/>
	<polygon class="st0" points="164.6,9.3 170.3,0.1 163.2,0.1 	"/>
	<polygon class="st114" points="130.2,8.3 135.3,0.1 133.7,0.1 	"/>
	<polygon class="st115" points="282.9,200.8 232.5,168 236.4,174.7 	"/>
	<polygon class="st116" points="33.3,13.7 46.2,0.1 32.6,0.1 	"/>
	<polygon class="st117" points="162.8,26.4 164.6,9.3 155.5,29.2 	"/>
	<polygon class="st118" points="66.1,16.7 68,0.1 65,0.1 	"/>
	<polygon class="st118" points="66.1,16.7 68,0.1 65,0.1 	"/>
	<polygon class="st119" points="33.3,13.7 46.2,0.1 43.1,0.1 	"/>
	<polygon class="st120" points="232.5,168 191.4,165.7 236.4,174.7 	"/>
	<polygon class="st121" points="232.5,168 283.2,129.7 283.2,115.7 239.6,106.4 	"/>
	<polygon class="st122" points="267.4,0.1 262.9,0.1 265.7,13.2 	"/>
	<polygon class="st122" points="267.4,0.1 262.9,0.1 265.7,13.2 	"/>
	<polygon class="st0" points="105.9,110.8 95.2,86.3 103.2,115.9 	"/>
	<polygon class="st0" points="105.9,110.8 95.2,86.3 103.2,115.9 	"/>
	<polygon class="st0" points="105.9,110.8 95.2,86.3 103.2,115.9 	"/>
	<polygon class="st123" points="265.7,13.2 267.4,0.1 263.1,0.1 240.5,43.7 	"/>
	<polygon class="st124" points="232.5,168 239.6,106.4 224.3,109 	"/>
	<polygon class="st125" points="211.8,350.5 213.5,316.9 204.2,341.4 	"/>
	<polygon class="st126" points="224.3,109 283.2,123 283.2,121.5 239.6,106.4 	"/>
	<polygon class="st127" points="232.5,168 224.3,109 191.4,165.7 	"/>
	<polygon class="st127" points="232.5,168 224.3,109 191.4,165.7 	"/>
	<polygon class="st128" points="262.9,0.1 265.7,13.2 283.2,41.4 283.2,36.7 264.8,0.1 	"/>
	<polygon class="st129" points="239.6,106.4 283.2,71 283.2,57.2 240.5,43.7 	"/>
	<polygon class="st130" points="153.7,37 158.2,0.1 153.6,0.1 	"/>
	<polygon class="st0" points="153.7,37 162.8,26.4 130.1,58.5 	"/>
	<polygon class="st0" points="162.8,26.4 171.9,11.6 153.7,37 	"/>
	<polygon class="st131" points="240.5,43.7 283.2,57.2 283.2,41.4 265.7,13.2 	"/>
	<polygon class="st132" points="139.6,90.3 130.1,58.5 105.9,110.8 	"/>
	<polygon class="st133" points="248.9,124.5 239.6,106.4 224.3,109 	"/>
	<polygon class="st134" points="171.9,11.6 167.1,0.1 161.2,0.1 162.8,26.4 	"/>
	<polygon class="st134" points="171.9,11.6 167.1,0.1 161.2,0.1 162.8,26.4 	"/>
	<polygon class="st135" points="155,85.1 130.1,58.5 95.2,86.3 	"/>
	<polygon class="st136" points="240.5,43.7 265.7,13.2 218.3,47.7 	"/>
	<polygon class="st137" points="130.1,58.5 162.8,26.4 100.7,43.5 	"/>
	<polygon class="st138" points="139.6,90.3 153.7,37 130.1,58.5 	"/>
	<polygon class="st139" points="224.3,109 240.5,43.7 218.3,47.7 	"/>
	<polygon class="st140" points="248.9,124.5 283.2,134.7 283.2,133.1 224.3,109 	"/>
	<polygon class="st57" points="139.6,90.3 153.7,37 100.7,43.5 	"/>
	<polygon class="st141" points="130.1,58.5 100.7,43.5 139.6,90.3 	"/>
	<polygon class="st134" points="155,85.1 130.1,58.5 139.6,90.3 	"/>
	<polygon class="st142" points="130.1,58.5 100.7,43.5 155,85.1 	"/>
	<polygon class="st143" points="185.1,54.5 153.7,37 155,85.1 	"/>
	<polygon class="st89" points="240.5,43.7 219.7,0.1 215.5,0.1 218.3,47.7 	"/>
	<polygon class="st144" points="283.2,331.8 283.2,296.2 263.6,298.9 	"/>
	<polygon class="st145" points="283.2,297.2 283.2,296.2 263.6,298.9 	"/>
	<polygon class="st146" points="263.6,298.9 283.2,331.8 283.2,307.6 273.8,266.5 	"/>
	<polygon class="st147" points="263.6,298.9 283.2,297.2 283.2,270.7 273.8,266.5 	"/>
	<polygon class="st148" points="283.2,331.8 283.2,317.1 263.6,298.9 	"/>
	<polygon class="st149" points="185.1,54.5 100.7,43.5 139.6,90.3 	"/>
	<polygon class="st0" points="208.4,357.6 204.2,341.4 206.8,356.3 	"/>
	<polygon class="st0" points="208.4,357.6 204.2,341.4 206.8,356.3 	"/>
	<polygon class="st0" points="208.4,357.6 204.2,341.4 206.8,356.3 	"/>
	<polygon class="st150" points="263.6,298.9 283.2,291.5 283.2,241.1 280,234.8 	"/>
	<polygon class="st151" points="155,85.1 185.1,54.5 139.6,90.3 	"/>
	<polygon class="st152" points="283.2,137.6 283.2,134.7 248.9,124.5 	"/>
	<polygon class="st153" points="218.3,47.7 171.9,11.6 163.9,21.9 	"/>
	<polygon class="st154" points="283.2,270.7 283.2,269.5 273.8,266.5 	"/>
	<polygon class="st155" points="283.2,271.6 283.2,270.7 273.8,266.5 	"/>
	<polygon class="st62" points="273.8,266.5 283.2,271.6 283.2,241.1 280,234.8 	"/>
	<polygon class="st156" points="273.8,266.5 283.2,234.7 283.2,227.2 280,234.8 	"/>
	<polygon class="st156" points="273.8,266.5 283.2,234.7 283.2,227.2 280,234.8 	"/>
	<polygon class="st157" points="218.3,47.7 205.1,16.7 185.1,54.5 	"/>
	<polygon class="st158" points="185.1,54.5 205.1,16.7 155,85.1 	"/>
	<polygon class="st159" points="283.2,270.4 283.2,234.7 273.8,266.5 	"/>
	<polygon class="st160" points="273.8,266.5 240.2,254.2 263.6,298.9 	"/>
	<polygon class="st161" points="218.3,47.7 215.5,0.1 211.3,0.1 205.1,16.7 	"/>
	<polygon class="st162" points="273.8,266.5 280,234.8 240.2,254.2 	"/>
	<polygon class="st163" points="163.9,21.9 187.2,0.1 185.4,0.1 171.9,11.6 	"/>
	<polygon class="st164" points="240.2,254.2 283.2,273.5 283.2,241.1 280,234.8 	"/>
	<polygon class="st165" points="208.4,357.6 201.8,317.5 206.8,356.3 	"/>
	<polygon class="st166" points="283.2,303.5 283.2,291.5 263.6,298.9 	"/>
	<polygon class="st167" points="100.7,43.5 88.4,0.1 80,0.1 58.3,24.1 	"/>
	<polygon class="st0" points="205.1,16.7 211.3,0.1 205.7,0.1 	"/>
	<polygon class="st168" points="283.2,273.5 283.2,216.7 240.2,254.2 	"/>
	<polygon class="st169" points="58.3,24.1 80,0.1 69.9,0.1 	"/>
	<polygon class="st170" points="223.8,0.1 205.7,0.1 205.1,16.7 	"/>
	<polygon class="st171" points="210.5,337.8 201.8,317.5 208.4,357.6 	"/>
	<polygon class="st172" points="210.5,337.8 201.8,317.5 206.8,356.3 	"/>
	<polygon class="st173" points="283.2,335.8 283.2,319.4 275.4,332.4 	"/>
	<polygon class="st174" points="265.7,358.6 210.5,337.8 208.4,357.6 	"/>
	<polygon class="st175" points="249.9,370 210.5,337.8 206.8,356.3 	"/>
	<polygon class="st176" points="283.2,335.8 283.2,329.9 275.4,332.4 	"/>
	<polygon class="st177" points="251.9,0.1 250.4,5.3 283.2,30 283.2,24.2 273.9,0.1 	"/>
	<polygon class="st178" points="240.5,0.1 234.9,0.1 283.2,30.4 283.2,30 250.4,5.3 	"/>
	<polygon class="st179" points="254.2,0.1 238.2,0.1 250.4,5.3 	"/>
	<polygon class="st0" points="249.9,370 283.2,360 283.2,358.4 265.7,358.6 	"/>
	<polygon class="st0" points="249.9,370 283.2,360 283.2,358.4 265.7,358.6 	"/>
	<polygon class="st180" points="249.9,370 275.4,332.4 210.5,337.8 	"/>
	<polygon class="st0" points="265.7,358.6 283.2,358.4 283.2,347.6 275.4,332.4 	"/>
	<polygon class="st181" points="249.9,370 283.2,360 283.2,347.6 275.4,332.4 	"/>
	<polygon class="st43" points="254.2,0.1 251.9,0.1 250.4,5.3 	"/>
	<polygon class="st43" points="254.2,0.1 251.9,0.1 250.4,5.3 	"/>
	<polygon class="st182" points="210.5,337.8 209.8,309.7 201.8,317.5 	"/>
	<polygon class="st182" points="210.5,337.8 209.8,309.7 201.8,317.5 	"/>
	<polygon class="st182" points="210.5,337.8 209.8,309.7 201.8,317.5 	"/>
	<polygon class="st0" points="283.2,364.4 283.2,358.4 265.7,358.6 	"/>
	<polygon class="st183" points="265.7,358.6 283.2,364.4 283.2,342.7 275.4,332.4 	"/>
	<polygon class="st183" points="265.7,358.6 283.2,364.4 283.2,342.7 275.4,332.4 	"/>
	<polygon class="st184" points="249.9,370 283.2,371 283.2,342.7 275.4,332.4 	"/>
	<polygon class="st185" points="283.2,359.1 283.2,346.7 265.7,358.6 	"/>
	<polygon class="st186" points="251.9,0.1 246.7,0.1 250.4,5.3 	"/>
	<polygon class="st187" points="246.7,0.1 240.5,0.1 250.4,5.3 	"/>
	<polygon class="st188" points="283.2,338.4 283.2,329.9 275.4,332.4 	"/>
	<polygon class="st189" points="283.2,347.6 283.2,338.4 275.4,332.4 	"/>
	<polygon class="st0" points="246.7,0.1 225.2,0.1 250.4,5.3 	"/>
	<polygon class="st190" points="248.8,0.1 246.7,0.1 250.4,5.3 	"/>
	<polygon class="st191" points="247.7,0.1 225.2,0.1 250.4,5.3 	"/>
	<polygon class="st192" points="250.4,5.3 247.7,0.1 246.7,0.1 	"/>
	<polygon class="st0" points="125.8,68.4 101.7,66.4 141.5,81.1 	"/>
	<polygon class="st0" points="125.8,68.4 101.7,66.4 141.5,81.1 	"/>
	<polygon class="st0" points="125.8,68.4 101.7,66.4 141.5,81.1 	"/>
	<polygon class="st193" points="223.8,0.1 217.6,0.1 217.8,2 	"/>
	<polygon class="st194" points="218.5,0.1 198.4,0.1 217.8,2 	"/>
	<polygon class="st195" points="177.7,76.3 147,59.3 141.5,81.1 	"/>
	<polygon class="st196" points="147,59.3 152.1,0.1 142.7,0.1 	"/>
	<polygon class="st197" points="177.7,76.3 147,59.3 125.8,68.4 	"/>
	<polygon class="st197" points="177.7,76.3 147,59.3 125.8,68.4 	"/>
	<polygon class="st198" points="177.7,76.3 125.8,68.4 123.5,108.8 	"/>
	<polygon class="st198" points="177.7,76.3 125.8,68.4 123.5,108.8 	"/>
	<polygon class="st199" points="217.8,2 223.8,0.1 217.8,0.1 	"/>
	<polygon class="st200" points="167.2,89.2 177.7,76.3 141.5,81.1 	"/>
	<polygon class="st201" points="208.9,79.9 147,59.3 177.7,76.3 	"/>
	<polygon class="st202" points="167.2,89.2 147,59.3 141.5,81.1 	"/>
	<polygon class="st203" points="118.5,25.6 147.3,0.1 132,0.1 	"/>
	<polygon class="st138" points="208.9,79.9 177.7,76.3 217.6,123 	"/>
	<polygon class="st204" points="208.9,79.9 147,59.3 167.2,89.2 	"/>
	<polygon class="st205" points="167.2,89.2 177.7,76.3 123.5,108.8 	"/>
	<polygon class="st206" points="147,59.3 118.5,25.6 123.5,108.8 	"/>
	<polygon class="st207" points="154.1,150.4 123.5,108.8 103.3,150.3 	"/>
	<polygon class="st207" points="154.1,150.4 123.5,108.8 103.3,150.3 	"/>
	<polygon class="st208" points="217.6,123 208.9,79.9 167.2,89.2 	"/>
	<polygon class="st209" points="217.8,0.1 215.2,0.1 217.8,2 	"/>
	<polygon class="st210" points="217.6,123 208.9,79.9 209.5,138.6 	"/>
	<polygon class="st211" points="217.6,123 225.4,61.1 177.7,76.3 	"/>
	<polygon class="st212" points="154.1,150.4 167.2,89.2 123.5,108.8 	"/>
	<polygon class="st213" points="154.1,150.4 123.5,108.8 108.6,138.6 	"/>
	<polygon class="st0" points="103.3,150.3 123.5,108.8 108.6,138.6 	"/>
	<polygon class="st214" points="209.5,138.6 147,59.3 167.2,89.2 	"/>
	<polygon class="st215" points="208.9,79.9 225.4,61.1 167.2,89.2 	"/>
	<polygon class="st216" points="209.5,138.6 225.4,61.1 208.9,79.9 	"/>
	<polygon class="st217" points="240,193 209.5,138.6 154.1,150.4 	"/>
	<polygon class="st218" points="154.1,150.4 108.6,138.6 102.3,160.4 	"/>
	<polygon class="st0" points="102.3,160.4 108.6,138.6 103.3,150.3 	"/>
	<polygon class="st0" points="102.3,160.4 108.6,138.6 103.3,150.3 	"/>
	<polygon class="st0" points="102.3,160.4 108.6,138.6 103.3,150.3 	"/>
	<polygon class="st219" points="231,137.9 217.6,123 240,193 	"/>
	<polygon class="st220" points="231,137.9 217.6,123 209.5,138.6 	"/>
	<polygon class="st221" points="266.5,212.6 209.5,138.6 240,193 	"/>
	<polygon class="st222" points="237.8,124.2 167.2,89.2 209.5,138.6 	"/>
	<polygon class="st223" points="125,167.5 108.6,138.6 102.3,160.4 	"/>
	<polygon class="st224" points="231,137.9 283.2,113.4 283.2,112.1 209.5,138.6 	"/>
	<polygon class="st225" points="209.5,138.6 283.2,112.1 283.2,111.3 237.8,124.2 	"/>
	<polygon class="st226" points="283.2,436.4 283.2,431.7 270.8,441.3 	"/>
	<polygon class="st227" points="283.2,438.9 283.2,437 270.8,441.3 	"/>
	<polygon class="st228" points="118.5,25.6 103.4,13.2 110.2,42.8 	"/>
	<polygon class="st229" points="283.2,111.3 283.2,111.2 237.8,124.2 	"/>
	<polygon class="st230" points="283.2,440.6 283.2,437 270.8,441.3 	"/>
	<polygon class="st231" points="228.5,0.1 214.6,0.1 226.1,12.7 	"/>
	<polygon class="st0" points="237.8,124.2 204.2,116.5 231,137.9 	"/>
	<polygon class="st0" points="237.8,124.2 204.2,116.5 231,137.9 	"/>
	<polygon class="st0" points="237.8,124.2 204.2,116.5 231,137.9 	"/>
	<polygon class="st232" points="183.8,0.1 174.6,0.1 185.5,6.6 	"/>
	<polygon class="st233" points="236.3,0.1 233.1,0.1 241.5,3.9 	"/>
	<polygon class="st234" points="183.8,0.1 161.3,0.1 185.5,6.6 	"/>
	<polygon class="st235" points="185.5,6.6 191.9,0.1 183.8,0.1 	"/>
	<polygon class="st236" points="181.3,0.1 174.6,0.1 185.5,6.6 	"/>
	<polygon class="st0" points="241.1,27.9 241.5,3.9 226.1,12.7 	"/>
	<polygon class="st237" points="266.3,0.1 219.7,0.1 241.1,27.9 	"/>
	<polygon class="st238" points="241.1,27.9 266.3,0.1 253.3,0.1 226.1,12.7 	"/>
	<polygon class="st239" points="241.5,3.9 239.1,0.1 224.5,0.1 226.1,12.7 	"/>
	<polygon class="st240" points="185.5,6.6 161.3,0.1 139.1,0.1 103.4,13.2 	"/>
	<polygon class="st241" points="226.1,12.7 253.3,0.1 224.5,0.1 	"/>
	<polygon class="st242" points="283.2,440.6 283.2,434.3 270.8,441.3 	"/>
	<polygon class="st243" points="241.1,27.9 231.3,0.1 224.5,0.1 226.1,12.7 	"/>
	<polygon class="st244" points="185.5,6.6 182.1,0.1 181.3,0.1 	"/>
	<polygon class="st245" points="103.4,13.2 139.1,0.1 114.3,0.1 	"/>
	<polygon class="st246" points="250.6,0.1 241.5,3.9 283.2,17.2 283.2,1.4 282.4,0.1 	"/>
	<polygon class="st247" points="185.5,6.6 191.9,0.1 182.1,0.1 	"/>
	<polygon class="st248" points="241.5,3.9 233.1,0.1 227,0.1 248.6,14.1 	"/>
	<polygon class="st249" points="122,0.1 114.3,0.1 103.4,13.2 	"/>
	<polygon class="st0" points="241.1,27.9 266.3,0.1 250.6,0.1 241.5,3.9 	"/>
	<polygon class="st250" points="226.1,12.7 253.3,0.1 233.1,0.1 	"/>
	<polygon class="st0" points="248.6,14.1 241.5,3.9 241.1,27.9 	"/>
	<polygon class="st0" points="248.6,14.1 241.5,3.9 241.1,27.9 	"/>
	<polygon class="st251" points="241.1,27.9 266.3,0.1 264.2,0.1 248.6,14.1 	"/>
	<polygon class="st252" points="282.4,0.1 283.2,1.4 283.2,0.1 	"/>
	<polygon class="st253" points="248.6,14.1 264.2,0.1 239.6,0.1 	"/>
	<polygon class="st253" points="248.6,14.1 264.2,0.1 239.6,0.1 	"/>
	<polygon class="st254" points="241.1,27.9 246.1,0.1 242.5,0.1 241.5,3.9 	"/>
	<polygon class="st255" points="242.5,0.1 239.1,0.1 241.5,3.9 	"/>
	<polygon class="st256" points="283.2,233.9 283.2,229.5 268.7,243.8 	"/>
	<polygon class="st257" points="241.5,3.9 255.8,0.1 242.5,0.1 	"/>
	<polygon class="st89" points="134,114.4 223.2,91.8 148.1,109.9 	"/>
	<polygon class="st258" points="134.6,19.8 143.2,0.1 141.4,0.1 	"/>
	<polygon class="st259" points="129.2,0.1 111.5,0.1 134.6,19.8 	"/>
	<polygon class="st260" points="170.3,39.3 115.7,0.1 111.5,0.1 134.6,19.8 	"/>
</g>
</svg>
