<?xml version="1.0" encoding="utf-8"?>
<!-- Generator: Adobe Illustrator 24.0.1, SVG Export Plug-In . SVG Version: 6.00 Build 0)  -->
<svg version="1.1" id="Capa_1" xmlns="http://www.w3.org/2000/svg" xmlns:xlink="http://www.w3.org/1999/xlink" x="0px" y="0px"
	 viewBox="0 0 2497.4 2009.6" style="enable-background:new 0 0 2497.4 2009.6;" xml:space="preserve">
<style type="text/css">
	.st0{fill:#8A9CF5;}
	.st1{fill:#FFFFFF;}
</style>
<title>Mascotiendalogofooter</title>
<rect x="-20" y="-16.1" class="st0" width="2537.4" height="2041.9"/>
<image style="overflow:visible;enable-background:new    ;" width="686" height="552" xlink:href="Recurso.png"  transform="matrix(3.6989 0 0 3.6989 -20.0286 -16.1118)">
</image>
<g id="Capa_2_1_">
	<g id="Capa_1-2">
		<path class="st1" d="M1800.6,840.4l-436.5-436c-63.7-63.6-166.8-63.6-230.6,0L696.2,841.3c-6.4,6.4-8.1,15.7-4.8,23.8
			c3.5,8.1,11.3,13.4,20.3,13.5H767l97.1,578v0.4c0,0.4,0.3,0.7,0.3,1.2c0,0.4,0.3,0.7,0.3,0.9c0,0.3,0.3,0.7,0.3,1.2
			s0.3,0.7,0.4,1.2c0.3,0.4,0.3,0.7,0.4,0.9c0.3,0.3,0.4,0.7,0.4,1.2s0.3,0.4,0.4,0.7c0.3,0.4,0.4,0.7,0.7,1.2
			c0.3,0.3,0.3,0.4,0.4,0.4c0.3,0.4,0.7,0.9,0.9,1.3c0.1,0.4,0.3,0.3,0.3,0.4c0.9,1.2,1.7,2,2.9,2.9c0.3,0.3,0.4,0.3,0.4,0.4
			c0.4,0.3,0.9,0.4,1.2,0.9c0.3,0.3,0.4,0.3,0.7,0.4c0.3,0.3,0.7,0.4,0.9,0.7c0.3,0.3,0.7,0.3,0.9,0.4c0.3,0.3,0.7,0.3,0.9,0.4
			c0.3,0.3,0.7,0.3,0.9,0.4c0.3,0.3,0.7,0.3,1.2,0.4c0.4,0.3,0.7,0.3,0.9,0.3c0.4,0.3,0.9,0.3,1.3,0.3c0.3,0,0.4,0.3,0.7,0.3
			c0.3,0,1.2,0.3,1.6,0.3h0.4c0.7,0,1.3,0.3,2.2,0.3h725.5c0.7,0,1.6,0,2.2-0.3h0.4c0.4,0,1.2-0.3,1.6-0.3c0.4,0,0.4-0.3,0.7-0.3
			c0.3,0,0.9-0.3,1.3-0.3s0.7-0.3,0.9-0.3s0.7-0.3,1.2-0.4c0.4-0.1,0.7-0.3,0.9-0.4c0.3-0.3,0.7-0.3,0.9-0.4
			c0.3-0.3,0.7-0.3,0.9-0.4c0.3-0.3,0.7-0.4,0.9-0.7c0.3-0.3,0.4-0.3,0.9-0.4c0.4-0.3,0.9-0.4,1.2-0.9c0.3-0.3,0.4-0.3,0.7-0.4
			c1.2-0.9,2-1.7,2.9-2.9c0-0.3,0.3-0.3,0.3-0.4c0-0.3,0.7-0.9,0.9-1.3c0.3-0.4,0.3-0.4,0.4-0.7c0.3-0.3,0.4-0.7,0.7-1.2
			c0.3-0.4,0.3-0.4,0.4-0.7c0.3-0.3,0.4-0.7,0.4-1.2s0.3-0.7,0.4-0.9c0.3-0.3,0.3-0.7,0.4-1.2c0.3-0.3,0.3-0.7,0.3-1.2
			c0-0.3,0.3-0.7,0.3-0.9c0-0.3,0.3-0.7,0.3-1.2v-0.4l97.5-577.7h55c12.2,0,21.8-9.9,21.8-22.1
			C1807.6,850.6,1805,844.6,1800.6,840.4L1800.6,840.4z M1008.4,1431.1H903.7l-29.5-174.6h134.1L1008.4,1431.1L1008.4,1431.1z
			 M1445.1,1431.1h-393.1v-196.4c0-108.6,88-196.5,196.5-196.5s196.5,88,196.5,196.5V1431.1z M1593.3,1431.1h-104.7v-174.6h133.8
			L1593.3,1431.1z M1680.4,912.3h-125.6c-12,0-21.8,9.9-21.8,21.8c0,12,9.9,21.8,21.8,21.8H1673l-43,256.8h-142.4
			c-11.2-122.1-114.2-218.2-239.1-218.2c-124.3,0-227.7,94.8-239.1,218.3H867.1L823.9,956H942c12,0,21.8-9.9,21.8-21.8
			c0-11.9-9.9-21.8-21.8-21.8H816.5l-5.7-33.7h47.8c6,0,11.3-2.5,15.5-6.4l374.5-374.6l374.5,374.5c4.2,4.2,9.6,6.4,15.5,6.4h47.8
			L1680.4,912.3z M1647.8,835.1l-383.5-383.6c-8.6-8.6-22.2-8.6-30.8,0L849.9,835.1h-85.3l399.8-399.6c46.7-46.4,122.2-46.4,169-0.3
			L1733,834.8L1647.8,835.1z"/>
		<path class="st1" d="M1153.7,1598.6c4.2,0,8.1,1.3,11.6,3.5c1.6,1.2,3.3,1.3,5.1,0.7c1.3-0.7,2.6-1.7,3.3-3c0.7-1.3,0.9-3,0.7-4.6
			c-0.4-1.7-1.6-3.3-3-4.2c-2.9-1.7-6.1-3-9.4-3.9c-3-0.7-6.1-1.2-9.4-1.2c-6.1-0.3-12,1.3-17.4,3.9c-5.1,2.6-9,6.5-11.6,11.3
			c-2.9,5.5-4.2,11.6-4.2,17.7c-0.3,6.1,1.3,12.2,4.2,17.9c2.6,5.1,6.5,9,11.6,11.8c5.5,2.9,11.3,4.4,17.4,4.2c3,0,6.1-0.4,9.1-1.2
			c3.3-0.9,6.4-2,9.1-3.8c1.6-0.9,2.6-2.5,3-3.9c0.4-1.6,0.3-3-0.4-4.6c-0.7-1.3-1.7-2.5-3-3c-1.6-0.7-3.5-0.4-4.8,0.7
			c-3.5,2-7.7,3.3-11.6,3.3c-5.1,0.3-9.9-1.7-13.1-5.5c-3.3-4.4-5.1-9.9-4.6-15.2c0-6.5,1.6-11.6,4.6-15.1
			C1143.8,1600.3,1148.6,1598.4,1153.7,1598.6z M1229.6,1589.9c-10.9-5.5-23.8-5.5-34.5,0c-4.8,2.6-8.7,6.5-11.3,11.6
			c-2.9,5.5-4.2,11.6-4.2,17.7c-0.3,6.1,1.3,12.2,4.2,17.7c2.6,4.8,6.5,9,11.3,11.6c10.9,5.5,23.8,5.5,34.5,0
			c4.8-2.6,8.7-6.8,11.3-11.6c2.9-5.5,4.2-11.6,4.2-17.7c0.3-6.1-1.3-12.2-4.2-17.7C1238.3,1596.7,1234.4,1592.8,1229.6,1589.9
			L1229.6,1589.9z M1224.1,1634.9c-5.7,6.5-15.7,7.3-22.2,1.3c-0.4-0.4-0.9-0.9-1.3-1.3c-2.9-3.5-4.4-8.7-4.4-15.7s1.6-12,4.4-15.7
			c6-6.5,16.1-7,22.6-0.9c0.3,0.3,0.7,0.7,0.9,0.9c2.9,3.5,4.4,8.7,4.4,15.7S1227,1631.4,1224.1,1634.9L1224.1,1634.9z
			 M960.6,1557.9c-1.7,0-3.5,0.4-5.1,1.3c-1.6,1.2-2.6,2.6-3.5,4.4l-30.3,55.9l-30.3-56.2c-0.9-1.7-2-3.3-3.5-4.4
			c-1.6-0.9-3.3-1.3-5.2-1.3c-5.2,0-7.8,2.6-7.8,7.8v78.8c0,5.2,2.6,7.8,7.7,7.8s7.7-2.6,7.7-7.8v-55l24.7,44.7
			c0.7,1.3,1.6,2.5,2.9,3.3c1.3,0.9,2.6,1.2,4.2,1.2c1.3,0,2.9-0.3,3.9-1.2c1.2-0.9,2-2,2.9-3.3l24.7-45v55.4c0,5.2,2.6,7.8,7.7,7.8
			c5.1,0,7.7-2.6,7.7-7.8v-78.8C968.2,1560.5,965.8,1557.9,960.6,1557.9z M1092.3,1615.3l-13.1-2.5c-5.1-0.9-7.4-3.3-7.4-7
			c0-2.5,1.2-4.6,3-6c2.9-1.7,6.1-2.5,9.6-2.2c2.5,0,4.8,0.3,7.3,0.9c2.6,0.7,5.2,1.7,7.8,3c1.6,0.9,3.3,1.2,4.8,0.4
			c1.3-0.4,2.5-1.6,3-2.9c0.7-1.3,0.9-2.9,0.4-4.4c-0.4-1.6-1.6-2.9-3-3.8c-6.4-3.5-13.4-5.2-20.5-5.1c-4.8,0-9.6,0.7-14.2,2.5
			c-3.8,1.6-7.3,3.9-9.6,7c-2.3,3-3.5,7-3.5,10.9c0,9.4,5.5,15.2,16.5,17.3l13.1,2.5c5.5,1.2,8.1,3.5,8.1,7c0,2.5-1.2,4.4-3,5.7
			c-2.9,1.7-6.1,2.5-9.4,2.2c-3,0-6.1-0.4-9-1.2c-3.5-0.9-6.8-2-9.9-3.5c-1.3-0.9-3-1.2-4.6-0.4c-1.3,0.7-2.5,1.6-2.9,2.9
			c-0.7,1.3-0.7,2.9-0.3,4.4c0.7,1.7,1.7,3,3.5,3.9c3.5,2,7.3,3.3,11.3,4.2c3.9,0.7,7.8,1.2,12,1.2c8.3,0,14.8-1.7,19.9-5.5
			c4.8-3.5,7.7-9,7.4-15.1c0.3-4.2-1.3-8.3-4.4-11.3C1101.7,1617.9,1097.1,1615.8,1092.3,1615.3L1092.3,1615.3z M1014.3,1586.1
			c-3.5,0-6.8,0.4-10,1.2c-3.9,0.9-7.8,2-11.6,3.5c-1.7,0.7-3.3,2-3.9,3.8c-0.7,1.6-0.7,3.3-0.3,5.1c0.4,1.6,1.6,2.9,2.9,3.5
			c1.7,0.7,3.8,0.7,5.2-0.4c3-1.3,6.1-2.5,9.1-3c2.6-0.7,5.5-0.9,8.3-0.9c4.6,0,7.8,0.9,9.6,2.9c1.7,2,2.9,5.1,2.9,9.4v2.9h-4.6
			c-7.4-0.3-14.8,0.4-22.1,1.7c-4.6,0.7-8.7,2.9-12,6c-2.6,3-3.9,7.3-3.8,11.2c0,3.8,1.2,7.3,3,10.3c2.2,3,5.1,5.7,8.6,7.3
			c3.9,1.7,8.1,2.9,12.5,2.6c4.2,0,8.1-0.9,11.6-3c3.3-2,5.7-5.1,7-8.6v2.9c0,5.7,2.6,8.3,7.7,8.3c5.1,0,7.7-2.9,7.7-8.3v-31.5
			c0-9.1-2.2-15.7-6.8-20C1030.7,1588.4,1023.6,1586.1,1014.3,1586.1z M1026.5,1625.7c0.3,4.2-1.3,8.3-4.2,11.3
			c-2.9,2.9-6.5,4.6-10.7,4.4c-3,0.3-6.1-0.9-8.3-2.9c-2-1.7-3-4.4-3-7c-0.3-3,1.7-6,4.8-7c3.3-1.3,9-2,17-2h4.4L1026.5,1625.7z
			 M1401.5,1618.3c0-10-2.6-17.9-7.8-23.5c-5.2-5.7-12.5-8.7-21.6-8.7c-6,0-11.6,1.3-16.5,4.4c-4.8,2.9-8.7,6.8-11.3,11.8
			c-5.5,11.2-5.5,24,0.3,35.1c2.9,5.1,7,9,12,11.6c6,2.9,12.2,4.2,18.7,4.2c3.8,0,7.4-0.4,11.2-1.3c3.8-0.9,7.3-2.5,10.5-4.4
			c1.7-0.9,3-2.5,3.8-4.4c0.4-1.6,0.4-3.3-0.3-4.6c-0.7-1.3-2-2.5-3.3-2.9c-2-0.4-4.2,0-5.7,1.3c-2.6,1.3-5.2,2.5-8.1,2.9
			c-2.6,0.4-5.1,0.9-7.7,0.9c-11.8,0-18.3-5.7-19.6-17.3h39.5C1399.3,1623.1,1401.5,1621.5,1401.5,1618.3L1401.5,1618.3z
			 M1355.6,1613.7c0.4-4.6,2.2-8.7,5.5-12c3-3,7.4-4.6,11.6-4.4c4.2-0.3,8.1,1.3,10.9,4.4c2.9,3.5,4.4,7.8,4.4,12.2L1355.6,1613.7z
			 M1296.8,1638.3c-1.2,0.3-2,0.3-3,0.4c-1.3,0.3-2.6,0.4-3.9,0.4c-3.3,0.3-6.5-0.9-9-3c-2-2.6-3-6.1-2.9-9.4v-27.1h13.9
			c4.4,0,6.5-2,6.5-6.1c0-4.2-2.2-6.1-6.5-6.1h-13.9v-12c0-5.5-2.6-8.3-8.1-8.3s-8.3,2.9-8.3,8.3v12h-6.8c-4.4,0-6.5,2-6.5,6.1
			c0,4.2,2.2,6.1,6.5,6.1h6.8v28c0,16.8,8.6,25.1,25.3,25.1c1.6,0,3.3-0.3,4.8-0.4c1.6-0.3,2.9-0.7,4.4-1.2c1.3-0.4,2.6-1.6,3-2.9
			c0.7-1.6,0.9-3,0.9-4.6c0.3-1.6-0.3-3.3-1.2-4.6C1298.5,1638.5,1297.7,1638,1296.8,1638.3L1296.8,1638.3z M1617.9,1592.5
			c-4.6-4.4-11.6-6.5-20.8-6.5c-3.5,0-6.8,0.4-10,1.2c-3.9,0.9-7.8,2-11.6,3.5c-1.7,0.7-3.3,2-3.9,3.8c-0.7,1.6-0.7,3.3-0.3,5.1
			c0.4,1.6,1.6,2.9,2.9,3.5c1.7,0.7,3.8,0.7,5.2-0.4c3-1.3,6.1-2.5,9.1-3c2.6-0.7,5.5-0.9,8.3-0.9c4.6,0,7.8,0.9,9.6,2.9
			c2,2,2.9,5.1,2.9,9.4v2.9h-4.8c-7.4-0.3-14.8,0.4-22.1,1.7c-4.6,0.7-8.7,2.9-12,6c-2.6,3-3.9,7.3-3.8,11.2c0,3.8,1.2,7.3,3,10.3
			c2.2,3,5.1,5.7,8.6,7.3c3.9,1.7,8.1,2.9,12.5,2.6c4.2,0,8.1-0.9,11.6-3c3.3-2,5.7-5.1,7-8.6v2.9c0,5.7,2.6,8.3,7.7,8.3
			c5.2,0,7.7-2.9,7.7-8.3v-31.5C1624.6,1603.4,1622.4,1596.8,1617.9,1592.5L1617.9,1592.5z M1609,1625.7c0.3,4.2-1.6,8.3-4.4,11.3
			c-2.9,2.9-6.5,4.6-10.7,4.4c-3,0.3-6.1-0.9-8.3-2.9c-2-1.7-3-4.4-3-7c-0.3-3,1.7-6,4.8-7c3.3-1.3,9-2,17-2h4.4L1609,1625.7z
			 M1451.7,1586.1c-4.4,0-8.7,0.9-12.5,2.9c-3.8,2-6.8,4.8-8.7,8.3v-2.9c0-5.5-2.6-8.3-8.1-8.3c-5.5,0-8.1,2.9-8.1,8.3v49.5
			c0,5.7,2.6,8.3,8.1,8.3c5.5,0,8.1-2.9,8.3-8.3V1615c-0.3-4.4,1.3-8.7,4.4-12c3-3,7.3-4.8,11.6-4.6c3.3-0.3,6.5,0.9,8.7,3.5
			c2,2.2,2.9,6,2.9,10.9v31.1c0,5.7,2.9,8.3,8.3,8.3c5.5,0,8.3-2.9,8.1-8.3v-31.6C1474.3,1594.9,1466.8,1586.1,1451.7,1586.1z
			 M1544.4,1557.9c-5.5,0-8.1,2.9-8.1,8.3v30.8c-2-3.5-4.8-6.1-8.3-8.1c-3.8-2-8.1-3-12.2-3c-5.2,0-10.3,1.3-14.8,4.2
			c-4.4,2.9-7.7,6.8-9.9,11.6c-2.5,5.7-3.8,11.6-3.5,17.7c-0.3,6.1,1.2,12.2,3.5,17.7c4.2,9.9,13.9,16,24.7,15.7
			c4.4,0,8.7-1.2,12.5-3c3.5-2,6.4-4.8,8.3-8.3v2.9c0,5.7,2.6,8.3,8.1,8.3c5.5,0,8.1-2.9,8.1-8.3v-77.9
			C1552.6,1560.5,1549.9,1557.9,1544.4,1557.9L1544.4,1557.9z M1531.9,1635c-5.7,6.5-15.7,7.3-22.2,1.3c-0.4-0.4-0.9-0.9-1.3-1.3
			c-2.9-3.5-4.4-8.7-4.4-15.7s1.6-12,4.4-15.7c6-6.5,16.1-7,22.6-0.9c0.3,0.3,0.7,0.7,0.9,0.9c2.9,3.5,4.4,8.7,4.4,15.7
			C1536.4,1626.3,1534.8,1631.5,1531.9,1635L1531.9,1635z M1318,1586.4c-5.5,0-8.1,3-8.1,9v48c-0.3,2.5,0.7,4.8,2.2,6.5
			c1.6,1.7,3.8,2.5,6.1,2.5c2.5,0.3,4.6-0.7,6.1-2.5c1.6-1.7,2.5-4.2,2.2-6.5v-48C1326.3,1589.4,1323.5,1586.4,1318,1586.4
			L1318,1586.4z M1318,1556.9c-2.6-0.3-5.1,0.7-7.3,2.2c-3.5,3.5-3.5,9.1,0,12.6c2,1.6,4.6,2.5,7.3,2.2c6.5,0,9.6-2.9,9.6-8.7
			C1327.9,1559.5,1324.5,1556.6,1318,1556.9L1318,1556.9z"/>
	</g>
</g>
</svg>
