<?xml version="1.0" encoding="utf-8"?>
<!-- Generator: Adobe Illustrator 24.0.1, SVG Export Plug-In . SVG Version: 6.00 Build 0)  -->
<svg version="1.1" id="Capa_1" xmlns="http://www.w3.org/2000/svg" xmlns:xlink="http://www.w3.org/1999/xlink" x="0px" y="0px"
	 viewBox="0 0 384 384" style="enable-background:new 0 0 384 384;" xml:space="preserve">
<style type="text/css">
	.st0{fill:#FFFFFF;}
</style>
<g>
	<path class="st0" d="M364,53h-62.4H82.4H20C9,53,0,62,0,73s9,20,20,20h62.4h219.1H364c11,0,20-9,20-20S375,53,364,53z"/>
	<path class="st0" d="M364,175.7h-62.4H82.4H20c-11,0-20,9-20,20s9,20,20,20h62.4h219.1H364c11,0,20-9,20-20S375,175.7,364,175.7z"
		/>
	<path class="st0" d="M364,298.3h-62.4H82.4H20c-11,0-20,9-20,20s9,20,20,20h62.4h219.1H364c11,0,20-9,20-20S375,298.3,364,298.3z"
		/>
</g>
</svg>
